<svg width="150" height="150" viewBox="0 0 150 150" fill="none" xmlns="http://www.w3.org/2000/svg">
<g clip-path="url(#clip0_11680_17)">
<path d="M20.6799 23.846C21.6668 23.8374 22.6537 23.8288 23.6706 23.8199C25.3008 23.8136 25.3008 23.8136 26.9638 23.807C28.1054 23.7989 29.247 23.7907 30.4232 23.7823C34.2144 23.7574 38.0056 23.7409 41.7969 23.7265C43.0894 23.7211 44.3819 23.7158 45.7136 23.7103C51.1455 23.6891 56.5773 23.67 62.0092 23.6587C69.7907 23.6425 77.5716 23.6093 85.3528 23.5523C91.4856 23.5089 97.6182 23.493 103.751 23.4866C106.359 23.4799 108.966 23.4646 111.574 23.4407C115.222 23.4091 118.87 23.409 122.519 23.4164C123.597 23.4 124.676 23.3836 125.787 23.3667C133.961 23.4348 133.961 23.4348 137.655 26.4114C141.221 30.348 141.144 32.9853 141.129 38.08C141.132 39.1729 141.132 39.1729 141.135 40.2879C141.139 42.7023 141.136 45.1167 141.133 47.5312C141.133 49.205 141.134 50.8789 141.136 52.5528C141.137 56.0633 141.135 59.5738 141.13 63.0844C141.125 67.5906 141.128 72.0967 141.134 76.6029C141.138 80.0601 141.136 83.5172 141.134 86.9744C141.133 88.6362 141.134 90.2981 141.136 91.9599C141.139 94.2799 141.135 96.5998 141.129 98.9198C141.131 99.6108 141.133 100.302 141.136 101.014C141.114 105.771 141.114 105.771 140 108C140.638 107.988 141.276 107.977 141.934 107.965C142.76 107.956 143.586 107.947 144.437 107.937C145.261 107.926 146.085 107.914 146.934 107.902C149 108 149 108 150 109C150.402 113.099 150.261 115.488 148.375 119.187C145.061 123.112 142.542 125.642 137.393 126.366C134.077 126.514 130.784 126.529 127.465 126.502C126.204 126.507 124.943 126.512 123.644 126.518C120.198 126.532 116.752 126.521 113.305 126.504C109.694 126.49 106.082 126.497 102.47 126.5C96.4066 126.503 90.3434 126.49 84.28 126.466C77.2748 126.44 70.27 126.438 63.2648 126.45C56.518 126.461 49.7712 126.454 43.0244 126.44C40.1565 126.435 37.2886 126.435 34.4207 126.439C30.4156 126.445 26.411 126.426 22.406 126.404C20.6237 126.411 20.6237 126.411 18.8054 126.418C17.7134 126.408 16.6213 126.398 15.4962 126.388C14.0768 126.384 14.0768 126.384 12.6287 126.38C8.21012 125.741 5.64835 123.738 2.74998 120.437C-0.138323 116.414 -0.180348 113.959 -1.98968e-05 109C0.99998 108 0.99998 108 3.06639 107.902C3.8901 107.914 4.71381 107.925 5.56248 107.937C6.80191 107.951 6.80191 107.951 8.06639 107.965C9.02352 107.982 9.02352 107.982 9.99998 108C9.66998 107.34 9.33998 106.68 8.99998 106C8.88197 103.663 8.83008 101.323 8.80711 98.9833C8.79893 98.2611 8.79075 97.539 8.78233 96.7949C8.75747 94.3997 8.74096 92.0046 8.72654 89.6093C8.71856 88.3821 8.71856 88.3821 8.71041 87.1301C8.68368 82.7985 8.6643 78.4669 8.64988 74.1352C8.63325 69.6649 8.58848 65.1954 8.53751 60.7254C8.50382 57.2853 8.4923 53.8453 8.48666 50.4049C8.47995 48.7575 8.46473 47.1101 8.44076 45.4629C8.40907 43.1527 8.40908 40.8444 8.41648 38.5341C8.40435 36.5646 8.40435 36.5646 8.39198 34.5553C9.188 29.9005 10.6948 28.309 14 24.9999C16.4218 23.789 17.9731 23.8635 20.6799 23.846ZM16 32.9999C14.8932 36.3201 14.8596 38.8218 14.8388 42.3197C14.8292 43.6247 14.8196 44.9297 14.8097 46.2743C14.8049 47.7011 14.8006 49.1278 14.7969 50.5546C14.7911 52.0181 14.7853 53.4815 14.7796 54.945C14.7691 58.0133 14.7632 61.0815 14.7597 64.1498C14.7543 68.0763 14.7302 72.0024 14.7018 75.9287C14.6831 78.9519 14.6779 81.9751 14.6764 84.9983C14.6734 86.4456 14.6654 87.8928 14.6522 89.34C14.6351 91.367 14.6389 93.3942 14.6435 95.4213C14.6399 96.5736 14.6362 97.726 14.6325 98.9132C15.0425 102.357 15.9407 104.236 18 107C20.355 108.177 21.7636 108.131 24.3896 108.14C25.7734 108.149 25.7734 108.149 27.1851 108.158C28.7078 108.159 28.7078 108.159 30.2612 108.161C31.328 108.166 32.3947 108.171 33.4938 108.176C37.0349 108.191 40.576 108.198 44.1172 108.203C46.571 108.209 49.0247 108.215 51.4785 108.22C56.6284 108.231 61.7783 108.237 66.9282 108.24C73.535 108.246 80.1417 108.27 86.7484 108.298C91.8184 108.317 96.8883 108.322 101.958 108.323C104.394 108.327 106.831 108.335 109.267 108.348C112.671 108.365 116.075 108.363 119.48 108.356C120.491 108.366 121.502 108.375 122.544 108.384C123.472 108.379 124.4 108.373 125.356 108.367C126.564 108.37 126.564 108.37 127.795 108.372C130.587 107.901 131.949 106.926 134 105C135.107 101.68 135.14 99.178 135.161 95.6801C135.171 94.3751 135.18 93.0701 135.19 91.7255C135.195 90.2988 135.199 88.872 135.203 87.4452C135.209 85.9818 135.215 84.5183 135.22 83.0548C135.231 79.9865 135.237 76.9183 135.24 73.85C135.246 69.9236 135.27 65.9975 135.298 62.0711C135.317 59.0479 135.322 56.0248 135.324 53.0015C135.327 51.5542 135.335 50.107 135.348 48.6598C135.365 46.6328 135.361 44.6056 135.356 42.5785C135.36 41.4262 135.364 40.2739 135.367 39.0866C134.958 35.6431 134.059 33.7641 132 30.9999C129.645 29.8224 128.236 29.8692 125.61 29.8595C124.688 29.8538 123.765 29.848 122.815 29.8422C121.292 29.8405 121.292 29.8405 119.739 29.8388C118.672 29.8338 117.605 29.8288 116.506 29.8237C112.965 29.8091 109.424 29.8023 105.883 29.7968C103.429 29.791 100.975 29.7853 98.5214 29.7795C93.3715 29.769 88.2217 29.7632 83.0718 29.7597C76.4649 29.7542 69.8583 29.7302 63.2515 29.7017C58.1816 29.6831 53.1116 29.6779 48.0416 29.6763C45.6055 29.6733 43.1694 29.6653 40.7333 29.6522C37.3287 29.6351 33.9246 29.637 30.52 29.6435C29.0034 29.6296 29.0034 29.6296 27.4562 29.6155C26.528 29.6211 25.5999 29.6267 24.6436 29.6324C23.4362 29.6302 23.4362 29.6302 22.2045 29.628C19.4129 30.099 18.051 31.0736 16 32.9999ZM7.99998 114C10.3492 119.145 10.3492 119.145 14 120C15.6508 120.096 17.3051 120.135 18.9587 120.14C20.4938 120.149 20.4938 120.149 22.06 120.158C23.7432 120.159 23.7432 120.159 25.4604 120.161C26.6428 120.166 27.8251 120.171 29.0433 120.176C32.2871 120.188 35.531 120.196 38.7749 120.2C40.8019 120.203 42.829 120.207 44.8561 120.212C51.1998 120.225 57.5435 120.235 63.8872 120.239C71.2077 120.243 78.5279 120.261 85.8484 120.29C91.5088 120.311 97.1691 120.322 102.83 120.323C106.209 120.324 109.589 120.33 112.969 120.348C116.74 120.365 120.51 120.363 124.281 120.356C125.399 120.366 126.517 120.375 127.669 120.384C128.698 120.379 129.727 120.373 130.787 120.367C131.678 120.369 132.57 120.37 133.488 120.372C136.606 119.91 138.482 118.874 141 117C141.33 116.01 141.66 115.02 142 114C97.78 114 53.56 114 7.99998 114Z" fill="#FF2D64"/>
<path d="M101.226 47.9277C103 49.0002 103 49.0002 105 53.0002C92.79 65.2102 80.58 77.4202 68 90.0002C63.8842 87.5308 62.2436 86.2286 59.4492 82.676C57.7702 80.7346 55.9445 79.1123 54 77.4377C53.3206 76.8525 52.6413 76.2673 51.9414 75.6643C50.7423 74.6365 49.5421 73.6102 48.3398 72.5862C46.9375 71.3127 46.9375 71.3127 45 69.0002C44.9375 66.8127 44.9375 66.8127 46 65.0002C48.0625 63.7502 48.0625 63.7502 50 63.0002C52 64.3752 52 64.3752 54 66.0002C54 66.6602 54 67.3202 54 68.0002C54.562 68.2349 55.124 68.4695 55.7031 68.7112C58.5463 70.3069 60.481 72.2895 62.75 74.6252C63.5492 75.4425 64.3484 76.2598 65.1719 77.1018C65.7751 77.7283 66.3784 78.3548 67 79.0002C71.6441 75.2408 75.8516 71.1873 80.0117 66.9104C80.5507 66.3588 81.0897 65.8072 81.645 65.2389C83.9046 62.925 86.1624 60.61 88.4016 58.2764C90.052 56.5596 91.7177 54.859 93.3867 53.1604C94.1431 52.3606 94.1431 52.3606 94.9147 51.5447C98.4136 48.0193 98.4136 48.0193 101.226 47.9277Z" fill="#FF2B63"/>
</g>
<defs>
<clipPath id="clip0_11680_17">
<rect width="150" height="150" fill="white"/>
</clipPath>
</defs>
</svg>
