<svg width="150" height="150" viewBox="0 0 150 150" fill="none" xmlns="http://www.w3.org/2000/svg">
<g clip-path="url(#clip0_11680_20)">
<path d="M48.6992 35.6123C51.0827 37.0498 52.4798 38.5539 54.3281 40.6132C60.0768 45.7579 66.9512 44.8232 74.25 44.6249C76.9445 44.5665 79.6323 44.5443 82.3281 44.539C84.1056 44.4957 84.1056 44.4957 85.919 44.4516C89 44.9999 89 44.9999 91.4014 47.1967C93.15 50.263 93.4357 51.8305 93.25 55.3124C93.2139 56.1955 93.1778 57.0785 93.1406 57.9882C93.0942 58.6521 93.0478 59.316 93 59.9999C93.9327 59.9738 94.8655 59.9476 95.8264 59.9206C99.3136 59.835 102.8 59.7725 106.287 59.7253C107.792 59.7003 109.296 59.6662 110.8 59.6228C126.114 59.1913 126.114 59.1913 130.533 63.2814C131.259 64.1321 131.259 64.1321 132 64.9999C132.618 65.7172 133.235 66.4345 133.871 67.1735C135.915 69.6861 137.839 72.2597 139.75 74.8749C140.409 75.7476 141.067 76.6203 141.746 77.5195C147.377 85.1148 150.466 91.3148 150.469 100.82C150.476 101.642 150.484 102.464 150.492 103.31C150.503 105.036 150.506 106.763 150.501 108.489C150.5 111.125 150.542 113.759 150.586 116.394C150.591 118.078 150.594 119.762 150.594 121.445C150.61 122.229 150.627 123.012 150.643 123.819C150.592 127.889 150.182 129.77 147.63 133.004C144.637 135.275 143.378 135.558 139.688 135.312C138.805 135.267 137.922 135.222 137.012 135.176C136.348 135.118 135.684 135.06 135 135C134.918 135.701 134.835 136.402 134.75 137.125C133.436 142.163 131.057 145.163 127 148.375C121.944 150.952 116.505 150.833 111 150C106.256 148.262 103.129 145.675 100.5 141.375C99 138 99 138 99 135C85.14 135 71.28 135 57 135C56.67 136.65 56.34 138.3 56 140C53.3933 144.913 50.3553 148.285 45 150C38.1478 151.008 32.3221 150.732 26.625 146.566C23.922 143.961 22.5274 141.437 21 138C21 137.01 21 136.02 21 135C20.3362 135.058 19.6723 135.116 18.9883 135.176C17.6638 135.243 17.6638 135.243 16.3125 135.312C15.4424 135.37 14.5723 135.428 13.6758 135.488C9.68539 134.76 8.45268 133.208 6.00002 130C5.29728 126.647 5.37332 123.364 5.43362 119.949C5.42798 118.976 5.42235 118.004 5.41654 117.001C5.4001 113.896 5.41562 110.793 5.43752 107.687C5.45416 104.593 5.46314 101.5 5.44779 98.4057C5.43858 96.4834 5.44746 94.561 5.47743 92.639C5.45541 87.201 4.69944 83.4037 1.95744 78.6756C-1.71256 72.2525 -0.883485 62.0822 0.648462 55.0039C3.94008 45.9871 10.3808 39.1565 19 34.9999C28.0016 31.384 39.8974 31.4107 48.6992 35.6123ZM13 47.9999C8.09505 54.0282 5.6108 60.5862 6.06252 68.3749C7.23849 76.2012 10.8782 83.0067 17.1875 87.8203C23.4309 91.8838 30.1341 93.7782 37.5156 92.5976C45.2802 90.585 51.3583 86.8276 55.875 80.1249C59.723 73.274 60.9432 66.6838 59 58.9999C55.9051 50.5115 51.5267 45.4309 43.625 41.1874C32.1541 37.4297 21.7688 39.3484 13 47.9999ZM63 50.9999C63.3223 51.9938 63.6446 52.9877 63.9766 54.0117C66.4921 62.8694 66.2629 73.5443 62.2578 81.8906C57.2819 90.2353 50.3944 95.4244 41 97.9999C38.3636 98.2371 35.8826 98.3806 33.25 98.3749C32.1988 98.3747 32.1988 98.3747 31.1262 98.3745C23.7958 98.2142 18.0797 96.0531 12 91.9999C11.9259 96.7871 11.8714 101.574 11.8352 106.362C11.8201 107.99 11.7997 109.619 11.7737 111.247C11.7373 113.588 11.7203 115.928 11.7071 118.269C11.6916 118.998 11.6761 119.726 11.6601 120.476C11.657 124.451 11.657 124.451 13.3191 127.971C15.8512 129.521 18.1064 129.193 21 129C21.2798 128.324 21.5595 127.649 21.8477 126.953C25.9613 117.8 25.9613 117.8 30.8477 115.555C36.6843 114.05 43.3707 113.817 48.9375 116.375C51.9157 118.477 53.1366 120.907 54.6914 124.164C55.1279 125.068 55.5643 125.973 56.0139 126.905C56.5021 127.942 56.5021 127.942 57 129C60.951 129.049 64.9018 129.086 68.8531 129.11C70.8591 129.125 72.8651 129.15 74.8711 129.176C76.7564 129.185 76.7564 129.185 78.6797 129.195C80.4236 129.211 80.4236 129.211 82.2027 129.227C85.1391 129.293 85.1391 129.293 87 127C87.3083 123.815 87.3083 123.815 87.2588 120.012C87.2623 119.293 87.2658 118.574 87.2694 117.833C87.2783 115.451 87.2724 113.07 87.2656 110.687C87.267 109.036 87.2689 107.385 87.2714 105.733C87.2744 102.27 87.2701 98.8062 87.2608 95.3427C87.2494 90.897 87.2559 86.4515 87.2679 82.0058C87.2751 78.5949 87.2728 75.1841 87.2677 71.7733C87.2663 70.1338 87.268 68.4943 87.2726 66.8548C87.2777 64.5658 87.27 62.2772 87.2588 59.9882C87.2572 58.6841 87.2556 57.38 87.254 56.0363C87.3198 52.8893 87.3198 52.8893 85 50.9999C82.6719 50.7223 82.6719 50.7223 79.9922 50.8046C79.0061 50.8111 78.0199 50.8175 77.0039 50.8242C75.9714 50.8409 74.9389 50.8577 73.875 50.8749C72.8347 50.884 71.7945 50.893 70.7227 50.9023C68.1482 50.9259 65.5742 50.9588 63 50.9999ZM93 68.9999C92.5444 71.58 92.5444 71.58 92.6118 74.5253C92.6024 75.6566 92.5929 76.7879 92.5832 77.9534C92.5893 79.1753 92.5953 80.3973 92.6016 81.6562C92.5987 82.91 92.5958 84.1638 92.5929 85.4556C92.5908 88.1089 92.5949 90.7613 92.6089 93.4145C92.626 96.8144 92.6162 100.214 92.5982 103.613C92.5847 106.857 92.5942 110.1 92.6016 113.344C92.5955 114.566 92.5894 115.788 92.5832 117.046C92.5926 118.178 92.6021 119.309 92.6118 120.475C92.6142 121.471 92.6166 122.468 92.6191 123.495C92.8094 126.033 92.8094 126.033 94.3368 127.845C96.0733 129.285 96.0733 129.285 99 129C99.2797 128.324 99.5595 127.649 99.8477 126.953C103.961 117.8 103.961 117.8 108.848 115.555C114.684 114.05 121.371 113.817 126.938 116.375C131.276 119.289 133.065 124.327 135 129C139.069 129.386 139.069 129.386 142.681 127.835C144.505 125.297 144.342 123.562 144.293 120.457C144.283 119.384 144.274 118.311 144.264 117.205C144.239 116.085 144.213 114.966 144.188 113.812C144.174 112.681 144.16 111.55 144.147 110.385C144.111 107.589 144.062 104.795 144 102C142.991 101.991 141.982 101.981 140.942 101.972C137.192 101.932 133.443 101.866 129.693 101.792C128.072 101.764 126.45 101.743 124.828 101.729C122.494 101.707 120.162 101.661 117.828 101.609C117.105 101.608 116.382 101.607 115.637 101.606C112.285 101.508 110.303 101.216 107.544 99.2509C105.798 96.7057 105.486 95.4318 105.469 92.3749C105.464 91.5035 105.458 90.6321 105.453 89.7343C105.469 88.832 105.484 87.9296 105.5 86.9999C105.485 86.0976 105.469 85.1953 105.453 84.2656C105.476 80.4316 105.551 77.7793 107.484 74.4218C111.177 72.3346 114.569 72.3262 118.75 72.2499C119.543 72.2203 120.336 72.1906 121.152 72.1601C123.101 72.0897 125.051 72.0425 127 71.9999C126.277 68.8599 126.277 68.8599 123.699 67.3359C118.386 65.4171 113.417 65.5648 107.813 65.6249C106.174 65.6075 106.174 65.6075 104.502 65.5898C103.456 65.5937 102.41 65.5975 101.332 65.6015C100.38 65.6049 99.4289 65.6083 98.4485 65.6118C95.4832 66.0819 94.7881 66.6253 93 68.9999ZM111 80.9999C110.524 83.865 110.524 83.865 110.625 86.9999C110.617 88.0518 110.61 89.1037 110.602 90.1874C110.783 92.9358 110.783 92.9358 112.11 94.6574C114.93 96.6603 117.212 96.3378 120.637 96.2929C121.935 96.2832 123.234 96.2736 124.572 96.2636C125.944 96.2386 127.316 96.2132 128.688 96.1874C130.071 96.1724 131.454 96.1587 132.838 96.1464C136.226 96.111 139.613 96.0616 143 95.9999C140.104 85.6032 140.104 85.6032 133 77.9999C126.485 76.6721 115.47 75.1998 111 80.9999ZM31 123C27.9351 125.963 27.1658 128.772 27 133C28.4467 137.492 29.6993 140.788 34 143C37.9073 144.216 39.752 144.08 43.6875 142.812C48.0243 140.439 49.4214 138.86 50.875 134.187C51.0374 130.046 49.9785 127.616 48 124C42.7976 118.618 37.1239 119.649 31 123ZM109 123C105.935 125.963 105.166 128.772 105 133C106.447 137.492 107.699 140.788 112 143C115.907 144.216 117.752 144.08 121.688 142.812C126.024 140.439 127.421 138.86 128.875 134.187C129.037 130.046 127.979 127.616 126 124C120.798 118.618 115.124 119.649 109 123Z" fill="#FF2D64"/>
<path d="M30 42C31.98 42 33.96 42 36 42C36.0251 42.6006 36.0501 43.2012 36.0759 43.8201C36.1916 46.5261 36.3144 49.2318 36.4375 51.9375C36.4768 52.883 36.5161 53.8286 36.5566 54.8027C36.6195 56.1514 36.6195 56.1514 36.6836 57.5273C36.7203 58.36 36.7569 59.1927 36.7947 60.0505C36.7937 62.0034 36.7937 62.0034 38 63C38.1875 65.9375 38.1875 65.9375 38 69C36 71 36 71 33.6875 71.8125C30.7851 72.8896 30.7851 72.8896 28.5 75.625C26 78 26 78 23.1875 78.3125C22.4656 78.2094 21.7437 78.1063 21 78C20.625 75.875 20.625 75.875 21 73C22.3837 71.3686 23.8633 70.0099 25.4922 68.625C29.8728 63.9039 29.419 57.759 29.625 51.6875C29.6637 50.7562 29.7023 49.8248 29.7422 48.8652C29.8361 46.577 29.9217 44.2888 30 42Z" fill="#FF2D64"/>
</g>
<defs>
<clipPath id="clip0_11680_20">
<rect width="150" height="150" fill="white"/>
</clipPath>
</defs>
</svg>
