<svg width="150" height="150" viewBox="0 0 150 150" fill="none" xmlns="http://www.w3.org/2000/svg">
<g clip-path="url(#clip0_11680_12)">
<path d="M10.3081 7.94036C11.3498 7.84198 12.3916 7.7436 13.4648 7.64224C14.5876 7.5695 15.7104 7.49675 16.8672 7.4218C18.6311 7.30452 18.6311 7.30452 20.4306 7.18488C24.2459 6.97787 28.0554 6.84667 31.875 6.74993C33.1621 6.71612 34.4493 6.68231 35.7754 6.64748C52.2386 6.44829 64.8553 7.88327 77.0845 19.5614C78.4273 20.9625 79.7537 22.3795 81.0625 23.8124C81.7034 24.5065 82.3443 25.2005 83.0046 25.9156C88.4784 32.0505 93.6678 37.9397 93.7461 46.5116C93.4197 49.1628 93.4197 49.1628 93 50.9999C93.9275 50.9685 94.855 50.9371 95.8106 50.9047C99.2848 50.8018 102.757 50.7269 106.232 50.6703C107.73 50.6403 109.228 50.5995 110.725 50.5473C124.745 50.0706 124.745 50.0706 129.574 53.4335C133.695 57.2959 137.045 61.8504 140.313 66.4374C141.222 67.6682 141.222 67.6682 142.15 68.9238C147.56 76.3799 150.466 82.5702 150.469 91.8202C150.476 92.6419 150.484 93.4636 150.492 94.3102C150.503 96.0363 150.506 97.7625 150.501 99.4887C150.5 102.125 150.542 104.759 150.586 107.394C150.591 109.078 150.594 110.762 150.594 112.445C150.61 113.229 150.627 114.012 150.643 114.819C150.593 118.842 150.167 120.781 147.701 124.015C144.275 126.533 142.156 126.407 138 126C137.918 126.701 137.835 127.402 137.75 128.125C136.436 133.163 134.057 136.163 130 139.375C124.979 141.967 119.484 141.619 114 141C108.805 139.3 106.077 136.484 103 132C102.67 130.02 102.34 128.04 102 126C87.15 126 72.3 126 57 126C56.67 127.65 56.34 129.3 56 131C53.3997 135.9 50.3567 139.31 45 141C38.5636 141.769 32.4083 141.957 27 138C23.0397 134.04 21.7105 131.478 21 126C19.903 126.058 18.806 126.116 17.6758 126.176C16.2214 126.223 14.767 126.268 13.3125 126.312C12.5913 126.354 11.8701 126.396 11.127 126.439C10.0683 126.464 10.0683 126.464 8.98831 126.488C8.34418 126.514 7.70006 126.541 7.03641 126.568C3.55442 125.597 2.20195 123.837 3.08156e-05 121C-0.745068 117.567 -0.683307 114.191 -0.646942 110.689C-0.655703 109.653 -0.664465 108.617 -0.673492 107.549C-0.695485 104.126 -0.680933 100.704 -0.664032 97.2812C-0.6674 94.9013 -0.672252 92.5215 -0.678528 90.1416C-0.685899 85.1549 -0.675185 80.1687 -0.651825 75.1821C-0.623338 68.7892 -0.63974 62.3975 -0.669687 56.0047C-0.687753 51.0908 -0.682005 46.1771 -0.669048 41.2631C-0.665712 38.906 -0.669808 36.5488 -0.681446 34.1917C-0.694142 30.8974 -0.674793 27.6047 -0.646942 24.3105C-0.657063 23.3358 -0.667184 22.3611 -0.677612 21.3568C-0.607125 16.8576 -0.472558 14.6586 2.20871 10.9217C5.15546 8.89291 6.78148 8.2604 10.3081 7.94036ZM6.00003 17.9999C5.55206 19.9412 5.55206 19.9412 5.61908 22.0989C5.61062 22.9317 5.60216 23.7645 5.59345 24.6225C5.59952 25.5328 5.60559 26.443 5.61185 27.3808C5.60659 28.342 5.60133 29.3032 5.59592 30.2936C5.58269 33.4771 5.59146 36.6601 5.60159 39.8437C5.59957 42.0518 5.59666 44.2599 5.5929 46.4681C5.58847 51.0984 5.59492 55.7285 5.60892 60.3588C5.62601 66.301 5.61617 72.2428 5.5982 78.185C5.58737 82.7454 5.5908 87.3057 5.59858 91.8661C5.60059 94.0574 5.59812 96.2487 5.59115 98.44C5.58355 101.5 5.59511 104.559 5.61185 107.619C5.60577 108.529 5.5997 109.44 5.59345 110.377C5.6019 111.21 5.61036 112.043 5.61908 112.901C5.62021 113.624 5.62134 114.348 5.62251 115.093C6.11549 117.583 6.99913 118.477 9.00003 120C11.972 120.363 11.972 120.363 15.1875 120.187C16.8176 120.147 16.8176 120.147 18.4805 120.105C19.3119 120.071 20.1434 120.036 21 120C21.2308 119.397 21.4615 118.793 21.6992 118.172C23.7143 113.234 25.2998 109.892 30 107C35.7882 105.071 43.3065 104.727 48.9375 107.375C52 110 52 110 57 120C66.9 120 76.8 120 87 120C87 95.2499 87 70.4999 87 44.9999C77.1 44.9999 67.2 44.9999 57 44.9999C57 35.0999 57 25.1999 57 14.9999C50.2186 14.9311 43.4385 14.8714 36.657 14.8351C34.3494 14.82 32.0417 14.7995 29.7342 14.7736C26.4204 14.7373 23.107 14.7202 19.793 14.707C18.7585 14.6915 17.7241 14.676 16.6583 14.66C15.6975 14.6598 14.7367 14.6596 13.7469 14.6593C12.4778 14.6494 12.4778 14.6494 11.1831 14.6392C8.44207 15.0921 7.71827 15.8528 6.00003 17.9999ZM63 20.9999C63 26.9399 63 32.8799 63 38.9999C68.94 38.9999 74.88 38.9999 81 38.9999C77.2699 34.4633 73.3295 30.2205 69.1875 26.0624C68.6954 25.5657 68.2032 25.069 67.6961 24.5573C65.6937 22.0866 65.6937 22.0866 63 20.9999ZM94.3389 58.1527C92.4443 60.7667 92.6393 62.6382 92.6595 65.8483C92.6597 67.0493 92.6599 68.2503 92.6601 69.4878C92.6756 70.7847 92.6911 72.0816 92.7071 73.4179C92.7127 74.7588 92.7169 76.0997 92.7199 77.4407C92.7314 80.9672 92.7608 84.4933 92.794 88.0196C92.8247 91.6191 92.8384 95.2187 92.8535 98.8183C92.8857 105.879 92.9369 112.939 93 120C95.97 120 98.94 120 102 120C102.231 119.397 102.462 118.793 102.699 118.172C104.714 113.234 106.3 109.892 111 107C116.788 105.071 124.306 104.727 129.938 107.375C134.276 110.289 136.065 115.327 138 120C140.473 119.655 140.473 119.655 143 119C144.305 116.39 144.113 114.473 144.098 111.555C144.094 110.478 144.091 109.402 144.088 108.293C144.08 107.165 144.071 106.037 144.063 104.875C144.058 103.739 144.054 102.604 144.049 101.434C144.037 98.6223 144.021 95.8111 144 92.9999C143.082 92.9906 142.164 92.9812 141.218 92.9716C137.803 92.9275 134.389 92.8659 130.975 92.7924C129.499 92.7642 128.023 92.743 126.546 92.7289C124.421 92.7075 122.297 92.6608 120.172 92.6093C118.894 92.5884 117.616 92.5674 116.3 92.5458C113 91.9999 113 91.9999 110.59 90.4101C108.422 87.1238 108.455 84.7496 108.391 80.828C108.366 79.8044 108.366 79.8044 108.341 78.7601C108.292 76.59 108.271 74.4205 108.25 72.2499C108.222 70.7746 108.192 69.2994 108.16 67.8241C108.086 64.2162 108.037 60.6084 108 56.9999C106.063 56.9188 104.125 56.8607 102.188 56.8124C101.109 56.7776 100.03 56.7428 98.918 56.707C96.0663 56.7549 96.0663 56.7549 94.3389 58.1527ZM114 56.9999C113.913 61.4373 113.86 65.8745 113.813 70.3124C113.787 71.5751 113.762 72.8377 113.736 74.1386C113.727 75.3471 113.717 76.5556 113.707 77.8007C113.691 78.9161 113.676 80.0316 113.659 81.1808C113.797 83.959 113.797 83.959 115.145 85.8691C117.814 87.496 119.87 87.3384 122.98 87.2929C124.726 87.2784 124.726 87.2784 126.506 87.2636C127.721 87.2385 128.936 87.2133 130.188 87.1874C132.027 87.1671 132.027 87.1671 133.904 87.1464C136.937 87.111 139.968 87.0616 143 86.9999C142.45 83.3461 141.576 80.9598 139.418 77.9687C138.898 77.2404 138.378 76.512 137.842 75.7616C137.296 75.0153 136.75 74.2689 136.188 73.4999C135.653 72.7536 135.119 72.0072 134.568 71.2382C128.975 62.8015 128.975 62.8015 121 56.9999C118.667 56.9527 116.333 56.948 114 56.9999ZM31 114C27.9351 116.963 27.1658 119.772 27 124C28.4467 128.492 29.6994 131.788 34 134C37.9073 135.216 39.752 135.08 43.6875 133.812C48.0243 131.439 49.4214 129.86 50.875 125.187C51.0374 121.046 49.9785 118.616 48 115C42.7976 109.618 37.1239 110.649 31 114ZM112 114C108.935 116.963 108.166 119.772 108 124C109.447 128.492 110.699 131.788 115 134C118.907 135.216 120.752 135.08 124.688 133.812C129.024 131.439 130.421 129.86 131.875 125.187C132.037 121.046 130.979 118.616 129 115C123.798 109.618 118.124 110.649 112 114Z" fill="#FF2D64"/>
<path d="M21 87C37.83 87 54.66 87 72 87C72 88.98 72 90.96 72 93C55.17 93 38.34 93 21 93C21 91.02 21 89.04 21 87Z" fill="#FF2E65"/>
<path d="M21 57C37.83 57 54.66 57 72 57C72 58.98 72 60.96 72 63C55.17 63 38.34 63 21 63C21 61.02 21 59.04 21 57Z" fill="#FF2E65"/>
<path d="M21 72C32.88 72 44.76 72 57 72C57 73.98 57 75.96 57 78C45.12 78 33.24 78 21 78C21 76.02 21 74.04 21 72Z" fill="#FF2E65"/>
</g>
<defs>
<clipPath id="clip0_11680_12">
<rect width="150" height="150" fill="white"/>
</clipPath>
</defs>
</svg>
