<svg width="150" height="150" viewBox="0 0 150 150" fill="none" xmlns="http://www.w3.org/2000/svg">
<path d="M115.812 26.1875C129.376 37.9733 136.909 53.844 138.285 71.6992C138.704 89.4392 133.216 105.011 121.5 118.469C108.821 131.306 93.1129 138.045 75.1875 138.313C58.0691 138.198 42.4183 131.898 30 120C17.7033 107.166 11.4267 90.8597 11.5801 73.1594C12.1998 56.5455 18.5684 41.5843 30.1445 29.5703C54.7029 7.4644 89.5253 5.98634 115.812 26.1875Z" fill="#1892E8"/>
<path d="M102 39.0001C102 43.6201 102 48.2401 102 53.0001C99.9375 53.0619 97.875 53.1238 95.75 53.1876C91.7083 53.3088 89.7279 53.3775 86.625 56.0313C84.5166 59.8831 84.3364 62.9923 84.25 67.3126C84.1675 69.8494 84.085 72.3863 84 75.0001C89.94 75.0001 95.88 75.0001 102 75.0001C101.34 80.2801 100.68 85.5601 100 91.0001C94.39 91.0001 88.78 91.0001 83 91.0001C83 106.51 83 122.02 83 138C77.72 138 72.44 138 67 138C66 137 66 137 65.8797 135.133C65.8831 133.911 65.8831 133.911 65.8865 132.664C65.8866 131.743 65.8866 130.822 65.8867 129.873C65.8919 128.872 65.897 127.871 65.9023 126.84C65.9038 125.82 65.9052 124.801 65.9066 123.75C65.9122 120.479 65.9248 117.208 65.9375 113.938C65.9425 111.726 65.9471 109.514 65.9512 107.303C65.9622 101.869 65.9795 96.4343 66 91.0001C60.72 91.0001 55.44 91.0001 50 91.0001C50 85.7201 50 80.4401 50 75.0001C55.28 75.0001 60.56 75.0001 66 75.0001C65.9536 73.5769 65.9072 72.1538 65.8594 70.6876C65.8218 68.7918 65.7854 66.8959 65.75 65.0001C65.7165 64.0655 65.683 63.1309 65.6484 62.168C65.5376 54.2417 67.1757 48.9558 72.6875 43.1876C81.1667 37.5881 92.1941 35.7315 102 39.0001Z" fill="#FBFDFE"/>
</svg>
