<svg aria-hidden="true" style="position: absolute; width: 0; height: 0; overflow: hidden;" version="1.1" xmlns="http://www.w3.org/2000/svg" xmlns:xlink="http://www.w3.org/1999/xlink">
<defs>
<symbol id="icon-left-arrow" viewBox="0 0 21 32">
<path d="M2.277 15.786l12.991-13.058c0.67-0.603 1.674-0.603 2.277 0l1.54 1.54c0.603 0.603 0.603 1.607 0 2.277l-10.313 10.313 10.313 10.379c0.603 0.67 0.603 1.674 0 2.277l-1.54 1.54c-0.603 0.603-1.607 0.603-2.277 0l-12.991-13.058c-0.603-0.603-0.603-1.607 0-2.21z"></path>
</symbol>
<symbol id="icon-right-arrow" viewBox="0 0 21 32">
<path d="M18.295 16.214l-12.991 13.058c-0.67 0.603-1.674 0.603-2.277 0l-1.54-1.54c-0.603-0.603-0.603-1.607 0-2.277l10.313-10.312-10.313-10.379c-0.603-0.67-0.603-1.674 0-2.277l1.54-1.54c0.603-0.603 1.607-0.603 2.277 0l12.991 13.058c0.603 0.603 0.603 1.607 0 2.21z"></path>
</symbol>

</defs>
</svg>
