<svg aria-hidden="true" style="position: absolute; width: 0; height: 0; overflow: hidden;" version="1.1" xmlns="http://www.w3.org/2000/svg" xmlns:xlink="http://www.w3.org/1999/xlink">
<defs>
<symbol id="icon-left-arrow" viewBox="0 0 21 32">
<path d="M2.277 15.786l12.991-13.058c0.67-0.603 1.674-0.603 2.277 0l1.54 1.54c0.603 0.603 0.603 1.607 0 2.277l-10.313 10.313 10.313 10.379c0.603 0.67 0.603 1.674 0 2.277l-1.54 1.54c-0.603 0.603-1.607 0.603-2.277 0l-12.991-13.058c-0.603-0.603-0.603-1.607 0-2.21z"></path>
</symbol>
<symbol id="icon-right-arrow" viewBox="0 0 21 32">
<path d="M18.295 16.214l-12.991 13.058c-0.67 0.603-1.674 0.603-2.277 0l-1.54-1.54c-0.603-0.603-0.603-1.607 0-2.277l10.313-10.312-10.313-10.379c-0.603-0.67-0.603-1.674 0-2.277l1.54-1.54c0.603-0.603 1.607-0.603 2.277 0l12.991 13.058c0.603 0.603 0.603 1.607 0 2.21z"></path>
</symbol>
<symbol id="icon-facebook" viewBox="0 0 32 32">
<path fill="#1892e8" style="fill: var(--color1, #1892e8)" d="M24.707 5.587c2.894 2.514 4.501 5.9 4.794 9.709 0.089 3.785-1.081 7.107-3.581 9.978-2.705 2.739-6.056 4.176-9.88 4.233-3.652-0.025-6.991-1.369-9.64-3.907-2.623-2.738-3.962-6.217-3.93-9.993 0.132-3.544 1.491-6.736 3.96-9.299 5.239-4.716 12.668-5.031 18.276-0.722z"></path>
<path fill="#fbfdfe" style="fill: var(--color2, #fbfdfe)" d="M21.76 8.32c0 0.986 0 1.971 0 2.987-0.44 0.013-0.88 0.026-1.333 0.040-0.862 0.026-1.285 0.040-1.947 0.607-0.45 0.822-0.488 1.485-0.507 2.407-0.018 0.541-0.035 1.082-0.053 1.64 1.267 0 2.534 0 3.84 0-0.141 1.126-0.282 2.253-0.427 3.413-1.197 0-2.394 0-3.627 0 0 3.309 0 6.618 0 10.027-1.126 0-2.253 0-3.413 0-0.213-0.213-0.213-0.213-0.239-0.612 0.001-0.261 0.001-0.261 0.001-0.527 0-0.196 0-0.393 0-0.595 0.001-0.214 0.002-0.427 0.003-0.647 0-0.218 0.001-0.435 0.001-0.659 0.001-0.698 0.004-1.396 0.007-2.093 0.001-0.472 0.002-0.944 0.003-1.415 0.002-1.159 0.006-2.319 0.010-3.478-1.126 0-2.253 0-3.413 0 0-1.126 0-2.253 0-3.413 1.126 0 2.253 0 3.413 0-0.010-0.304-0.020-0.607-0.030-0.92-0.008-0.404-0.016-0.809-0.023-1.213-0.007-0.199-0.014-0.399-0.022-0.604-0.024-1.691 0.326-2.819 1.502-4.049 1.809-1.195 4.161-1.591 6.253-0.893z"></path>
</symbol>
<symbol id="icon-messanger" viewBox="0 0 32 32">
<path fill="#448aff" style="fill: var(--color3, #448aff)" d="M23.573 4.843c0.48 0.361 0.935 0.735 1.387 1.131 0.134 0.116 0.267 0.232 0.405 0.352 2.195 2.041 3.28 4.897 3.468 7.85 0.107 3.117-1.043 6.115-3.033 8.505-1.822 1.881-4.065 3.139-6.6 3.773-0.235 0.062-0.235 0.062-0.474 0.125-0.899 0.134-1.792 0.119-2.699 0.115-0.279 0.001-0.279 0.001-0.564 0.003-0.83-0.001-1.538-0.015-2.349-0.215-1.155-0.043-1.868 0.571-2.793 1.212-0.353 0.238-0.707 0.475-1.062 0.711-0.232 0.16-0.232 0.16-0.469 0.322-0.496 0.303-0.991 0.512-1.536 0.714 0.002-0.171 0.005-0.342 0.008-0.518 0.006-0.783-0-1.566-0.008-2.349 0.004-0.269 0.008-0.538 0.013-0.814-0.022-1.384-0.073-2.297-1.034-3.34-0.154-0.148-0.308-0.295-0.467-0.448-0.633-0.622-0.989-1.321-1.365-2.117-0.071-0.148-0.143-0.296-0.216-0.449-1.3-2.789-1.362-5.832-0.344-8.738 1.338-3.448 3.694-5.724 7.040-7.253 0.775-0.277 1.538-0.487 2.347-0.64 0.307-0.058 0.307-0.058 0.62-0.118 3.48-0.505 6.821 0.212 9.727 2.187z"></path>
<path fill="#f9fbff" style="fill: var(--color4, #f9fbff)" d="M14.507 11.307c1.208 1.002 2.315 2.079 3.413 3.2 0.137-0.075 0.274-0.15 0.416-0.227 0.408-0.223 0.817-0.446 1.226-0.668 0.489-0.267 0.977-0.537 1.463-0.81 0.249-0.138 0.499-0.277 0.748-0.415 0.231-0.13 0.463-0.259 0.701-0.393 0.28-0.129 0.28-0.129 0.566-0.261 0.211 0.106 0.211 0.106 0.427 0.213-1.132 1.263-2.269 2.521-3.421 3.765-0.701 0.76-1.368 1.542-2.011 2.351-0.328 0.283-0.328 0.283-1.181 0.283-0.351-0.255-0.351-0.255-0.69-0.607-0.122-0.125-0.245-0.25-0.371-0.379-0.125-0.132-0.25-0.265-0.379-0.401-0.128-0.132-0.257-0.265-0.389-0.401-0.317-0.327-0.631-0.656-0.944-0.986-0.73 0.278-1.403 0.596-2.082 0.982-0.186 0.105-0.372 0.209-0.564 0.317-0.389 0.22-0.778 0.441-1.167 0.662-0.278 0.156-0.278 0.156-0.563 0.315-0.169 0.096-0.337 0.191-0.511 0.29-0.447 0.209-0.447 0.209-1.087 0.209 0.159-0.155 0.159-0.155 0.321-0.313 0.85-0.839 1.661-1.693 2.439-2.599 0.687-0.782 1.398-1.54 2.109-2.3 0.546-0.587 1.067-1.173 1.531-1.828z"></path>
</symbol>
<symbol id="icon-skype" viewBox="0 0 32 32">
<path fill="#31b9f6" style="fill: var(--color5, #31b9f6)" d="M13.747 3.56c0.757 0.387 1.396 0.299 2.234 0.278 3.449 0.009 6.292 1.334 8.813 3.633 1.972 2.040 3.132 4.778 3.287 7.595 0.024 0.407 0.024 0.407 0.048 0.822 0.032 0.752 0.032 0.752 0.004 1.317 0.035 0.632 0.243 1.016 0.548 1.568 0.925 1.686 1.010 3.495 0.52 5.347-0.646 1.923-1.857 3.546-3.657 4.513-2.11 0.98-4.091 1.072-6.308 0.352-0.462-0.185-0.462-0.185-0.982-0.545-0.756-0.388-1.396-0.299-2.234-0.278-3.449-0.009-6.292-1.334-8.813-3.633-2.003-2.072-3.162-4.838-3.273-7.702-0.059-1.339-0.149-2.487-0.733-3.707-0.855-1.886-0.882-3.805-0.222-5.771 0.902-2.126 2.35-3.555 4.478-4.417 1.997-0.727 4.512-0.604 6.291 0.627zM11.093 11.093c-0.552 0.944-0.778 1.71-0.569 2.777 0.289 0.858 0.681 1.39 1.422 1.916 1.042 0.447 2.111 0.76 3.2 1.067 0.52 0.154 1.040 0.31 1.56 0.467 0.224 0.065 0.447 0.129 0.677 0.196 0.536 0.191 0.536 0.191 0.962 0.617 0.119 1.116 0.119 1.116-0.28 1.667-0.726 0.511-1.408 0.501-2.267 0.507-0.333 0.005-0.333 0.005-0.672 0.009-0.634-0.050-0.957-0.114-1.474-0.476-0.356-0.454-0.356-0.454-0.68-0.973-0.365-0.613-0.365-0.613-0.813-1.16-0.881-0.080-0.881-0.080-1.68 0.24-0.362 0.603-0.335 0.987-0.24 1.68 0.806 1.492 1.849 2.187 3.413 2.773 2.202 0.521 4.278 0.255 6.267-0.813 0.838-0.698 1.324-1.237 1.517-2.338 0.072-1.122 0.024-1.997-0.664-2.915-1.528-1.488-3.921-1.875-5.942-2.302-0.577-0.177-0.935-0.417-1.392-0.805 0.067-0.507 0.067-0.507 0.213-1.067 0.736-0.491 1.039-0.484 1.907-0.48 0.222-0.001 0.444-0.002 0.673-0.003 0.622 0.057 0.961 0.134 1.474 0.483 0.279 0.361 0.279 0.361 0.52 0.76 0.355 0.518 0.505 0.713 1.080 1 0.798-0.080 1.096-0.53 1.6-1.12-0.208-1.158-0.533-1.774-1.47-2.498-2.504-1.53-6.289-1.413-8.343 0.792z"></path>
</symbol>
<symbol id="icon-telegram" viewBox="0 0 32 32">
<path fill="#29b6f6" style="fill: var(--color6, #29b6f6)" d="M24.707 5.587c2.905 2.524 4.465 5.884 4.802 9.694 0.117 3.73-1.149 7.16-3.581 9.977-2.687 2.757-6.067 4.191-9.887 4.248-3.652-0.024-6.991-1.368-9.64-3.907-2.622-2.736-3.966-6.218-3.929-9.993 0.136-3.574 1.535-6.767 4.015-9.354 5.244-4.669 12.639-4.956 18.221-0.667z"></path>
<path fill="#fbfdfe" style="fill: var(--color2, #fbfdfe)" d="M22.613 9.387c0.063 1.333-0.177 2.539-0.453 3.84-0.098 0.471-0.195 0.943-0.292 1.414-0.078 0.377-0.078 0.377-0.157 0.762-0.176 0.871-0.341 1.743-0.504 2.617-0.057 0.303-0.114 0.607-0.171 0.91-0.084 0.447-0.168 0.895-0.25 1.343-0.077 0.418-0.155 0.836-0.234 1.254-0.045 0.241-0.089 0.482-0.135 0.73-0.149 0.571-0.149 0.571-0.576 0.998-0.456 0.107-0.456 0.107-1.067 0-0.599-0.375-1.129-0.823-1.667-1.28-0.222-0.183-0.222-0.183-0.448-0.37-0.364-0.301-0.725-0.604-1.085-0.91-0.859 0.405-1.343 0.922-1.967 1.629-0.38 0.291-0.38 0.291-0.81 0.268-0.424-0.191-0.424-0.191-0.619-0.649-0.044-0.198-0.088-0.395-0.133-0.599-0.477-2.325-0.477-2.325-1.804-4.172-0.792-0.349-1.571-0.488-2.425-0.6-0.775-0.144-0.775-0.144-1.097-0.588-0.035-0.135-0.069-0.27-0.105-0.409 0.679-0.563 1.355-0.876 2.174-1.199 0.195-0.078 0.195-0.078 0.395-0.157 0.428-0.17 0.857-0.338 1.286-0.506 0.299-0.118 0.597-0.236 0.896-0.354 0.785-0.31 1.57-0.619 2.355-0.928 0.641-0.252 1.282-0.506 1.923-0.759 1.324-0.523 2.648-1.046 3.973-1.567 0.235-0.092 0.47-0.185 0.711-0.28 0.814-0.313 1.418-0.461 2.288-0.437z"></path>
<path fill="#cfd8dc" style="fill: var(--color7, #cfd8dc)" d="M19.413 11.947c0.211 0.070 0.422 0.141 0.64 0.213-0.296 0.685-0.623 1.076-1.196 1.55-0.932 0.789-1.823 1.613-2.711 2.45-0.15 0.141-0.299 0.281-0.454 0.426-0.78 0.726-0.78 0.726-1.526 1.485-0.3 0.276-0.3 0.276-0.726 0.276 0.238 0.231 0.238 0.231 0.48 0.467 0.522 0.533 0.979 1.081 1.44 1.667-0.334 0.363-0.673 0.722-1.013 1.080-0.188 0.201-0.376 0.401-0.57 0.608-0.55 0.446-0.55 0.446-0.982 0.438-0.421-0.206-0.421-0.206-0.674-0.7-0.067-0.213-0.134-0.427-0.203-0.647-0.074-0.23-0.149-0.461-0.225-0.698-0.074-0.242-0.149-0.485-0.225-0.735-0.078-0.243-0.155-0.486-0.235-0.737-0.191-0.602-0.38-1.205-0.565-1.81 0.166-0.101 0.333-0.202 0.504-0.306 0.632-0.383 1.264-0.767 1.895-1.15 0.271-0.164 0.541-0.329 0.812-0.493 0.263-0.16 0.526-0.319 0.789-0.479s0.527-0.319 0.79-0.478c0.664-0.402 1.323-0.809 1.976-1.229 0.126-0.080 0.253-0.161 0.383-0.244 0.347-0.222 0.693-0.446 1.039-0.67 0.184-0.094 0.368-0.188 0.558-0.285z"></path>
<path fill="#a9bfca" style="fill: var(--color8, #a9bfca)" d="M13.227 18.773c0.837 0.389 1.437 0.892 2.133 1.493-0.423 0.501-0.85 0.998-1.28 1.493-0.15 0.176-0.299 0.352-0.453 0.533-0.132 0.106-0.264 0.211-0.4 0.32-0.452-0.087-0.452-0.087-0.853-0.213 0.062-0.242 0.123-0.484 0.187-0.733 0.241-0.96 0.456-1.926 0.667-2.893z"></path>
</symbol>
<symbol id="icon-viber" viewBox="0 0 32 32">
<path fill="#fdfcfe" style="fill: var(--color9, #fdfcfe)" d="M26.256 4.952c2.237 2.073 3.041 4.948 3.228 7.903 0.020 0.715 0.026 1.429 0.022 2.145-0.001 0.253-0.002 0.505-0.004 0.765-0.044 3.156-0.455 6.29-2.65 8.741-2.205 1.991-5.481 2.836-8.393 2.815-0.388 0.003-0.388 0.003-0.784 0.007-0.539 0.003-1.079 0.002-1.618-0.005-1.706 0.007-1.706 0.007-3.086 0.903-0.209 0.255-0.409 0.518-0.599 0.787-1.12 1.454-1.12 1.454-2.107 1.693-0.22 0.004-0.44 0.009-0.667 0.013-0.433-0.65-0.479-0.768-0.468-1.496 0.001-0.162 0.003-0.323 0.004-0.49 0.004-0.167 0.007-0.335 0.011-0.508 0.002-0.17 0.004-0.34 0.006-0.515 0.005-0.419 0.013-0.839 0.021-1.258-0.285-0.036-0.285-0.036-0.575-0.073-1.924-0.382-3.456-1.761-4.545-3.34-1.371-2.522-1.566-5.177-1.547-8-0.002-0.242-0.003-0.483-0.005-0.732 0.007-3.046 0.449-6.153 2.439-8.588 4.65-4.571 16.152-4.568 21.315-0.767z"></path>
<path fill="#7f58c2" style="fill: var(--color10, #7f58c2)" d="M26.256 4.952c2.237 2.073 3.041 4.948 3.228 7.903 0.020 0.715 0.026 1.429 0.022 2.145-0.001 0.253-0.002 0.505-0.004 0.765-0.044 3.156-0.455 6.29-2.65 8.741-2.205 1.991-5.481 2.836-8.393 2.815-0.388 0.003-0.388 0.003-0.784 0.007-0.539 0.003-1.079 0.002-1.618-0.005-1.706 0.007-1.706 0.007-3.086 0.903-0.209 0.255-0.409 0.518-0.599 0.787-1.12 1.454-1.12 1.454-2.107 1.693-0.22 0.004-0.44 0.009-0.667 0.013-0.433-0.65-0.479-0.768-0.468-1.496 0.001-0.162 0.003-0.323 0.004-0.49 0.004-0.167 0.007-0.335 0.011-0.508 0.002-0.17 0.004-0.34 0.006-0.515 0.005-0.419 0.013-0.839 0.021-1.258-0.285-0.036-0.285-0.036-0.575-0.073-1.924-0.382-3.456-1.761-4.545-3.34-1.371-2.522-1.566-5.177-1.547-8-0.002-0.242-0.003-0.483-0.005-0.732 0.007-3.046 0.449-6.153 2.439-8.588 4.65-4.571 16.152-4.568 21.315-0.767zM6.286 7.492c-1.537 1.976-1.668 4.183-1.66 6.605 0.001 0.431-0.004 0.862-0.010 1.293-0.001 2.635 0.142 5.402 1.997 7.437 1.116 1.049 2.478 1.92 4.053 1.92 0 1.267 0 2.534 0 3.84 0.735-0.588 1.266-1.039 1.853-1.733 1.059-1.245 1.059-1.245 1.621-1.311 0.301-0.004 0.301-0.004 0.609-0.008 0.223-0.005 0.446-0.010 0.676-0.015 0.238-0.004 0.476-0.008 0.722-0.013 3.331-0.101 6.996-0.263 9.453-2.84 1.719-2.189 1.745-4.669 1.747-7.333 0.003-0.268 0.005-0.536 0.008-0.812 0.004-2.641-0.067-5.22-1.923-7.262-2.917-2.743-7.087-2.704-10.857-2.627-3.047 0.109-6.119 0.501-8.288 2.859z"></path>
<path fill="#805ac3" style="fill: var(--color11, #805ac3)" d="M11.307 8.107c0.538 0.502 0.904 1.078 1.28 1.707 0.132 0.22 0.264 0.44 0.4 0.667 0.278 0.711 0.368 1.138 0.24 1.893-0.18 0.172-0.361 0.343-0.547 0.52-0.594 0.507-0.594 0.507-0.56 1.253 0.546 1.695 1.825 2.946 3.24 3.987 0.776 0.259 1.318 0.298 2.133 0.213 0.172-0.185 0.343-0.37 0.52-0.56 0.18-0.167 0.361-0.334 0.547-0.507 1.551 0.080 3.003 1.013 4.053 2.133 0.102 0.681 0.087 1.092-0.203 1.717-0.755 0.992-1.178 1.394-2.437 1.603-2.994-0.095-6.266-3.11-8.214-5.14-1.641-1.91-3.963-4.706-3.781-7.344 0.24-0.813 0.779-1.381 1.408-1.929 0.699-0.35 1.147-0.329 1.92-0.213z"></path>
<path fill="#835ec4" style="fill: var(--color12, #835ec4)" d="M15.787 7.253c2.303 0.11 4.033 0.817 5.702 2.431 1.495 1.714 1.912 3.289 1.81 5.539-0.015 0.186-0.030 0.372-0.045 0.563-0.528 0.106-0.528 0.106-1.067 0.213-0.262-0.525-0.243-0.908-0.267-1.493-0.151-1.727-0.771-3.062-2.040-4.253-1.278-1.021-2.497-1.283-4.093-1.507-0.141-0.141-0.282-0.282-0.427-0.427 0.114-0.754 0.114-0.754 0.427-1.067z"></path>
<path fill="#835ec4" style="fill: var(--color12, #835ec4)" d="M15.787 9.387c1.489-0.135 2.421 0.18 3.627 1.067 1.145 1.048 1.858 2.227 1.987 3.8-0.067 0.68-0.067 0.68-0.493 1.107-0.453-0.080-0.453-0.080-0.853-0.213-0.031-0.186-0.031-0.186-0.063-0.375-0.243-1.271-0.534-2.29-1.599-3.125-0.906-0.603-1.76-0.951-2.817-1.193 0.070-0.352 0.141-0.704 0.213-1.067z"></path>
<path fill="#845ec4" style="fill: var(--color13, #845ec4)" d="M16.213 11.52c1.124 0.088 1.756 0.262 2.56 1.067 0.433 0.59 0.432 0.804 0.347 1.547-0.044 0.194-0.088 0.387-0.133 0.587-0.373-0.027-0.373-0.027-0.853-0.213-0.284-0.427-0.569-0.853-0.853-1.28-0.41-0.332-0.824-0.584-1.28-0.853 0.070-0.282 0.141-0.563 0.213-0.853z"></path>
</symbol>
<symbol id="icon-wk" viewBox="0 0 32 32">
<path fill="#1976d2" style="fill: var(--color14, #1976d2)" d="M24.707 5.587c2.905 2.524 4.465 5.884 4.802 9.694 0.117 3.73-1.149 7.16-3.581 9.977-2.687 2.757-6.067 4.191-9.887 4.248-3.652-0.024-6.991-1.368-9.64-3.907-2.622-2.736-3.966-6.218-3.929-9.993 0.136-3.574 1.535-6.767 4.015-9.354 5.244-4.669 12.639-4.956 18.221-0.667z"></path>
<path fill="#f9fbfd" style="fill: var(--color15, #f9fbfd)" d="M8.107 11.307c0.413-0.023 0.827-0.040 1.24-0.053 0.345-0.015 0.345-0.015 0.697-0.030 0.623 0.083 0.623 0.083 0.993 0.429 0.32 0.604 0.55 1.209 0.776 1.854 0.656 1.849 0.656 1.849 2.053 3.133-0.030-0.649-0.061-1.298-0.093-1.947-0.008-0.183-0.017-0.365-0.025-0.553-0.009-0.179-0.018-0.357-0.027-0.542-0.008-0.163-0.016-0.326-0.024-0.494-0.051-0.603-0.158-1.2-0.257-1.797 1.267 0 2.534 0 3.84 0 0.070 1.478 0.141 2.957 0.213 4.48 1.032-0.096 1.032-0.096 1.419-0.606 0.15-0.251 0.15-0.251 0.304-0.507 0.167-0.272 0.167-0.272 0.337-0.549 0.112-0.191 0.224-0.381 0.34-0.578 0.228-0.376 0.455-0.751 0.683-1.127 0.099-0.167 0.199-0.335 0.301-0.507 0.242-0.393 0.242-0.393 0.456-0.606 0.431-0.015 0.862-0.018 1.293-0.013 0.236 0.002 0.471 0.004 0.714 0.006 0.182 0.002 0.365 0.005 0.553 0.008 0.194 1.352-0.468 2.154-1.187 3.227-0.225 0.337-0.448 0.675-0.668 1.015-0.099 0.148-0.199 0.296-0.301 0.449-0.231 0.42-0.231 0.42-0.139 0.878 0.233 0.585 0.599 1.003 1.001 1.485 1.353 1.633 1.353 1.633 1.293 2.973-0.975 0.181-1.804 0.231-2.773 0-0.622-0.489-1.075-1.101-1.521-1.749-0.679-0.968-1.149-1.235-2.319-1.451 0 0.986 0 1.971 0 2.987-0.754 0.377-1.523 0.322-2.347 0.213-3.051-1.048-4.704-3.498-6.118-6.242-0.598-1.32-0.829-2.339-0.708-3.785z"></path>
</symbol>
</defs>
</svg>
