<svg width="150" height="150" viewBox="0 0 150 150" fill="none" xmlns="http://www.w3.org/2000/svg">
<path d="M110.5 22.6992C112.748 24.3893 114.885 26.1463 117 28C117.627 28.5439 118.253 29.0879 118.898 29.6484C129.186 39.217 134.272 52.6038 135.156 66.4453C135.656 81.056 130.266 95.1077 120.938 106.312C112.399 115.127 101.884 121.025 90.0001 124C88.8998 124.29 88.8998 124.29 87.7774 124.586C83.5632 125.214 79.3794 125.144 75.1251 125.125C73.816 125.131 73.816 125.131 72.4805 125.137C68.5886 125.131 65.2711 125.067 61.4688 124.129C56.0527 123.928 52.7148 126.805 48.3751 129.812C46.7186 130.927 45.0598 132.037 43.3985 133.144C42.3106 133.892 42.3106 133.892 41.2007 134.655C38.8745 136.077 36.5534 137.057 34.0001 138C34.0117 137.199 34.0233 136.398 34.0352 135.572C34.0649 131.901 34.033 128.233 34.0001 124.562C34.0194 123.302 34.0387 122.042 34.0587 120.744C33.957 114.256 33.7162 109.977 29.211 105.086C28.4888 104.393 27.7666 103.701 27.0225 102.988C24.0535 100.07 22.3858 96.7937 20.6251 93.0625C20.2905 92.3679 19.956 91.6733 19.6114 90.9577C13.5159 77.8863 13.2256 63.6193 18.0001 50C24.2734 33.8396 35.3165 23.1665 51.0001 16C54.6325 14.6997 58.2115 13.7162 62.0001 13C63.4387 12.7273 63.4387 12.7273 64.9063 12.4492C81.2183 10.0806 96.88 13.4418 110.5 22.6992Z" fill="#448AFF"/>
<path d="M68 53C73.6613 57.6977 78.8523 62.7472 84 68C84.6432 67.6481 85.2865 67.2962 85.9492 66.9336C87.8631 65.8879 89.7786 64.8452 91.6953 63.8047C93.9899 62.5516 96.2751 61.2875 98.5547 60.0078C99.7239 59.3593 100.893 58.7108 102.062 58.0625C103.147 57.4554 104.231 56.8482 105.348 56.2227C106.661 55.6174 106.661 55.6174 108 55C108.99 55.495 108.99 55.495 110 56C104.695 61.9211 99.3632 67.8154 93.9634 73.6504C90.6776 77.2137 87.5505 80.8776 84.5352 84.6719C83 86 83 86 79 86C77.3525 84.8066 77.3525 84.8066 75.7656 83.1562C75.192 82.5697 74.6184 81.9832 74.0273 81.3789C73.4408 80.7589 72.8543 80.1388 72.25 79.5C71.648 78.88 71.046 78.2599 70.4258 77.6211C68.9414 76.0896 67.4695 74.5459 66 73C62.577 74.3014 59.4249 75.7932 56.2422 77.6016C55.3695 78.0914 54.4968 78.5813 53.5977 79.0859C51.7733 80.1172 49.9504 81.1511 48.1289 82.1875C46.8237 82.9184 46.8237 82.9184 45.4922 83.6641C44.7018 84.1122 43.9115 84.5603 43.0972 85.022C41 86 41 86 38 86C38.7444 85.273 38.7444 85.273 39.5039 84.5312C43.4884 80.5997 47.2913 76.5931 50.9375 72.3477C54.1564 68.6837 57.492 65.1276 60.8252 61.5676C63.3856 58.8171 65.8257 56.0679 68 53Z" fill="#F9FBFF"/>
</svg>
