<svg width="150" height="150" viewBox="0 0 150 150" fill="none" xmlns="http://www.w3.org/2000/svg">
<path d="M64.4375 16.6877C67.9837 18.504 70.9791 18.0874 74.9102 17.9924C91.079 18.0333 104.403 24.2475 116.219 35.0236C125.462 44.5863 130.899 57.4194 131.625 70.6252C131.737 72.5317 131.737 72.5317 131.852 74.4767C132 78.0002 132 78.0002 131.871 80.6486C132.034 83.6107 133.011 85.4132 134.438 88.0002C138.772 95.9028 139.173 104.385 136.875 113.063C133.846 122.079 128.17 129.687 119.731 134.219C109.842 138.811 100.553 139.245 90.1641 135.867C88 135 88 135 85.5625 133.313C82.0164 131.496 79.021 131.913 75.0899 132.008C58.9211 131.967 45.5976 125.753 33.7813 114.977C24.3926 105.263 18.9577 92.2973 18.4375 78.8752C18.1618 72.5969 17.7388 67.2194 15 61.5002C10.9941 52.661 10.8652 43.6645 13.961 34.4494C18.188 24.4857 24.978 17.7851 34.9493 13.7463C44.3119 10.3401 56.099 10.9148 64.4375 16.6877ZM52 52.0002C49.4114 56.426 48.3547 60.0168 49.3321 65.0197C50.6881 69.0402 52.5247 71.5342 56 74.0002C60.8835 76.0956 65.8969 77.5623 71 79.0002C73.4394 79.723 75.8771 80.4516 78.3125 81.1877C79.3606 81.4906 80.4086 81.7936 81.4883 82.1057C84 83.0002 84 83.0002 86 85.0002C86.5566 90.2316 86.5566 90.2316 84.6875 92.8127C81.2847 95.2073 78.0886 95.1628 74.0625 95.1877C72.5021 95.209 72.5021 95.209 70.9102 95.2307C67.9378 94.9953 66.4249 94.6965 64 93.0002C62.3321 90.8713 62.3321 90.8713 60.8125 88.4377C59.1014 85.5657 59.1014 85.5657 57 83.0002C52.8721 82.6244 52.8721 82.6244 49.125 84.1252C47.4287 86.9524 47.554 88.7507 48 92.0002C51.7778 98.996 56.6663 102.25 64 105C74.3223 107.442 84.0547 106.193 93.375 101.188C97.3035 97.914 99.5791 95.3911 100.488 90.2268C100.826 84.9671 100.601 80.8661 97.375 76.5627C90.2116 69.5873 78.9973 67.7722 69.5235 65.7736C66.8202 64.945 65.1412 63.8197 63 62.0002C63.3125 59.6252 63.3125 59.6252 64 57.0002C67.4509 54.6996 68.8718 54.7301 72.9375 54.7502C73.9778 54.745 75.0181 54.7399 76.0899 54.7346C79.0077 55.0009 80.5963 55.3642 83 57.0002C84.3086 58.6916 84.3086 58.6916 85.4375 60.5627C87.1014 62.9897 87.8069 63.9036 90.5 65.2502C94.2397 64.8762 95.6372 62.7681 98 60.0002C97.0231 54.5725 95.5015 51.6831 91.1094 48.2892C79.3723 41.1166 61.6293 41.6663 52 52.0002Z" fill="#31B9F6"/>
</svg>
