<svg width="150" height="150" viewBox="0 0 150 150" fill="none" xmlns="http://www.w3.org/2000/svg">
<g clip-path="url(#clip0_11680_6)">
<path d="M28.1367 11.3529C29.2608 11.3442 30.3849 11.3354 31.5431 11.3264C35.2583 11.3044 38.9723 11.3189 42.6875 11.3358C45.2691 11.3325 47.8508 11.3276 50.4324 11.3213C55.8428 11.314 61.2527 11.3242 66.6631 11.3481C72.9123 11.3753 79.1608 11.3664 85.41 11.3389C91.4292 11.3135 97.448 11.3162 103.467 11.3308C106.025 11.3342 108.583 11.3301 111.141 11.3184C114.716 11.3057 118.289 11.3251 121.863 11.3529C122.922 11.3428 123.981 11.3327 125.072 11.3223C129.84 11.3912 132.229 11.434 136.156 14.3174C138.592 17.8613 138.633 20.2856 138.688 24.5624C138.727 26.0027 138.771 27.4428 138.82 28.8827C138.843 29.5869 138.865 30.291 138.888 31.0165C139.04 33.7119 139.528 36.2937 140.062 38.9374C140.981 43.9637 141.219 48.8422 141.25 53.9374C141.259 54.6598 141.268 55.3823 141.278 56.1266C141.26 59.1102 141.176 61.5812 140.009 64.3505C138.842 67.4158 138.683 69.9016 138.586 73.1757C138.528 74.9111 138.528 74.9111 138.469 76.6815C138.438 77.8797 138.407 79.0779 138.375 80.3124C138.317 82.1387 138.317 82.1387 138.258 84.0019C138.164 87.0011 138.078 90.0003 138 92.9999C136.02 92.9999 134.04 92.9999 132 92.9999C132 86.0699 132 79.1399 132 71.9999C128.7 71.9999 125.4 71.9999 122 71.9999C120 71.3332 118 70.6666 116 69.9999C115.389 70.3067 114.778 70.6135 114.148 70.9296C111.596 72.2011 109.837 72.2672 107 72.2499C106.154 72.2551 105.309 72.2602 104.438 72.2655C101.851 71.9837 100.281 71.1912 98 69.9999C95.1458 70.348 92.7312 71.0895 90 71.9999C88.5241 72.1168 87.0429 72.1749 85.5625 72.1874C84.4197 72.2087 84.4197 72.2087 83.2539 72.2304C80.7589 71.9753 79.2077 71.1405 77 69.9999C74.1458 70.348 71.7312 71.0895 69 71.9999C63.1306 72.4343 58.5798 71.8598 53 69.9999C52.3967 70.3067 51.7934 70.6135 51.1719 70.9296C46.2064 73.3766 39.6687 72.546 34.5625 70.8749C33.7169 70.5862 32.8712 70.2974 32 69.9999C30.68 70.6599 29.36 71.3199 28 71.9999C24.7 71.9999 21.4 71.9999 18 71.9999C18.33 91.4699 18.66 110.94 19 131C37.48 131.33 55.96 131.66 75 132C75 133.98 75 135.96 75 138C67.5243 138.116 60.0487 138.205 52.5723 138.259C49.1004 138.285 45.629 138.32 42.1575 138.377C38.1635 138.442 34.1702 138.466 30.1758 138.488C28.9329 138.514 27.69 138.54 26.4095 138.566C25.2487 138.567 24.0878 138.567 22.8918 138.568C21.8726 138.579 20.8533 138.59 19.8032 138.601C15.8639 137.756 14.4064 136.185 12 133C11.3742 129.927 11.3742 129.927 11.3723 126.453C11.3591 125.148 11.3459 123.843 11.3324 122.499C11.3424 121.083 11.3527 119.666 11.3633 118.25C11.3552 116.789 11.3447 115.329 11.3318 113.868C11.3033 110.03 11.3027 106.192 11.3097 102.353C11.317 96.2097 11.2856 90.0667 11.2472 83.9236C11.2384 81.7826 11.2437 79.6419 11.2508 77.5009C11.2471 76.196 11.2433 74.8912 11.2395 73.5468C11.2413 72.4005 11.243 71.2542 11.2448 70.0732C10.9969 66.9606 10.2239 64.8437 9 61.9999C8.80824 59.2674 8.71562 56.6654 8.75 53.9374C8.75459 53.1808 8.75919 52.4242 8.76392 51.6447C8.84891 46.3395 9.45509 41.323 10.5078 36.1171C10.8989 33.6404 11.101 31.3756 11.1797 28.8827C11.2043 28.1674 11.2288 27.452 11.2542 26.715C11.3097 24.6659 11.3372 22.616 11.3633 20.5663C13.061 11.0569 20.0959 11.2761 28.1367 11.3529ZM18 20.9999C18 23.9699 18 26.9399 18 29.9999C55.62 29.9999 93.24 29.9999 132 29.9999C132 27.0299 132 24.0599 132 20.9999C128.746 17.7115 128.746 17.7115 124.559 17.619C123.651 17.6105 122.742 17.602 121.806 17.5933C120.812 17.5994 119.817 17.6055 118.793 17.6117C117.744 17.6065 116.695 17.6012 115.614 17.5958C112.138 17.5826 108.663 17.5913 105.188 17.6015C102.778 17.5994 100.368 17.5965 97.9578 17.5928C92.9037 17.5883 87.8499 17.5948 82.7959 17.6088C76.3089 17.6259 69.8223 17.616 63.3353 17.5981C58.358 17.5872 53.3808 17.5907 48.4035 17.5985C46.0112 17.6005 43.6189 17.598 41.2267 17.591C37.8866 17.5834 34.5471 17.595 31.207 17.6117C30.2127 17.6057 29.2183 17.5996 28.1938 17.5933C26.831 17.606 26.831 17.606 25.4407 17.619C24.6509 17.6201 23.8611 17.6212 23.0474 17.6224C20.55 17.8828 20.55 17.8828 18 20.9999ZM18 35.9999C17.4641 38.6643 16.9461 41.3303 16.4375 43.9999C16.286 44.7437 16.1346 45.4875 15.9785 46.2538C15.0005 51.4853 14.9173 55.7668 16 60.9999C18.3955 63.9824 18.3955 63.9824 21 65.9999C25.9691 64.8729 25.9691 64.8729 30 61.9999C30.2784 59.2806 30.2784 59.2806 30.1953 56.1171C30.1889 54.9505 30.1824 53.7839 30.1758 52.5819C30.159 51.3586 30.1423 50.1353 30.125 48.8749C30.116 47.6439 30.107 46.4128 30.0977 45.1444C30.074 42.0962 30.0382 39.048 30 35.9999C26.04 35.9999 22.08 35.9999 18 35.9999ZM36 35.9999C35.9193 40.2711 35.8596 44.5408 35.8125 48.8124C35.7874 50.0273 35.7622 51.2423 35.7363 52.494C35.7267 53.6574 35.717 54.8208 35.707 56.0194C35.6913 57.093 35.6756 58.1665 35.6594 59.2726C35.7719 62.0108 35.7719 62.0108 37.3699 63.8229C39.6095 65.44 41.247 65.8033 44 65.9999C47.0965 65.0637 48.7042 64.2957 51 61.9999C51.2784 59.2806 51.2784 59.2806 51.1953 56.1171C51.1889 54.9505 51.1824 53.7839 51.1758 52.5819C51.159 51.3586 51.1423 50.1353 51.125 48.8749C51.116 47.6439 51.107 46.4128 51.0977 45.1444C51.074 42.0962 51.0382 39.048 51 35.9999C46.05 35.9999 41.1 35.9999 36 35.9999ZM57 35.9999C56.9193 40.2711 56.8596 44.5408 56.8125 48.8124C56.7874 50.0273 56.7622 51.2423 56.7363 52.494C56.7267 53.6574 56.717 54.8208 56.707 56.0194C56.6913 57.093 56.6756 58.1665 56.6594 59.2726C56.7719 62.0108 56.7719 62.0108 58.3699 63.8229C60.6095 65.44 62.247 65.8033 65 65.9999C68.0965 65.0637 69.7042 64.2957 72 61.9999C72.2784 59.2806 72.2784 59.2806 72.1953 56.1171C72.1889 54.9505 72.1824 53.7839 72.1758 52.5819C72.159 51.3586 72.1423 50.1353 72.125 48.8749C72.116 47.6439 72.107 46.4128 72.0977 45.1444C72.074 42.0962 72.0382 39.048 72 35.9999C67.05 35.9999 62.1 35.9999 57 35.9999ZM78 35.9999C77.9193 40.2711 77.8596 44.5408 77.8125 48.8124C77.7874 50.0273 77.7622 51.2423 77.7363 52.494C77.7267 53.6574 77.717 54.8208 77.707 56.0194C77.6913 57.093 77.6756 58.1665 77.6594 59.2726C77.7719 62.0108 77.7719 62.0108 79.3699 63.8229C81.6095 65.44 83.247 65.8033 86 65.9999C89.0965 65.0637 90.7042 64.2957 93 61.9999C93.2784 59.2806 93.2784 59.2806 93.1953 56.1171C93.1889 54.9505 93.1824 53.7839 93.1758 52.5819C93.159 51.3586 93.1423 50.1353 93.125 48.8749C93.116 47.6439 93.107 46.4128 93.0977 45.1444C93.074 42.0962 93.0382 39.048 93 35.9999C88.05 35.9999 83.1 35.9999 78 35.9999ZM99 35.9999C98.9193 40.2711 98.8596 44.5408 98.8125 48.8124C98.7874 50.0273 98.7622 51.2423 98.7363 52.494C98.7267 53.6574 98.717 54.8208 98.707 56.0194C98.6913 57.093 98.6756 58.1665 98.6594 59.2726C98.7719 62.0108 98.7719 62.0108 100.37 63.8229C102.609 65.44 104.247 65.8033 107 65.9999C110.097 65.0637 111.704 64.2957 114 61.9999C114.278 59.2806 114.278 59.2806 114.195 56.1171C114.189 54.9505 114.182 53.7839 114.176 52.5819C114.159 51.3586 114.142 50.1353 114.125 48.8749C114.116 47.6439 114.107 46.4128 114.098 45.1444C114.074 42.0962 114.038 39.048 114 35.9999C109.05 35.9999 104.1 35.9999 99 35.9999ZM120 35.9999C119.919 40.2711 119.86 44.5408 119.812 48.8124C119.787 50.0273 119.762 51.2423 119.736 52.494C119.727 53.6574 119.717 54.8208 119.707 56.0194C119.691 57.093 119.676 58.1665 119.659 59.2726C119.771 62.0106 119.771 62.0106 121.37 63.819C123.637 65.4611 125.201 65.8666 128 65.9999C131.339 64.68 132.662 63.7206 134.195 60.453C135.232 56.0029 134.795 52.3001 134.188 47.8124C134.091 47.0061 133.995 46.1998 133.896 45.369C133.489 42.0756 133.054 39.1611 132 35.9999C128.04 35.9999 124.08 35.9999 120 35.9999Z" fill="#FF2D64"/>
<path d="M99.2188 98.3359C100.509 98.3311 101.8 98.3263 103.13 98.3214C105.857 98.314 108.583 98.3247 111.31 98.3481C114.798 98.3766 118.283 98.3601 121.77 98.3302C125.108 98.3077 128.444 98.3235 131.781 98.3359C133.03 98.3257 134.279 98.3156 135.566 98.3052C144.028 98.4197 144.028 98.4197 148.285 100.961C150.652 105.156 150.72 108.534 150.664 113.281C150.669 114.172 150.674 115.063 150.679 115.981C150.682 117.861 150.673 119.74 150.652 121.62C150.625 124.491 150.652 127.359 150.684 130.23C150.68 132.06 150.674 133.889 150.664 135.719C150.679 137.002 150.679 137.002 150.695 138.311C150.618 142.247 150.247 144.563 148.285 148.038C143.024 151.18 137.796 150.713 131.781 150.664C129.845 150.671 129.845 150.671 127.87 150.678C125.143 150.686 122.417 150.675 119.69 150.652C116.202 150.623 112.717 150.64 109.23 150.67C105.892 150.692 102.556 150.676 99.2188 150.664C97.9697 150.674 96.7206 150.684 95.4337 150.695C86.9717 150.58 86.9717 150.58 82.7153 148.038C80.3476 143.844 80.2798 140.466 80.3359 135.719C80.3312 134.828 80.3264 133.936 80.3214 133.018C80.318 131.139 80.3272 129.26 80.3481 127.38C80.3749 124.509 80.3484 121.641 80.3164 118.769C80.3197 116.94 80.3261 115.111 80.3359 113.281C80.3258 112.426 80.3157 111.571 80.3053 110.689C80.3824 106.753 80.7535 104.437 82.7153 100.961C87.9764 97.8197 93.2042 98.2871 99.2188 98.3359ZM88.1891 106.149C86.4595 108.475 86.4595 108.475 87 114C105.81 114 124.62 114 144 114C144.541 108.475 144.541 108.475 142.811 106.149C140.426 104.636 138.845 104.619 136.025 104.612C135.014 104.602 134.003 104.593 132.961 104.583C131.871 104.589 130.78 104.595 129.656 104.601C128.536 104.599 127.415 104.596 126.26 104.593C123.89 104.591 121.519 104.596 119.149 104.609C115.514 104.625 111.881 104.609 108.246 104.59C105.945 104.592 103.645 104.596 101.344 104.601C99.7077 104.592 99.7077 104.592 98.0387 104.583C96.522 104.597 96.522 104.597 94.9746 104.612C93.6392 104.615 93.6392 104.615 92.2767 104.619C89.9723 104.853 89.9723 104.853 88.1891 106.149ZM87 123C87 128.94 87 134.88 87 141C90.3243 144.324 90.5962 144.376 94.9746 144.388C95.9858 144.398 96.9969 144.407 98.0387 144.417C99.6747 144.408 99.6747 144.408 101.344 144.398C103.025 144.403 103.025 144.403 104.74 144.407C107.11 144.409 109.481 144.404 111.851 144.391C115.486 144.375 119.119 144.391 122.754 144.41C125.055 144.408 127.355 144.404 129.656 144.398C130.747 144.404 131.838 144.411 132.961 144.417C134.478 144.403 134.478 144.403 136.025 144.388C136.916 144.386 137.806 144.383 138.723 144.381C141.425 144.155 141.425 144.155 144 141C144 135.06 144 129.12 144 123C125.19 123 106.38 123 87 123Z" fill="#FF2D64"/>
<path d="M39 21C40.65 21 42.3 21 44 21C44.33 22.65 44.66 24.3 45 26C43.3439 26.3822 41.6754 26.714 40 27C39 26 39 26 38.9375 23.4375C38.9581 22.6331 38.9787 21.8288 39 21Z" fill="#FF2E64"/>
<path d="M30 21C31.65 21 33.3 21 35 21C35.33 22.65 35.66 24.3 36 26C34.3439 26.3822 32.6754 26.714 31 27C30 26 30 26 29.9375 23.4375C29.9581 22.6331 29.9787 21.8288 30 21Z" fill="#FF2E64"/>
<path d="M21 21C22.65 21 24.3 21 26 21C26.33 22.65 26.66 24.3 27 26C25.3439 26.3822 23.6754 26.714 22 27C21 26 21 26 20.9375 23.4375C20.9581 22.6331 20.9787 21.8288 21 21Z" fill="#FF2E64"/>
</g>
<defs>
<clipPath id="clip0_11680_6">
<rect width="150" height="150" fill="white"/>
</clipPath>
</defs>
</svg>
