<svg width="150" height="150" viewBox="0 0 150 150" fill="none" xmlns="http://www.w3.org/2000/svg">
<path d="M115.813 26.1873C129.428 38.0184 136.744 53.7679 138.32 71.6287C138.867 89.1124 132.933 105.192 121.535 118.398C108.94 131.323 93.0964 138.045 75.1875 138.312C58.0691 138.198 42.4183 131.898 30 120C17.7105 107.173 11.4099 90.8524 11.5823 73.1571C12.2206 56.4057 18.7784 41.4348 30.4024 29.3123C54.9849 7.42832 89.6461 6.07896 115.813 26.1873Z" fill="#29B6F6"/>
<path d="M106 44.0002C106.295 50.247 105.17 55.9037 103.875 62.0002C103.417 64.2095 102.96 66.4192 102.504 68.6291C102.139 70.3966 102.139 70.3966 101.766 72.1999C100.943 76.2822 100.166 80.3713 99.4023 84.465C99.135 85.8875 98.8676 87.3101 98.6001 88.7326C98.206 90.8298 97.8144 92.9273 97.4304 95.0263C97.0712 96.9863 96.7018 98.9445 96.332 100.903C96.123 102.032 95.9139 103.161 95.6985 104.324C95 107 95 107 93 109C90.8633 109.5 90.8633 109.5 88 109C85.1908 107.243 82.7092 105.143 80.1875 103C79.1482 102.142 79.1482 102.142 78.0879 101.266C76.3826 99.8545 74.6875 98.4327 73 97.0002C68.9747 98.8968 66.7042 101.322 63.7812 104.637C62 106 62 106 59.9851 105.895C58 105 58 105 57.0813 102.855C56.8753 101.928 56.6693 101.002 56.457 100.047C54.2188 89.1491 54.2188 89.1491 48.0024 80.4889C44.2884 78.8508 40.6361 78.2007 36.6328 77.6759C33 77.0002 33 77.0002 31.4922 74.9181C31.3298 74.2852 31.1673 73.6523 31 73.0002C34.1846 70.3622 37.3519 68.8945 41.1897 67.3805C42.1051 67.0165 42.1051 67.0165 43.0389 66.6452C45.0458 65.8488 47.056 65.0611 49.0664 64.2736C50.4662 63.7203 51.8657 63.1665 53.2651 62.6121C56.9427 61.1571 60.6231 59.7095 64.3042 58.2634C67.3103 57.081 70.3144 55.8935 73.3183 54.7056C79.5233 52.2521 85.7297 49.8019 91.9397 47.361C93.0402 46.9282 94.1406 46.4953 95.2744 46.0493C99.0907 44.5803 101.92 43.8899 106 44.0002Z" fill="#FBFDFE"/>
<path d="M91 56C91.99 56.33 92.98 56.66 94 57C92.6146 60.2119 91.0789 62.0435 88.3945 64.2656C84.0278 67.9626 79.8507 71.8266 75.6875 75.75C74.9856 76.4087 74.2837 77.0674 73.5605 77.7461C69.9062 81.1499 69.9062 81.1499 66.4055 84.708C65 86 65 86 63 86C64.1137 87.0828 64.1137 87.0828 65.25 88.1875C67.695 90.6881 69.8412 93.2553 72 96C70.4324 97.7022 68.8454 99.3864 67.25 101.062C66.3683 102.002 65.4866 102.942 64.5781 103.91C62 106 62 106 59.9727 105.965C58 105 58 105 56.8115 102.683C56.4973 101.683 56.1831 100.683 55.8594 99.6523C55.5113 98.5728 55.1633 97.4932 54.8047 96.3809C54.4566 95.2446 54.1086 94.1082 53.75 92.9375C53.3865 91.7973 53.023 90.6571 52.6484 89.4824C51.7507 86.6593 50.8687 83.8322 50 81C50.7801 80.5269 51.5602 80.0538 52.364 79.5664C55.3258 77.77 58.2874 75.9733 61.2488 74.1763C62.5179 73.4063 63.7871 72.6364 65.0564 71.8667C66.2896 71.1189 67.5226 70.3707 68.7554 69.6223C69.9897 68.8735 71.2248 68.126 72.4607 67.3796C75.5727 65.4959 78.662 63.5857 81.7212 61.6172C82.3134 61.2401 82.9056 60.8631 83.5157 60.4746C85.1432 59.4357 86.7638 58.3861 88.384 57.3359C89.2473 56.8951 90.1106 56.4542 91 56Z" fill="#CFD8DC"/>
<path d="M62 88C65.923 89.825 68.7379 92.1827 72 95C70.0193 97.3504 68.0142 99.6782 66 102C65.2987 102.825 64.5975 103.65 63.875 104.5C63.2563 104.995 62.6375 105.49 62 106C59.8828 105.594 59.8828 105.594 58 105C58.2887 103.866 58.5775 102.731 58.875 101.562C60.0026 97.0601 61.0132 92.535 62 88Z" fill="#A9BFCA"/>
</svg>
