<svg width="150" height="150" viewBox="0 0 150 150" fill="none" xmlns="http://www.w3.org/2000/svg">
<path d="M123.074 23.2147C133.558 32.9329 137.328 46.4104 138.207 60.2596C138.303 63.6134 138.329 66.9573 138.312 70.3123C138.307 71.4964 138.301 72.6805 138.295 73.9005C138.091 88.6935 136.161 103.384 125.875 114.875C115.539 124.209 100.183 128.168 86.5352 128.07C84.7166 128.086 84.7166 128.086 82.8613 128.101C80.3327 128.117 77.8039 128.109 75.2754 128.078C67.2792 128.111 67.2792 128.111 60.8086 132.312C59.8306 133.508 58.8926 134.739 58 136C52.7501 142.818 52.7501 142.818 48.125 143.937C47.0938 143.958 46.0625 143.979 45 144C42.9688 140.953 42.7534 140.399 42.8047 136.988C42.8111 136.231 42.8176 135.473 42.8242 134.693C42.841 133.908 42.8577 133.122 42.875 132.312C42.884 131.515 42.893 130.718 42.9023 129.896C42.9259 127.931 42.9618 125.965 43 124C41.6658 123.83 41.6658 123.83 40.3047 123.656C31.2854 121.865 24.1064 115.403 19 108C12.5731 96.1763 11.6597 83.7306 11.75 70.4998C11.7423 69.3667 11.7345 68.2337 11.7266 67.0662C11.7593 52.7861 13.8314 38.2261 23.1602 26.8084C44.9587 5.38012 98.8733 5.39442 123.074 23.2147Z" fill="#FDFCFE"/>
<path d="M123.074 23.2147C133.558 32.9329 137.328 46.4104 138.207 60.2596C138.303 63.6134 138.329 66.9573 138.312 70.3123C138.307 71.4964 138.301 72.6805 138.295 73.9005C138.091 88.6935 136.161 103.384 125.875 114.875C115.539 124.209 100.183 128.168 86.5352 128.07C84.7166 128.086 84.7166 128.086 82.8613 128.101C80.3327 128.117 77.8039 128.109 75.2754 128.078C67.2792 128.111 67.2792 128.111 60.8086 132.312C59.8306 133.508 58.8926 134.739 58 136C52.7501 142.818 52.7501 142.818 48.125 143.937C47.0938 143.958 46.0625 143.979 45 144C42.9688 140.953 42.7534 140.399 42.8047 136.988C42.8111 136.231 42.8176 135.473 42.8242 134.693C42.841 133.908 42.8577 133.122 42.875 132.312C42.884 131.515 42.893 130.718 42.9023 129.896C42.9259 127.931 42.9618 125.965 43 124C41.6658 123.83 41.6658 123.83 40.3047 123.656C31.2854 121.865 24.1064 115.403 19 108C12.5731 96.1763 11.6597 83.7306 11.75 70.4998C11.7423 69.3667 11.7345 68.2337 11.7266 67.0662C11.7593 52.7861 13.8314 38.2261 23.1602 26.8084C44.9587 5.38012 98.8733 5.39442 123.074 23.2147ZM29.4648 35.117C22.2584 44.3796 21.6476 54.7251 21.6843 66.0789C21.6875 68.1 21.6641 70.1196 21.6387 72.1405C21.6326 84.4934 22.3065 97.4624 31 107C36.233 111.919 42.6142 116 50 116C50 121.94 50 127.88 50 134C53.4466 131.243 55.9333 129.13 58.6875 125.875C63.6516 120.041 63.6516 120.041 66.2839 119.729C67.6961 119.71 67.6961 119.71 69.1367 119.691C70.1819 119.668 71.2271 119.646 72.304 119.622C73.4205 119.602 74.5371 119.583 75.6875 119.562C91.3014 119.087 108.482 118.329 120 106.25C128.058 95.9905 128.181 84.3659 128.188 71.8748C128.2 70.6193 128.212 69.3637 128.225 68.0701C128.244 55.6904 127.91 43.6036 119.211 34.0311C105.537 21.1739 85.9896 21.3551 68.3164 21.7147C54.033 22.2258 39.6339 24.0626 29.4648 35.117Z" fill="#7F58C2"/>
<path d="M53 38.0001C55.5203 40.3512 57.2388 43.0541 59 46.0001C59.6188 47.0313 60.2375 48.0626 60.875 49.1251C62.1788 52.457 62.6024 54.4609 62 58.0001C61.1544 58.8045 60.3088 59.6088 59.4375 60.4376C56.6522 62.8122 56.6522 62.8122 56.8125 66.3126C59.3706 74.2563 65.3674 80.1211 72 85.0001C75.6378 86.2127 78.1774 86.3955 82 86.0001C82.8044 85.1338 83.6088 84.2676 84.4375 83.3751C85.2831 82.5913 86.1288 81.8076 87 81.0001C94.2688 81.3761 101.076 85.7501 106 91.0001C106.477 94.1908 106.41 96.1195 105.047 99.047C101.506 103.697 99.5232 105.58 93.625 106.563C79.5917 106.12 64.2535 91.9866 55.1211 82.4688C47.4279 73.5147 36.5425 60.4096 37.3984 48.0431C38.521 44.2306 41.0486 41.5692 44 39.0001C47.2781 37.3611 49.3782 37.4568 53 38.0001Z" fill="#805AC3"/>
<path d="M74 34C84.7966 34.5141 92.9026 37.8297 100.727 45.3945C107.737 53.4289 109.69 60.8103 109.211 71.3594C109.141 72.2308 109.072 73.1022 109 74C106.525 74.495 106.525 74.495 104 75C102.771 72.5411 102.859 70.7459 102.75 68C102.04 59.9028 99.1355 53.6475 93.1875 48.0625C87.1982 43.2778 81.4821 42.0475 74 41C73.34 40.34 72.68 39.68 72 39C72.5357 35.4643 72.5357 35.4643 74 34Z" fill="#835EC4"/>
<path d="M74 43.9998C80.9778 43.3654 85.3491 44.8454 91 48.9998C96.3672 53.9119 99.7082 59.4403 100.312 66.8123C100 69.9998 100 69.9998 98 71.9998C95.875 71.6248 95.875 71.6248 94 70.9998C93.853 70.1297 93.853 70.1297 93.7031 69.242C92.5626 63.2836 91.1986 58.5085 86.207 54.5935C81.9616 51.7687 77.9566 50.1357 73 48.9998C73.33 47.3498 73.66 45.6998 74 43.9998Z" fill="#835EC4"/>
<path d="M76 54C81.2688 54.4132 84.2294 55.2294 88 59C90.0273 61.7645 90.0264 62.7708 89.625 66.25C89.4188 67.1575 89.2125 68.065 89 69C87.25 68.875 87.25 68.875 85 68C83.6667 66 82.3333 64 81 62C79.0785 60.443 77.1385 59.2636 75 58C75.33 56.68 75.66 55.36 76 54Z" fill="#845EC4"/>
</svg>
