<svg width="150" height="150" viewBox="0 0 150 150" fill="none" xmlns="http://www.w3.org/2000/svg">
<path d="M115.813 26.1873C129.428 38.0184 136.744 53.7679 138.32 71.6287C138.867 89.1124 132.933 105.192 121.535 118.398C108.94 131.323 93.0964 138.045 75.1875 138.312C58.0691 138.198 42.4183 131.898 30 120C17.7105 107.173 11.4099 90.8524 11.5823 73.1571C12.2206 56.4057 18.7784 41.4348 30.4024 29.3123C54.9849 7.42832 89.6461 6.07896 115.813 26.1873Z" fill="#1976D2"/>
<path d="M38 53C39.9363 52.8919 41.8743 52.8144 43.8125 52.75C45.4309 52.6804 45.4309 52.6804 47.0821 52.6094C50 53 50 53 51.7383 54.6211C53.2389 57.4504 54.3164 60.2894 55.375 63.3125C58.4506 71.9794 58.4506 71.9794 65 78C64.8585 74.9581 64.7119 71.9165 64.5625 68.875C64.5232 68.0191 64.4839 67.1631 64.4434 66.2812C64.4015 65.4434 64.3596 64.6055 64.3164 63.7422C64.2798 62.9776 64.2431 62.213 64.2053 61.4253C63.966 58.5984 63.4664 55.7984 63 53C68.94 53 74.88 53 81 53C81.33 59.93 81.66 66.86 82 74C86.8368 73.5515 86.8368 73.5515 88.6533 71.1582C89.3586 69.9816 89.3586 69.9816 90.0781 68.7812C90.8593 67.507 90.8593 67.507 91.6563 66.207C92.1822 65.3137 92.7081 64.4204 93.25 63.5C94.3172 61.7392 95.3848 59.9788 96.4531 58.2188C96.9188 57.4344 97.3845 56.65 97.8643 55.8418C99 54 99 54 100 53C102.02 52.9276 104.042 52.9162 106.063 52.9375C107.167 52.9465 108.272 52.9555 109.41 52.9648C110.265 52.9764 111.119 52.988 112 53C112.907 59.3363 109.804 63.0976 106.438 68.125C105.383 69.7034 104.34 71.2891 103.309 72.8828C102.843 73.5778 102.376 74.2727 101.896 74.9888C100.814 76.9578 100.814 76.9578 101.245 79.1028C102.337 81.8455 104.052 83.8021 105.938 86.0625C112.279 93.7164 112.279 93.7164 112 100C107.43 100.85 103.545 101.081 99 100C96.0849 97.7091 93.96 94.8372 91.8679 91.8C88.6865 87.2641 86.4841 86.0106 81 85C81 89.62 81 94.24 81 99C77.4649 100.768 73.8598 100.511 70 100C55.6968 95.0853 47.9501 83.6008 41.3203 70.7422C38.5186 64.5531 37.4353 59.7772 38 53Z" fill="#F9FBFD"/>
</svg>
