<svg width="804" height="619" viewBox="0 0 804 619" fill="none" xmlns="http://www.w3.org/2000/svg">
<g clip-path="url(#clip0_11610_291)">
<path d="M280.026 -0.0281007C280.182 -0.0286961 280.338 -0.0292915 280.499 -0.0299049C281.022 -0.0316438 281.546 -0.0319477 282.07 -0.0322469C282.445 -0.0331745 282.82 -0.0341814 283.195 -0.0352618C284.215 -0.0378907 285.234 -0.039183 286.254 -0.0400733C286.891 -0.0406606 287.527 -0.0414832 288.164 -0.0423786C290.157 -0.0451184 292.149 -0.0470558 294.141 -0.0478295C296.441 -0.0487278 298.742 -0.0522464 301.042 -0.0580494C302.82 -0.0623788 304.598 -0.0644024 306.376 -0.0646704C307.438 -0.0648805 308.5 -0.0660672 309.562 -0.0696439C310.561 -0.0729425 311.56 -0.0733804 312.559 -0.07162C312.925 -0.0714654 313.292 -0.0723385 313.658 -0.0743168C314.159 -0.0768602 314.659 -0.0756911 315.16 -0.0735991C315.304 -0.0752135 315.449 -0.0768279 315.598 -0.0784912C316.527 -0.069423 317.166 0.109252 317.954 0.601208C318.276 1.24579 318.183 1.94863 318.182 2.65675C318.182 2.83078 318.183 3.00481 318.183 3.18411C318.185 3.77369 318.185 4.36326 318.186 4.95284C318.187 5.37721 318.188 5.80158 318.189 6.22596C318.191 7.39712 318.193 8.56829 318.194 9.73946C318.196 11.0005 318.198 12.2616 318.201 13.5227C318.205 15.7092 318.209 17.8958 318.212 20.0824C318.215 22.3763 318.219 24.6702 318.223 26.9641C318.224 27.1066 318.224 27.2491 318.224 27.3959C318.226 28.1195 318.227 28.8431 318.228 29.5667C318.238 34.6954 318.247 39.8241 318.255 44.9528C318.263 49.9361 318.271 54.9194 318.28 59.9027C318.28 60.0562 318.28 60.2098 318.281 60.368C318.283 61.9098 318.286 63.4516 318.289 64.9934C318.294 68.1345 318.3 71.2755 318.305 74.4165C318.306 74.561 318.306 74.7054 318.306 74.8542C318.323 84.5032 318.339 94.1522 318.354 103.801C318.505 103.663 318.656 103.525 318.812 103.383C319.012 103.201 319.212 103.018 319.412 102.836C319.512 102.745 319.611 102.654 319.713 102.561C320.413 101.923 321.124 101.323 321.873 100.745C322.112 100.56 322.351 100.375 322.591 100.19C322.715 100.094 322.84 99.9975 322.968 99.8986C323.386 99.5751 323.802 99.2486 324.217 98.9215C330.617 93.8869 337.424 89.4175 344.6 85.5659C344.773 85.4728 344.946 85.3797 345.124 85.2837C360.638 76.9544 377.909 72.1805 441.057 76.1556C447.46 78.0998 453.619 80.5635 459.6 83.562C459.821 83.6721 460.041 83.7821 460.269 83.8955C464.781 86.1574 469.066 88.7183 473.224 91.5776C473.365 91.6741 473.506 91.7705 473.651 91.8699C476.693 93.9619 479.607 96.2246 482.44 98.5912C482.54 98.6739 482.639 98.7566 482.742 98.8419C484.101 99.9699 485.426 101.126 486.715 102.334C487.246 102.832 487.784 103.315 488.339 103.786C489.571 104.86 490.711 106.032 491.864 107.189C492.269 107.595 492.675 108 493.081 108.405C494.318 109.642 495.532 110.882 496.665 112.218C497.02 112.609 497.381 112.995 497.742 113.382C498.602 114.314 499.417 115.272 500.212 116.261C500.617 116.759 501.031 117.248 501.45 117.735C502.755 119.255 503.969 120.839 505.177 122.438C505.448 122.796 505.723 123.153 505.999 123.507C509.056 127.437 511.81 131.565 514.521 135.738C514.645 135.929 514.645 135.929 514.771 136.123C515.016 136.503 515.257 136.884 515.498 137.266C515.588 137.405 515.678 137.545 515.772 137.688C516.761 139.26 517.485 140.941 518.227 142.639C518.37 142.962 518.512 143.286 518.654 143.609C519.074 144.566 519.49 145.525 519.905 146.484C519.992 146.684 519.992 146.684 520.081 146.888C525.361 159.042 528.948 171.949 530.273 185.146C530.308 185.491 530.308 185.491 530.344 185.842C530.729 190.032 530.76 194.243 530.749 198.447C530.749 198.796 530.749 198.796 530.748 199.151C530.713 217.548 527.581 235.316 504.879 275.334C504.727 275.522 504.575 275.711 504.419 275.905C502.772 277.932 501.091 279.925 499.324 281.848C498.923 282.288 498.531 282.735 498.142 283.187C497.544 283.877 496.905 284.516 496.254 285.157C495.893 285.524 495.558 285.9 495.225 286.293C493.823 287.92 492.269 289.44 490.632 290.829C490.186 291.224 489.77 291.642 489.352 292.066C488.68 292.746 487.991 293.387 487.266 294.009C486.798 294.414 486.341 294.83 485.883 295.247C485.018 296.029 484.127 296.77 483.22 297.503C482.718 297.914 482.223 298.333 481.731 298.757C480.219 300.055 478.647 301.266 477.055 302.464C476.651 302.771 476.253 303.082 475.855 303.395C473.699 305.08 471.394 306.448 469.017 307.797C468.817 307.911 468.617 308.025 468.411 308.143C466.951 308.977 465.483 309.795 464.008 310.602C463.714 310.763 463.714 310.763 463.415 310.928C447.499 319.596 429.217 325.171 407.813 325.665C407.47 325.666 407.126 325.666 406.783 325.667C406.067 325.668 405.352 325.669 404.637 325.668C403.918 325.668 403.2 325.67 402.481 325.673C396.948 325.693 391.431 325.611 385.934 324.892C385.675 324.859 385.416 324.826 385.149 324.791C372.528 323.11 360.442 319.15 349.008 313.608C348.812 313.514 348.616 313.42 348.414 313.323C345.539 311.935 342.745 310.415 339.992 308.799C339.851 308.716 339.71 308.633 339.564 308.548C337.177 307.143 334.843 305.673 332.542 304.13C332.053 303.801 331.561 303.474 331.07 303.148C328.212 301.241 325.394 299.272 322.699 297.139C322.425 296.923 322.15 296.707 321.875 296.491C321.678 296.336 321.678 296.336 321.476 296.177C320.853 295.691 320.226 295.208 319.599 294.727C319.419 294.588 319.419 294.588 319.235 294.447C318.942 294.221 318.648 293.995 318.354 293.77C318.354 293.928 318.354 294.086 318.354 294.249C318.351 298.095 318.342 301.942 318.328 305.788C318.321 307.649 318.316 309.509 318.315 311.369C318.314 312.99 318.31 314.612 318.302 316.233C318.298 317.091 318.295 317.95 318.297 318.808C318.298 319.616 318.295 320.424 318.289 321.233C318.287 321.529 318.287 321.826 318.289 322.122C318.291 322.527 318.287 322.932 318.282 323.337C318.281 323.564 318.281 323.791 318.28 324.024C318.107 324.852 317.835 325.139 317.152 325.631C316.577 325.729 316.121 325.766 315.546 325.756C315.305 325.758 315.305 325.758 315.06 325.76C314.522 325.763 313.984 325.759 313.446 325.755C313.061 325.755 312.675 325.756 312.289 325.758C311.242 325.761 310.195 325.757 309.148 325.753C308.052 325.749 306.957 325.75 305.861 325.75C304.022 325.75 302.183 325.746 300.343 325.74C298.216 325.733 296.088 325.731 293.961 325.732C291.915 325.733 289.869 325.731 287.824 325.727C286.952 325.726 286.081 325.725 285.21 325.726C284.185 325.726 283.16 325.723 282.134 325.718C281.758 325.716 281.381 325.716 281.004 325.716C280.491 325.717 279.978 325.714 279.464 325.71C279.314 325.711 279.165 325.712 279.01 325.714C278.431 325.706 277.969 325.673 277.445 325.416C276.918 324.855 276.972 324.313 276.981 323.581C276.979 323.357 276.979 323.357 276.978 323.129C276.975 322.624 276.977 322.119 276.98 321.615C276.979 321.251 276.977 320.886 276.976 320.522C276.972 319.518 276.973 318.513 276.975 317.509C276.977 316.426 276.974 315.343 276.971 314.26C276.967 312.378 276.966 310.495 276.967 308.613C276.968 305.87 276.965 303.127 276.96 300.384C276.953 295.906 276.949 291.427 276.947 286.948C276.946 282.646 276.943 278.344 276.939 274.042C276.938 273.78 276.938 273.518 276.938 273.248C276.935 270.359 276.931 267.469 276.928 264.58C276.927 263.802 276.926 263.023 276.925 262.245C276.924 261.73 276.924 261.215 276.923 260.7C276.919 257.488 276.917 254.275 276.915 251.062C276.912 241.787 276.89 232.513 276.798 223.239C276.792 222.614 276.786 221.989 276.78 221.364C276.743 217.469 276.694 213.575 276.582 209.681C276.575 209.466 276.575 209.466 276.569 209.246C276.522 207.641 276.46 206.037 276.369 204.434C276.172 200.782 276.298 197.127 276.398 193.474C276.583 186.74 276.725 180.006 276.793 173.27C276.796 172.97 276.796 172.97 276.799 172.664C276.947 158.111 276.916 143.556 276.922 129.002C276.924 124.129 276.928 119.256 276.932 114.383C276.934 112.326 276.935 110.27 276.937 108.213C276.937 107.985 276.937 107.757 276.938 107.522C276.942 102.138 276.946 96.7546 276.95 91.3711C276.95 91.1366 276.95 90.9021 276.95 90.6605C276.954 85.1652 276.957 79.6699 276.96 74.1746C276.96 73.9365 276.96 73.6985 276.96 73.4532C276.961 71.5323 276.962 69.6114 276.963 67.6905C276.966 59.7774 276.972 51.8643 276.979 43.9513C276.981 42.8365 276.982 41.7217 276.983 40.6069C276.983 40.3876 276.983 40.1683 276.983 39.9423C276.987 36.4152 276.988 32.8882 276.988 29.3611C276.988 25.8316 276.991 22.3021 276.995 18.7726C276.998 16.6761 276.999 14.5796 276.998 12.4831C276.997 11.0855 276.998 9.68801 277.001 8.29047C277.003 7.4931 277.004 6.69576 277.002 5.89839C277 5.1744 277.001 4.45047 277.005 3.72648C277.006 3.34109 277.004 2.95569 277.002 2.57031C277.003 2.34372 277.005 2.11714 277.007 1.88369C277.007 1.68772 277.007 1.49176 277.007 1.28985C277.095 0.719076 277.23 0.5455 277.683 0.200431C278.427 -0.0952193 279.237 -0.0290401 280.026 -0.0281007ZM391.081 113.019C390.833 113.055 390.584 113.09 390.329 113.127C386.859 113.633 383.45 114.322 380.062 115.223C379.864 115.276 379.667 115.328 379.463 115.381C371.573 117.491 364.074 120.955 357.285 125.481C357.16 125.564 357.035 125.647 356.907 125.732C353.814 127.799 350.869 130.078 348.123 132.59C347.844 132.842 347.563 133.094 347.277 133.337C346.065 134.372 344.942 135.491 343.819 136.619C343.486 136.952 343.153 137.285 342.819 137.617C341.701 138.735 340.611 139.864 339.591 141.074C339.416 141.276 339.24 141.478 339.064 141.68C334.737 146.734 330.931 152.253 327.507 157.951C327.284 158.32 327.057 158.686 326.827 159.05C324.325 163.014 322.935 167.282 321.56 171.733C321.516 171.873 321.473 172.013 321.428 172.158C320.496 175.159 319.789 178.195 319.181 181.276C319.151 181.423 319.122 181.57 319.092 181.721C318.328 185.594 318.091 189.399 318.094 193.343C318.093 193.796 318.092 194.249 318.091 194.701C318.09 195.646 318.09 196.59 318.091 197.534C318.092 198.49 318.09 199.446 318.087 200.403C318.019 207.834 318.019 207.834 318.755 215.217C318.778 215.369 318.801 215.52 318.825 215.676C318.955 216.502 319.113 217.319 319.293 218.135C319.345 218.373 319.396 218.611 319.449 218.856C322.018 230.419 327.563 241.095 334.983 250.285C335.142 250.484 335.301 250.683 335.465 250.887C335.9 251.426 336.342 251.958 336.786 252.49C336.869 252.59 336.952 252.69 337.038 252.793C338.343 254.365 339.696 255.882 341.092 257.374C341.393 257.698 341.691 258.024 341.989 258.351C343.778 260.312 345.596 262.267 347.628 263.98C347.986 264.295 348.313 264.624 348.642 264.969C349.424 265.756 350.277 266.406 351.174 267.055C351.34 267.176 351.505 267.297 351.676 267.421C364.619 276.789 379.456 283.148 395.489 284.351C395.64 284.363 395.791 284.374 395.947 284.386C413.419 285.645 430.983 282.691 457.593 265.438C458.474 264.674 459.34 263.896 460.201 263.11C460.388 262.942 460.575 262.773 460.768 262.6C462.689 260.863 464.588 259.077 466.266 257.101C466.696 256.601 467.143 256.118 467.589 255.633C468.575 254.551 469.506 253.434 470.419 252.289C470.501 252.187 470.583 252.085 470.667 251.98C473.383 248.59 475.887 245.069 478.261 241.432C478.595 240.924 478.938 240.425 479.286 239.926C486.229 229.784 489.461 213.901 489.493 201.913C489.494 201.695 489.494 201.695 489.495 201.474C489.498 200.704 489.499 199.934 489.5 199.164C489.501 198.543 489.504 197.921 489.509 197.3C489.594 185.557 487.562 174.155 482.673 163.427C482.46 162.959 482.25 162.49 482.042 162.02C479.279 155.881 475.348 150.216 471.02 145.081C470.925 144.968 470.83 144.855 470.732 144.738C469.191 142.906 469.191 142.906 467.527 141.185C467.181 140.841 466.867 140.48 466.55 140.109C465.353 138.724 464.046 137.447 462.656 136.258C462.187 135.848 461.732 135.426 461.277 135.001C460.024 133.831 458.737 132.725 457.396 131.655C457.17 131.471 456.944 131.286 456.718 131.101C454.939 129.653 453.106 128.294 451.236 126.967C450.798 126.655 450.361 126.34 449.926 126.024C444.904 122.403 439.571 119.93 433.755 117.828C433.524 117.745 433.294 117.662 433.056 117.576C427.099 115.449 420.983 113.922 414.722 113.019C414.515 112.987 414.309 112.954 414.096 112.921C406.66 111.777 398.518 111.921 391.081 113.019Z" fill="#111617"/>
<path d="M135.346 34.8415C136.15 34.8426 136.953 34.8419 137.757 34.8408C141.017 34.8368 144.267 34.8662 147.524 35.018C148.66 35.0707 149.795 35.1007 150.932 35.1244C151.112 35.1282 151.291 35.132 151.476 35.1359C152.195 35.1509 152.914 35.1651 153.633 35.1787C154.173 35.1891 154.712 35.2005 155.252 35.212C155.412 35.2147 155.573 35.2175 155.737 35.2203C155.89 35.2236 156.042 35.227 156.199 35.2304C156.329 35.2329 156.46 35.2354 156.595 35.238C157.292 35.2822 157.984 35.3822 158.676 35.4688C158.676 50.1492 158.676 64.8297 158.676 79.955C157.374 79.7182 156.137 79.4803 154.864 79.1525C150.107 77.9344 145.148 77.0746 140.244 76.7488C140.086 76.7378 139.927 76.7268 139.764 76.7154C136.433 76.4912 133.12 76.5163 129.789 76.6987C129.552 76.7116 129.552 76.7116 129.31 76.7247C115.559 77.4921 101.586 80.0465 89.1553 86.1671C88.8434 86.3202 88.8434 86.3202 88.5252 86.4763C82.986 89.219 77.9083 92.6328 73.3277 96.7876C73.1404 96.9564 73.1404 96.9564 72.9494 97.1285C71.113 98.7873 71.113 98.7873 69.4436 100.611C69.0749 101.05 68.6847 101.465 68.2939 101.885C66.2022 104.209 64.3808 106.774 62.7092 109.412C62.5995 109.584 62.5995 109.584 62.4875 109.76C59.2647 114.863 56.8415 120.346 54.8956 126.044C54.8396 126.206 54.7836 126.368 54.726 126.534C53.531 130.012 52.601 133.657 51.8904 137.266C52.2007 137.266 52.2007 137.266 52.5174 137.265C61.6345 137.248 70.7515 137.233 79.8686 137.224C80.0066 137.224 80.1445 137.223 80.2867 137.223C83.2851 137.22 86.2835 137.217 89.2818 137.215C90.7522 137.214 92.2225 137.212 93.6929 137.211C93.8392 137.211 93.9855 137.211 94.1363 137.211C98.881 137.206 103.626 137.199 108.371 137.19C113.245 137.18 118.12 137.174 122.995 137.172C123.683 137.172 124.371 137.171 125.059 137.171C125.195 137.171 125.33 137.171 125.47 137.171C127.652 137.17 129.835 137.165 132.017 137.159C134.21 137.153 136.403 137.151 138.595 137.152C139.784 137.153 140.972 137.152 142.161 137.147C143.248 137.142 144.335 137.142 145.422 137.145C145.817 137.145 146.211 137.144 146.605 137.141C147.139 137.137 147.673 137.139 148.208 137.143C148.439 137.139 148.439 137.139 148.676 137.135C149.465 137.147 149.827 137.239 150.457 137.728C150.993 138.442 151.003 139.037 150.99 139.896C150.991 140.059 150.993 140.222 150.995 140.39C150.999 140.935 150.995 141.481 150.992 142.027C150.994 142.418 150.995 142.809 150.998 143.201C151.002 144.264 151 145.326 150.997 146.389C150.995 147.501 150.997 148.613 150.999 149.725C151 151.592 150.998 153.459 150.993 155.326C150.988 157.485 150.99 159.644 150.995 161.804C151 163.657 151 165.51 150.998 167.364C150.996 168.471 150.996 169.578 150.999 170.685C151.002 171.726 151 172.767 150.994 173.807C150.993 174.19 150.993 174.572 150.996 174.954C150.998 175.475 150.995 175.996 150.99 176.518C150.993 176.745 150.993 176.745 150.997 176.977C150.983 177.705 150.899 178.097 150.46 178.685C149.693 179.277 149.091 179.286 148.161 179.271C147.989 179.272 147.817 179.273 147.641 179.274C147.063 179.277 146.485 179.272 145.907 179.268C145.49 179.268 145.072 179.269 144.655 179.27C143.506 179.273 142.357 179.269 141.208 179.264C139.97 179.259 138.731 179.261 137.493 179.261C135.347 179.262 133.201 179.259 131.055 179.253C128.804 179.247 126.553 179.243 124.302 179.242C124.162 179.242 124.022 179.242 123.878 179.242C123.167 179.242 122.457 179.242 121.746 179.241C116.712 179.239 111.678 179.232 106.644 179.223C101.753 179.214 96.8624 179.207 91.9716 179.202C91.8209 179.202 91.6702 179.202 91.5149 179.202C90.0012 179.201 88.4875 179.199 86.9738 179.198C83.8901 179.196 80.8065 179.193 77.7229 179.19C77.5811 179.19 77.4393 179.189 77.2932 179.189C67.8239 179.18 58.3545 179.164 48.8851 179.147C48.8853 179.337 48.8853 179.337 48.8855 179.53C48.8991 193.28 48.9117 207.03 48.9191 220.78C48.9192 220.985 48.9193 221.191 48.9194 221.402C48.9218 225.863 48.924 230.323 48.926 234.784C48.927 236.971 48.9281 239.158 48.9291 241.346C48.9293 241.563 48.9294 241.781 48.9295 242.005C48.9329 249.065 48.9389 256.126 48.9463 263.186C48.9538 270.439 48.9588 277.692 48.9604 284.945C48.9606 285.968 48.9609 286.992 48.9612 288.015C48.9612 288.317 48.9612 288.317 48.9613 288.626C48.9623 291.874 48.966 295.121 48.9707 298.369C48.9755 301.631 48.9773 304.894 48.9761 308.156C48.9755 310.096 48.9771 312.036 48.9819 313.976C48.9849 315.27 48.985 316.564 48.9828 317.859C48.9815 318.597 48.9816 319.336 48.9852 320.074C48.989 320.868 48.9867 321.662 48.9837 322.456C48.9858 322.688 48.988 322.919 48.9901 323.158C48.9883 323.368 48.9865 323.579 48.9847 323.796C48.9848 324.069 48.9848 324.069 48.985 324.347C48.8517 324.991 48.597 325.231 48.0837 325.631C47.5273 325.71 47.0505 325.739 46.4944 325.732C46.3331 325.733 46.1718 325.734 46.0056 325.735C45.4645 325.738 44.9235 325.735 44.3824 325.732C43.9947 325.733 43.607 325.734 43.2194 325.735C42.1659 325.738 41.1125 325.736 40.059 325.732C38.9574 325.73 37.8559 325.731 36.7544 325.732C34.9044 325.732 33.0544 325.729 31.2044 325.725C29.0644 325.719 26.9245 325.719 24.7844 325.721C22.7273 325.724 20.6702 325.722 18.6131 325.72C17.737 325.718 16.8608 325.718 15.9847 325.719C14.9533 325.72 13.9219 325.718 12.8905 325.714C12.5116 325.713 12.1326 325.713 11.7537 325.714C11.2372 325.715 10.7208 325.712 10.2044 325.709C10.0537 325.71 9.903 325.711 9.74774 325.713C8.89766 325.702 8.42708 325.626 7.81361 325.03C7.71327 324.616 7.71326 324.616 7.71302 324.13C7.70996 323.851 7.70997 323.851 7.70686 323.566C7.7087 323.361 7.71054 323.156 7.71243 322.945C7.71063 322.618 7.71063 322.618 7.70879 322.284C7.70571 321.545 7.70838 320.806 7.71098 320.068C7.70994 319.535 7.7086 319.003 7.70686 318.471C7.7037 317.31 7.70353 316.149 7.70528 314.987C7.70787 313.26 7.70588 311.532 7.70293 309.804C7.69809 306.894 7.69696 303.985 7.69789 301.075C7.6988 298.182 7.69797 295.289 7.69485 292.396C7.69465 292.216 7.69446 292.036 7.69426 291.85C7.69327 290.935 7.69225 290.02 7.6912 289.104C7.68386 282.608 7.6801 276.112 7.67856 269.616C7.67706 263.344 7.67446 257.072 7.66995 250.8C7.66981 250.608 7.66968 250.416 7.66954 250.218C7.66652 246.001 7.6632 241.783 7.65962 237.565C7.65914 236.999 7.65867 236.434 7.65819 235.868C7.65803 235.682 7.65787 235.496 7.65771 235.304C7.65739 234.93 7.65707 234.555 7.65676 234.18C7.65597 233.249 7.65518 232.318 7.65437 231.387C7.65048 226.875 7.64779 222.363 7.64666 217.851C7.65662 193.37 7.65661 193.37 7.21341 168.894C7.17602 167.552 7.14074 166.209 7.10547 164.867C7.09346 164.417 7.08088 163.966 7.06817 163.516C6.99328 160.803 6.99263 158.121 7.177 155.412C7.3762 152.414 7.44938 149.422 7.47125 146.417C7.47633 145.733 7.48267 145.048 7.48934 144.363C7.51649 141.546 7.51649 141.546 7.5284 138.729C7.53943 133.076 7.80817 128.012 9.61675 122.638C9.72521 122.279 9.83172 121.92 9.93552 121.56C10.174 120.733 10.4295 119.913 10.6936 119.093C10.7386 118.952 10.7836 118.811 10.83 118.666C14.6956 106.547 19.868 94.9872 26.9344 84.3761C27.0171 84.2517 27.0998 84.1274 27.1849 83.9993C28.2896 82.3425 29.4412 80.7339 30.6534 79.1535C30.7565 79.0187 30.8596 78.8839 30.9658 78.745C32.6904 76.5049 34.4988 74.338 36.4026 72.2479C36.6934 71.9274 36.9826 71.6056 37.2698 71.2818C38.4 70.0095 39.5779 68.7942 40.7835 67.5935C40.9626 67.4136 41.1417 67.2337 41.3263 67.0483C42.3444 66.0315 43.3841 65.0592 44.4775 64.1243C44.7092 63.9197 44.9406 63.7146 45.1716 63.5091C47.011 61.8855 48.918 60.3749 50.8886 58.9142C51.0362 58.8046 51.1837 58.695 51.3358 58.5821C55.3774 55.5922 59.6218 52.9592 64.0357 50.5572C64.3508 50.3855 64.6655 50.2129 64.9796 50.0394C79.0998 42.2577 95.2041 38.3063 124.417 35.068C124.567 35.0592 124.717 35.0505 124.872 35.0414C128.362 34.8425 131.851 34.8365 135.346 34.8415Z" fill="#111617"/>
<path d="M730.873 80.9569C731.05 81.0451 731.227 81.1333 731.41 81.2242C736.866 83.9621 742.12 87.2539 747.101 90.776C747.314 90.9266 747.314 90.9266 747.532 91.0803C750.617 93.2661 753.616 95.5652 756.517 97.9899C756.67 98.1172 756.67 98.1172 756.826 98.2471C758.171 99.3693 759.491 100.512 760.779 101.7C761.215 102.097 761.655 102.487 762.1 102.874C764.193 104.701 766.184 106.638 768.15 108.598C768.307 108.754 768.464 108.911 768.626 109.072C769.455 109.902 770.249 110.75 771.014 111.639C771.533 112.236 772.078 112.807 772.62 113.382C773.718 114.557 774.746 115.771 775.751 117.027C775.95 117.268 776.149 117.509 776.349 117.749C787.687 131.454 795.671 148.52 799.993 165.721C800.083 166.079 800.083 166.079 800.176 166.443C802.07 174.011 803.317 181.779 803.8 189.567C803.808 189.704 803.817 189.84 803.825 189.981C803.994 192.761 804.04 195.536 804.037 198.322C804.037 198.536 804.037 198.75 804.037 198.971C804.031 202.665 803.932 206.327 803.599 210.007C803.587 210.142 803.575 210.277 803.562 210.416C802.097 226.436 797.685 241.843 787.371 262.709C787.248 262.927 787.125 263.144 786.998 263.368C783.113 270.233 778.601 276.729 773.473 282.727C772.969 283.318 772.481 283.921 771.994 284.527C771.396 285.262 770.78 285.944 770.097 286.6C769.743 286.953 769.419 287.32 769.095 287.699C768.352 288.554 767.568 289.358 766.767 290.157C766.622 290.303 766.476 290.448 766.326 290.598C766.021 290.904 765.716 291.209 765.41 291.514C764.946 291.977 764.483 292.441 764.02 292.906C763.721 293.204 763.422 293.503 763.123 293.802C762.987 293.938 762.851 294.075 762.71 294.216C761.813 295.109 760.883 295.951 759.923 296.775C759.689 296.98 759.455 297.185 759.222 297.391C746.646 308.39 732.019 316.925 716.26 322.463C716.1 322.519 715.94 322.575 715.775 322.633C715.317 322.793 714.859 322.952 714.401 323.11C714.267 323.157 714.133 323.203 713.994 323.251C713.085 323.561 712.173 323.805 711.238 324.028C711.085 323.791 711.085 323.791 710.928 323.55C707.959 319.1 703.901 316.029 699.264 313.442C698.908 313.241 698.561 313.025 698.216 312.806C698.216 312.674 698.216 312.542 698.216 312.406C698.376 312.368 698.537 312.329 698.702 312.29C716.467 308.047 733.032 300.088 747.101 288.359C747.217 288.263 747.333 288.166 747.453 288.067C748.947 286.827 750.393 285.543 751.816 284.222C752.102 283.957 752.392 283.696 752.682 283.435C753.878 282.354 755.037 281.243 756.179 280.105C756.311 279.975 756.443 279.844 756.578 279.709C757.352 278.933 758.087 278.134 758.803 277.305C759.225 276.818 759.661 276.346 760.098 275.872C760.907 274.984 761.681 274.076 762.435 273.14C762.796 272.692 763.161 272.247 763.529 271.803C775.472 257.36 783.58 239.639 789.174 207.202C789.203 206.856 789.203 206.856 789.233 206.502C789.426 203.883 789.414 201.26 789.412 198.635C789.412 198.389 789.412 198.143 789.412 197.889C789.407 194.363 789.358 190.872 788.974 187.363C788.948 187.111 788.922 186.86 788.895 186.6C787.393 172.029 783.074 158.162 776.552 145.081C776.418 144.811 776.418 144.811 776.281 144.536C774.209 140.405 771.766 136.456 769.139 132.657C768.989 132.439 768.989 132.439 768.835 132.216C764.517 125.977 759.59 120.29 754.238 114.923C754.125 114.809 754.012 114.696 753.896 114.579C752.669 113.347 751.436 112.137 750.106 111.015C749.887 110.825 749.668 110.634 749.449 110.444C746.711 108.079 743.92 105.824 740.964 103.736C740.478 103.392 739.994 103.045 739.511 102.697C737.382 101.175 735.203 99.7811 732.942 98.4637C732.511 98.2111 732.083 97.9539 731.657 97.694C729.063 96.1228 726.366 94.7466 723.66 93.381C723.491 93.2955 723.322 93.21 723.148 93.1219C708.243 85.6341 691.015 81.7874 673.047 81.7084C672.819 81.7082 672.591 81.7081 672.356 81.708C656.365 81.7229 640.281 84.9545 625.689 91.5775C625.466 91.6773 625.242 91.7772 625.012 91.88C613.348 97.0985 602.697 104.243 593.338 112.937C593.018 113.233 592.696 113.527 592.374 113.821C590.651 115.398 588.949 116.989 587.43 118.767C586.992 119.265 586.542 119.748 586.088 120.231C585.047 121.34 584.038 122.461 583.087 123.65C582.734 124.091 582.378 124.528 582.017 124.963C578.287 129.47 574.889 134.383 571.996 139.47C571.844 139.734 571.844 139.734 571.69 140.003C567.845 146.708 564.65 153.59 562.179 160.912C562.102 161.134 562.026 161.357 561.947 161.586C556.65 177.069 554.918 193.77 567.985 250.064C570.639 255.474 573.744 260.586 577.205 265.515C577.318 265.677 577.432 265.839 577.549 266.006C579.082 268.188 580.704 270.281 582.414 272.328C582.513 272.446 582.612 272.565 582.713 272.687C583.773 273.959 584.852 275.21 585.967 276.434C586.209 276.701 586.449 276.97 586.681 277.246C587.847 278.621 589.133 279.88 590.409 281.152C590.815 281.557 591.22 281.963 591.625 282.37C592.861 283.607 594.094 284.832 595.437 285.954C595.659 286.147 595.88 286.34 596.101 286.533C602.081 291.706 608.572 296.315 615.472 300.182C615.669 300.293 615.865 300.404 616.068 300.518C630.577 308.635 646.313 312.959 662.766 314.86C662.993 314.887 663.22 314.913 663.453 314.94C664.112 315.016 664.77 315.09 665.428 315.164C665.622 315.186 665.816 315.208 666.015 315.231C668.578 315.515 671.109 315.639 673.685 315.615C674.191 315.61 674.697 315.607 675.204 315.605C676.641 315.598 678.078 315.59 679.515 315.577C680.4 315.57 681.285 315.565 682.171 315.563C682.503 315.561 682.836 315.558 683.168 315.554C686.1 315.52 689.046 315.758 691.83 316.752C692.05 316.828 692.05 316.828 692.275 316.906C698.362 319.098 703.219 323.403 706.029 329.238C707.746 332.968 708.263 336.941 708.263 341.011C708.263 341.31 708.264 341.61 708.265 341.909C708.267 342.728 708.268 343.546 708.268 344.365C708.269 345.249 708.271 346.134 708.273 347.018C708.277 349.151 708.279 351.285 708.28 353.418C708.281 354.423 708.282 355.429 708.283 356.434C708.287 359.777 708.29 363.12 708.291 366.464C708.292 367.33 708.292 368.197 708.292 369.063C708.292 369.278 708.292 369.494 708.293 369.716C708.294 373.206 708.299 376.697 708.306 380.187C708.312 383.774 708.316 387.36 708.317 390.946C708.317 392.959 708.319 394.971 708.324 396.984C708.328 398.697 708.33 400.41 708.328 402.124C708.327 402.997 708.327 403.871 708.331 404.745C708.335 405.545 708.335 406.346 708.332 407.147C708.331 407.435 708.332 407.724 708.334 408.013C708.356 410.769 707.725 412.988 705.829 415.037C703.747 417.026 701.514 417.51 698.729 417.465C696.441 417.37 694.512 416.194 692.957 414.566C691.678 413.06 690.979 411.334 690.977 409.368C690.976 409.115 690.976 408.861 690.975 408.6C690.975 408.318 690.975 408.036 690.975 407.754C690.975 407.455 690.974 407.156 690.974 406.857C690.972 406.034 690.972 405.211 690.972 404.388C690.971 403.501 690.97 402.614 690.968 401.727C690.966 400.189 690.965 398.651 690.963 397.113C690.961 394.682 690.957 392.25 690.953 389.818C690.951 388.986 690.95 388.154 690.948 387.322C690.948 387.114 690.947 386.906 690.947 386.692C690.943 384.325 690.939 381.957 690.935 379.589C690.935 379.265 690.935 379.265 690.934 378.933C690.929 375.428 690.925 371.922 690.922 368.417C690.919 364.817 690.913 361.218 690.905 357.618C690.9 355.399 690.898 353.179 690.897 350.959C690.897 349.437 690.894 347.915 690.89 346.392C690.888 345.515 690.886 344.637 690.887 343.759C690.888 342.954 690.887 342.15 690.883 341.345C690.882 341.055 690.882 340.765 690.883 340.475C690.892 338.086 690.727 335.973 689.261 334.015C689 333.647 689 333.647 688.799 333.046C688.429 332.828 688.429 332.828 687.998 332.645C687.613 332.397 687.233 332.143 686.855 331.887C685.518 331.177 684.084 331.136 682.603 331.039C682.258 331.014 682.258 331.014 681.906 330.989C681.199 330.938 680.491 330.89 679.784 330.841C678.986 330.785 678.188 330.727 677.39 330.669C677.095 330.648 677.095 330.648 676.794 330.626C671.121 330.214 665.47 329.659 659.817 329.023C658.216 328.843 656.615 328.666 655.007 328.555C653.548 328.434 652.112 328.198 650.67 327.948C650.524 327.923 650.377 327.898 650.225 327.872C640.467 326.181 630.546 324.233 621.696 319.641C620.601 319.074 619.492 318.553 618.364 318.054C618.202 317.982 618.039 317.91 617.871 317.835C617.556 317.695 617.24 317.555 616.925 317.415C614.088 316.156 611.37 314.72 608.66 313.207C608.484 313.11 608.308 313.013 608.127 312.913C605.279 311.336 602.548 309.609 599.844 307.797C599.695 307.697 599.545 307.597 599.391 307.494C596.135 305.308 592.995 302.971 589.975 300.469C589.474 300.056 588.967 299.65 588.462 299.243C587.521 298.472 586.622 297.663 585.727 296.839C585.312 296.46 584.894 296.089 584.468 295.723C582.513 294.018 580.644 292.218 578.808 290.388C578.669 290.25 578.53 290.112 578.387 289.97C577.603 289.183 576.857 288.376 576.132 287.535C575.644 286.974 575.134 286.434 574.626 285.892C573.743 284.941 572.899 283.97 572.087 282.958C571.716 282.497 571.34 282.04 570.959 281.586C568.379 278.504 566.014 275.27 563.782 271.927C563.63 271.701 563.63 271.701 563.476 271.47C552.562 255.067 547.359 237.28 543.233 218.185C543.17 217.893 543.17 217.893 543.104 217.595C542.397 214.344 541.925 211.134 541.818 207.803C541.811 207.586 541.804 207.369 541.796 207.146C541.291 190.346 543.312 173.584 571.911 114.167C572.168 113.855 572.422 113.539 572.675 113.223C573.58 112.095 574.529 111.021 575.517 109.966C576.048 109.4 576.566 108.826 577.073 108.238C577.844 107.352 578.664 106.521 579.496 105.692C579.639 105.549 579.782 105.405 579.929 105.258C580.738 104.45 581.567 103.678 582.433 102.931C583.031 102.411 583.603 101.865 584.18 101.321C585.172 100.392 586.187 99.5096 587.247 98.6569C587.951 98.0874 588.647 97.5093 589.339 96.9254C589.461 96.8244 589.582 96.7233 589.708 96.6193C590.359 96.0799 590.359 96.0799 590.824 95.3859C591.056 94.9306 591.28 94.7329 591.686 94.4276C591.82 94.326 591.954 94.2245 592.092 94.1199C592.237 94.0125 592.382 93.905 592.532 93.7943C592.759 93.6234 592.759 93.6234 592.992 93.4491C593.471 93.0904 593.953 92.7345 594.435 92.3791C594.583 92.269 594.731 92.1589 594.884 92.0455C597.208 90.3215 599.598 88.7075 602.048 87.169C602.223 87.0581 602.397 86.9473 602.577 86.8331C602.839 86.6704 602.839 86.6704 603.106 86.5044C603.264 86.4061 603.421 86.3078 603.583 86.2065C604.079 85.9525 604.509 85.8729 605.053 85.7662C605.53 85.5455 605.53 85.5455 606.004 85.2614C606.186 85.1568 606.369 85.0522 606.556 84.9444C606.75 84.8313 606.945 84.7181 607.145 84.6015C607.559 84.3635 607.974 84.1258 608.389 83.8884C608.6 83.7673 608.811 83.6461 609.029 83.5214C610.694 82.5731 612.381 81.6625 614.069 80.7565C614.256 80.6553 614.256 80.6553 614.446 80.5519C618.681 78.2617 623.35 76.6985 627.893 75.1456C628.225 75.0318 628.225 75.0318 628.563 74.9157C641.173 70.6242 654.483 68.1902 667.763 67.3305C667.935 67.3189 668.108 67.3073 668.286 67.2954C683.833 66.2864 699.543 68.7992 730.873 80.9569Z" fill="#F7D22B"/>
<path d="M569.012 292.876C569.656 293.373 570.12 293.964 570.267 294.782C570.295 295.274 570.298 295.761 570.293 296.254C570.294 296.443 570.295 296.632 570.296 296.827C570.299 297.463 570.296 298.098 570.293 298.734C570.294 299.194 570.295 299.653 570.296 300.113C570.299 301.377 570.297 302.642 570.294 303.906C570.292 305.129 570.294 306.352 570.295 307.575C570.299 310.078 570.299 312.58 570.296 315.083C570.293 318.5 570.295 321.918 570.299 325.335C570.3 326.927 570.301 328.519 570.303 330.111C570.303 330.35 570.303 330.35 570.303 330.594C570.306 334.388 570.306 338.182 570.306 341.975C570.306 342.224 570.306 342.224 570.306 342.478C570.306 343.992 570.306 345.505 570.306 347.019C570.305 350.722 570.306 354.426 570.306 358.13C570.306 358.296 570.306 358.461 570.306 358.632C570.307 362.419 570.308 366.205 570.311 369.991C570.311 370.151 570.311 370.31 570.311 370.474C570.312 372.062 570.314 373.651 570.315 375.24C570.318 378.653 570.319 382.067 570.317 385.48C570.315 387.969 570.315 390.457 570.318 392.946C570.319 394.294 570.319 395.643 570.317 396.991C570.315 398.225 570.315 399.459 570.318 400.692C570.318 401.139 570.318 401.586 570.316 402.033C570.314 402.64 570.316 403.246 570.318 403.853C570.317 404.027 570.315 404.201 570.314 404.381C570.325 405.673 570.517 406.829 571.382 407.846C571.519 407.956 571.655 408.066 571.796 408.179C571.932 408.292 572.068 408.406 572.209 408.522C573.013 409.082 573.838 409.031 574.778 409.041C574.934 409.042 575.089 409.044 575.249 409.046C575.578 409.048 575.908 409.05 576.237 409.052C576.572 409.054 576.906 409.058 577.241 409.064C577.727 409.073 578.212 409.076 578.697 409.078C578.845 409.082 578.993 409.085 579.145 409.089C580.393 409.084 581.48 408.718 582.382 407.827C582.455 407.712 582.527 407.596 582.602 407.477C582.678 407.361 582.754 407.246 582.833 407.126C583.288 406.283 583.244 405.466 583.243 404.536C583.244 404.279 583.244 404.279 583.245 404.017C583.247 403.439 583.247 402.86 583.247 402.281C583.248 401.864 583.249 401.447 583.25 401.03C583.253 399.88 583.254 398.729 583.256 397.579C583.257 396.34 583.26 395.102 583.263 393.863C583.267 391.715 583.271 389.568 583.274 387.42C583.277 385.167 583.281 382.914 583.285 380.661C583.285 380.521 583.286 380.381 583.286 380.237C583.287 379.526 583.289 378.815 583.29 378.104C583.299 373.067 583.308 368.03 583.316 362.992C583.324 358.098 583.332 353.203 583.341 348.309C583.342 348.158 583.342 348.007 583.342 347.852C583.345 346.337 583.348 344.823 583.35 343.308C583.356 340.223 583.362 337.137 583.367 334.052C583.367 333.91 583.368 333.768 583.368 333.622C583.385 324.145 583.4 314.669 583.416 305.192C584.202 305.555 584.736 306.064 585.335 306.678C585.441 306.785 585.547 306.893 585.657 307.003C585.996 307.346 586.334 307.69 586.672 308.035C588.02 309.406 589.36 310.76 590.829 312.005C591.138 312.288 591.447 312.572 591.755 312.857C593.792 314.718 593.792 314.718 596.07 316.252C596.528 316.702 596.535 317.022 596.545 317.649C596.543 317.79 596.541 317.931 596.539 318.076C596.54 318.302 596.54 318.302 596.542 318.533C596.545 319.042 596.541 319.551 596.538 320.061C596.539 320.428 596.54 320.795 596.542 321.162C596.545 322.175 596.543 323.187 596.54 324.199C596.537 325.29 596.54 326.38 596.542 327.471C596.544 329.361 596.544 331.252 596.542 333.143C596.539 335.878 596.541 338.614 596.544 341.349C596.55 345.79 596.552 350.23 596.552 354.67C596.552 354.869 596.552 354.869 596.552 355.073C596.552 356.284 596.551 357.496 596.551 358.708C596.551 361.672 596.551 364.636 596.552 367.6C596.552 367.799 596.552 367.799 596.552 368.002C596.553 372.558 596.556 377.114 596.561 381.67C596.564 384.399 596.564 387.127 596.562 389.856C596.561 391.726 596.561 393.596 596.564 395.466C596.565 396.545 596.565 397.625 596.563 398.704C596.56 399.692 596.561 400.68 596.564 401.668C596.564 402.025 596.564 402.383 596.562 402.74C596.56 403.226 596.562 403.712 596.564 404.198C596.562 404.406 596.562 404.406 596.56 404.619C596.573 405.815 596.84 406.92 597.628 407.846C597.764 407.956 597.901 408.066 598.041 408.179C598.246 408.349 598.246 408.349 598.455 408.522C599.259 409.082 600.084 409.031 601.024 409.041C601.179 409.042 601.335 409.044 601.495 409.046C601.824 409.048 602.153 409.05 602.483 409.052C602.817 409.054 603.152 409.058 603.487 409.064C603.972 409.073 604.458 409.076 604.943 409.078C605.091 409.082 605.238 409.085 605.39 409.089C606.497 409.084 607.331 408.797 608.259 408.191C609.258 407.166 609.511 406.222 609.514 404.812C609.515 404.608 609.515 404.608 609.516 404.399C609.518 403.94 609.518 403.482 609.517 403.024C609.518 402.692 609.519 402.361 609.521 402.03C609.524 401.118 609.524 400.206 609.525 399.295C609.525 398.312 609.528 397.329 609.531 396.346C609.536 394.643 609.539 392.94 609.541 391.237C609.544 388.775 609.549 386.312 609.554 383.85C609.563 379.855 609.571 375.861 609.577 371.866C609.583 367.985 609.59 364.104 609.598 360.223C609.598 359.984 609.599 359.745 609.599 359.498C609.602 358.299 609.604 357.099 609.607 355.899C609.628 345.943 609.646 335.988 609.662 326.032C610.364 326.307 611.006 326.61 611.66 326.987C611.854 327.098 612.048 327.209 612.248 327.323C612.561 327.503 612.561 327.503 612.88 327.685C614.795 328.771 616.732 329.798 618.702 330.779C618.938 330.897 619.174 331.014 619.418 331.136C620.279 331.561 621.136 331.985 622.02 332.362C622.239 332.455 622.458 332.549 622.684 332.645C622.684 332.799 622.685 332.952 622.685 333.111C622.697 342.217 622.711 351.323 622.73 360.43C622.732 361.523 622.735 362.616 622.737 363.71C622.737 364.036 622.737 364.036 622.738 364.369C622.745 367.894 622.75 371.419 622.754 374.943C622.759 378.56 622.765 382.176 622.774 385.793C622.779 388.025 622.783 390.256 622.784 392.488C622.785 394.018 622.789 395.548 622.794 397.079C622.796 397.962 622.798 398.845 622.797 399.727C622.797 400.536 622.799 401.345 622.803 402.154C622.804 402.446 622.804 402.738 622.803 403.03C622.767 405.572 622.767 405.572 623.823 407.815C623.939 407.902 624.055 407.989 624.174 408.079C624.29 408.169 624.405 408.26 624.524 408.353C625.448 408.96 626.189 409.057 627.289 409.06C627.444 409.062 627.599 409.063 627.759 409.064C628.087 409.066 628.415 409.067 628.743 409.067C629.241 409.068 629.739 409.075 630.236 409.083C630.556 409.084 630.876 409.085 631.196 409.085C631.416 409.09 631.416 409.09 631.641 409.094C632.743 409.084 633.582 408.797 634.505 408.191C635.395 407.254 635.757 406.508 635.759 405.219C635.761 404.979 635.762 404.738 635.764 404.491C635.763 404.226 635.763 403.962 635.763 403.69C635.764 403.406 635.765 403.123 635.766 402.84C635.769 402.06 635.77 401.28 635.77 400.501C635.771 399.661 635.774 398.82 635.777 397.98C635.781 396.524 635.784 395.067 635.786 393.611C635.789 391.506 635.794 389.4 635.8 387.295C635.809 383.879 635.817 380.463 635.823 377.047C635.829 373.728 635.836 370.41 635.844 367.091C635.844 366.887 635.845 366.682 635.845 366.472C635.848 365.446 635.85 364.42 635.853 363.394C635.873 354.881 635.891 346.368 635.907 337.855C636.292 337.951 636.678 338.047 637.063 338.143C637.277 338.197 637.492 338.25 637.713 338.305C638.372 338.471 639.029 338.645 639.685 338.823C639.923 338.888 640.161 338.952 640.406 339.018C640.653 339.085 640.9 339.151 641.154 339.22C643.868 339.951 646.594 340.619 649.331 341.262C650.118 348.334 650.839 355.414 651.542 362.495C651.658 363.666 651.776 364.837 651.893 366.007C652.009 367.164 652.125 368.321 652.239 369.477C652.307 370.157 652.374 370.836 652.443 371.515C652.725 374.323 652.979 377.131 653.169 379.947C653.194 380.31 653.194 380.31 653.219 380.679C653.374 383.095 653.409 385.507 653.4 387.927C653.4 388.153 653.399 388.38 653.399 388.613C653.35 404.917 650 421.035 635.355 454.625C635.069 455.15 634.787 455.679 634.506 456.207C633.085 458.865 631.593 461.475 630.064 464.073C629.413 465.184 628.773 466.302 628.131 467.419C627.356 468.765 626.581 470.11 625.777 471.439C620.549 479.563 620.549 479.563 617.275 488.547C617.243 488.703 617.211 488.86 617.178 489.021C615.423 497.904 615.189 507.154 614.846 516.176C614.838 516.377 614.83 516.579 614.822 516.787C614.769 518.192 614.725 519.597 614.683 521.003C614.674 521.275 614.666 521.548 614.658 521.821C614.465 528.106 614.443 534.387 614.45 540.675C614.451 541.901 614.451 543.126 614.451 544.351C614.452 546.771 614.453 549.19 614.455 551.609C614.457 553.952 614.458 556.295 614.459 558.638C614.459 558.786 614.459 558.933 614.459 559.084C614.46 560.365 614.46 561.645 614.46 562.926C614.462 568.392 614.466 573.857 614.47 579.323C606.999 579.323 599.528 579.323 591.831 579.323C591.833 576.314 591.835 573.305 591.838 570.205C591.839 568.275 591.84 566.344 591.84 564.414C591.841 561.364 591.843 558.314 591.846 555.264C591.884 540.183 591.884 540.183 591.643 525.105C591.631 524.635 591.619 524.164 591.607 523.694C591.565 522.014 591.515 520.335 591.455 518.656C591.447 518.418 591.438 518.18 591.43 517.935C590.86 495.92 590.86 495.92 582.98 475.74C582.351 474.676 581.739 473.601 581.124 472.529C580.134 470.805 579.123 469.095 578.094 467.394C576.751 465.171 575.475 462.915 574.219 460.642C573.891 460.052 573.556 459.467 573.22 458.882C571.628 456.101 570.141 453.28 568.715 450.411C568.607 450.193 568.499 449.976 568.387 449.753C563.262 439.445 559.147 428.789 556.369 417.61C556.311 417.382 556.254 417.155 556.194 416.921C552.994 404.206 552.063 390.734 553.226 377.688C553.253 377.384 553.28 377.08 553.306 376.777C553.598 373.465 553.923 370.157 554.253 366.85C554.305 366.326 554.358 365.801 554.41 365.277C554.594 363.418 554.78 361.559 554.965 359.7C555.115 358.202 555.264 356.705 555.412 355.207C556.199 347.243 557.013 339.283 557.932 331.333C557.95 331.173 557.969 331.012 557.988 330.847C560.652 307.749 560.652 307.749 563.381 296.976C563.426 296.795 563.47 296.614 563.516 296.428C563.931 294.776 564.265 293.497 565.785 292.567C566.994 292.164 567.898 292.345 569.012 292.876Z" fill="#131212"/>
<path d="M203.301 71.1111C203.461 71.1106 203.62 71.1102 203.785 71.1097C204.321 71.1084 204.857 71.1086 205.393 71.1088C205.777 71.1082 206.16 71.1075 206.544 71.1067C207.588 71.105 208.631 71.1045 209.675 71.1044C210.545 71.1042 211.415 71.1034 212.286 71.1027C214.339 71.1011 216.391 71.1006 218.444 71.1007C220.564 71.1009 222.683 71.0987 224.803 71.0956C226.621 71.093 228.44 71.0919 230.258 71.092C231.344 71.0921 232.431 71.0915 233.518 71.0894C234.539 71.0874 235.561 71.0874 236.583 71.0889C236.958 71.0891 237.334 71.0886 237.709 71.0874C238.221 71.0859 238.732 71.0868 239.244 71.0883C239.393 71.0873 239.542 71.0863 239.696 71.0852C240.431 71.0901 241.009 71.1064 241.621 71.5386C241.945 72.1867 241.849 72.8963 241.847 73.6083C241.848 73.8721 241.848 73.8721 241.848 74.1412C241.849 74.7382 241.849 75.3353 241.848 75.9323C241.849 76.3634 241.849 76.7945 241.85 77.2256C241.852 78.4207 241.852 79.6159 241.852 80.811C241.852 82.1072 241.853 83.4035 241.855 84.6997C241.857 86.9751 241.858 89.2504 241.858 91.5257C241.859 93.9681 241.86 96.4106 241.862 98.853C241.862 99.084 241.862 99.084 241.862 99.3198C241.863 99.9471 241.863 100.574 241.864 101.202C241.869 108.813 241.872 116.423 241.875 124.034C241.876 126.501 241.876 128.969 241.877 131.436C241.882 144.355 241.887 157.274 241.889 170.194C241.889 171.14 241.89 172.085 241.89 173.031C241.89 173.313 241.89 173.313 241.89 173.6C241.89 175.501 241.891 177.402 241.891 179.304C241.891 179.685 241.891 180.066 241.891 180.447C241.894 192.694 241.9 204.94 241.908 217.187C241.914 225.984 241.92 234.782 241.921 243.58C241.922 243.851 241.922 243.851 241.922 244.128C241.922 248.097 241.923 252.066 241.923 256.035C241.924 257.632 241.924 259.229 241.924 260.826C241.924 261.001 241.924 261.176 241.924 261.356C241.925 266.991 241.928 272.627 241.934 278.263C241.939 283.938 241.941 289.612 241.939 295.287C241.939 296.07 241.938 296.853 241.938 297.637C241.938 297.79 241.938 297.944 241.938 298.102C241.937 300.538 241.94 302.974 241.944 305.41C241.948 307.803 241.948 310.196 241.945 312.589C241.943 313.87 241.943 315.151 241.947 316.432C241.951 317.595 241.95 318.759 241.946 319.923C241.945 320.343 241.946 320.763 241.949 321.183C241.952 321.75 241.95 322.318 241.946 322.885C241.948 323.049 241.951 323.213 241.953 323.382C241.94 324.192 241.857 324.582 241.358 325.231C240.652 325.755 240.069 325.771 239.222 325.757C238.983 325.759 238.983 325.759 238.738 325.761C238.204 325.765 237.67 325.761 237.135 325.758C236.752 325.759 236.368 325.76 235.985 325.762C234.944 325.766 233.903 325.763 232.862 325.759C231.773 325.756 230.683 325.758 229.594 325.759C227.765 325.76 225.936 325.756 224.107 325.751C221.992 325.744 219.877 325.744 217.762 325.748C215.728 325.751 213.694 325.75 211.66 325.746C210.794 325.745 209.928 325.745 209.062 325.747C208.042 325.748 207.023 325.746 206.003 325.74C205.629 325.739 205.254 325.739 204.88 325.74C204.369 325.742 203.859 325.739 203.348 325.734C203.2 325.736 203.051 325.738 202.898 325.739C202.239 325.729 201.791 325.654 201.213 325.332C200.568 324.633 200.611 324.013 200.625 323.109C200.623 322.933 200.622 322.756 200.621 322.574C200.617 321.977 200.621 321.38 200.625 320.783C200.624 320.351 200.623 319.919 200.621 319.487C200.618 318.291 200.621 317.095 200.625 315.9C200.628 314.602 200.625 313.304 200.623 312.007C200.62 309.729 200.621 307.452 200.625 305.175C200.628 302.731 200.63 300.286 200.629 297.842C200.629 297.688 200.629 297.534 200.629 297.375C200.628 296.589 200.628 295.802 200.628 295.016C200.625 289.32 200.627 283.625 200.631 277.929C200.636 272.287 200.639 266.645 200.639 261.003C200.639 260.649 200.639 260.295 200.639 259.941C200.639 258.518 200.639 257.096 200.639 255.673C200.639 251.697 200.639 247.72 200.64 243.744C200.64 243.562 200.64 243.381 200.64 243.195C200.641 234.191 200.647 225.187 200.652 216.184C200.66 204.118 200.664 192.053 200.664 179.987C200.664 179.606 200.664 179.224 200.664 178.843C200.664 178.081 200.664 177.319 200.664 176.558C200.665 174.849 200.665 173.141 200.665 171.433C200.665 171.055 200.665 170.677 200.665 170.298C200.665 160.199 200.668 150.099 200.671 139.999C200.671 139.823 200.671 139.647 200.671 139.465C200.672 137.87 200.672 136.275 200.673 134.68C200.674 130.8 200.675 126.92 200.676 123.04C200.676 122.865 200.676 122.69 200.676 122.51C200.676 121.804 200.676 121.099 200.676 120.393C200.677 113.855 200.68 107.317 200.684 100.779C200.685 100.153 200.685 99.5266 200.686 98.9006C200.686 98.747 200.686 98.5934 200.686 98.4351C200.688 95.9968 200.688 93.5585 200.688 91.1201C200.688 88.7259 200.69 86.3317 200.692 83.9375C200.694 82.6553 200.695 81.3732 200.694 80.091C200.693 78.9269 200.694 77.7628 200.697 76.5987C200.697 76.178 200.697 75.7573 200.696 75.3366C200.695 74.7693 200.697 74.202 200.699 73.6347C200.698 73.4696 200.697 73.3045 200.696 73.1344C200.701 72.3627 200.712 71.9957 201.15 71.3383C201.878 71.0956 202.544 71.1095 203.301 71.1111Z" fill="#111617"/>
<path d="M741.491 117.628C741.698 117.803 741.698 117.803 741.908 117.982C742.313 118.326 742.716 118.672 743.119 119.018C743.237 119.12 743.356 119.222 743.478 119.326C744.207 119.959 744.895 120.62 745.57 121.311C745.909 121.645 746.261 121.955 746.625 122.262C748.242 123.658 749.767 125.202 751.149 126.83C751.523 127.263 751.909 127.683 752.298 128.102C753.423 129.314 754.482 130.564 755.516 131.856C755.7 132.082 755.885 132.309 756.07 132.535C760.145 137.54 763.602 142.97 766.685 148.631C766.847 148.927 767.01 149.222 767.174 149.517C775.073 163.701 779.009 180.407 779.357 196.581C779.362 196.761 779.366 196.941 779.37 197.127C779.649 210.253 777.303 223.112 772.946 235.456C772.873 235.665 772.799 235.874 772.724 236.089C769.865 244.146 765.796 251.89 760.925 258.902C760.832 259.037 760.739 259.172 760.643 259.311C759.269 261.302 757.837 263.232 756.317 265.114C756.167 265.3 756.017 265.487 755.863 265.679C755.417 266.229 754.967 266.775 754.514 267.318C754.427 267.422 754.34 267.527 754.251 267.634C752.028 270.289 749.656 272.793 747.214 275.246C747.067 275.394 746.92 275.542 746.769 275.694C745.954 276.506 745.12 277.283 744.249 278.034C743.814 278.41 743.392 278.801 742.969 279.191C741.959 280.103 740.9 280.938 739.826 281.771C739.336 282.151 738.852 282.537 738.373 282.931C736.56 284.417 734.671 285.756 732.722 287.058C732.323 287.325 731.928 287.595 731.534 287.868C724.626 292.62 716.904 296.332 709.035 299.18C708.808 299.262 708.582 299.345 708.348 299.43C691.128 305.618 672.023 307.107 628.094 295.573C627.16 295.132 626.239 294.671 625.323 294.195C624.82 293.934 624.315 293.678 623.81 293.421C620.155 291.552 616.646 289.489 613.268 287.157C613.136 287.066 613.003 286.975 612.867 286.882C609.105 284.292 605.526 281.471 602.151 278.393C601.882 278.15 601.612 277.909 601.335 277.675C599.993 276.535 598.761 275.282 597.519 274.036C597.128 273.644 596.737 273.253 596.345 272.863C595.132 271.65 593.936 270.437 592.832 269.122C592.642 268.905 592.452 268.688 592.261 268.471C579.653 254.014 571.207 235.885 566.549 199.136C566.549 198.933 566.549 198.73 566.55 198.521C566.583 181.719 570.694 165.486 578.207 150.492C578.304 150.297 578.401 150.102 578.501 149.902C581.932 143.059 586.326 136.719 591.23 130.854C591.377 130.676 591.377 130.676 591.528 130.495C593.795 127.778 596.234 125.232 598.73 122.725C598.896 122.559 599.062 122.392 599.233 122.22C600.206 121.249 601.205 120.325 602.249 119.432C602.487 119.222 602.726 119.012 602.964 118.802C606.891 115.358 611.08 112.239 615.472 109.412C615.631 109.309 615.791 109.206 615.955 109.1C632.084 98.7392 651.025 93.0619 741.491 117.628ZM661.151 108.009C660.78 108.061 660.78 108.061 660.402 108.114C654.785 108.921 649.309 110.245 643.921 112.017C643.749 112.073 643.576 112.129 643.398 112.186C633.007 115.552 622.912 121.171 614.656 128.343C614.078 128.842 613.488 129.323 612.892 129.802C612.148 130.407 611.46 131.035 610.793 131.725C610.459 132.06 610.111 132.364 609.749 132.67C608.047 134.139 606.43 135.77 604.978 137.487C604.597 137.933 604.199 138.362 603.801 138.794C602.778 139.929 601.844 141.125 600.912 142.334C600.674 142.64 600.431 142.943 600.187 143.245C597.503 146.613 595.12 150.334 593.033 154.099C592.875 154.38 592.875 154.38 592.714 154.667C585.442 167.67 581.572 182.296 581.212 197.182C581.208 197.33 581.203 197.477 581.199 197.629C580.722 215.126 585.896 232.929 602.249 257.299C602.338 257.405 602.427 257.511 602.519 257.62C604.586 260.075 606.746 262.414 609.011 264.688C609.169 264.848 609.328 265.008 609.491 265.172C610.451 266.129 611.438 267.038 612.467 267.919C612.677 268.105 612.886 268.291 613.096 268.477C615.069 270.211 617.155 271.783 619.278 273.33C619.526 273.511 619.526 273.511 619.778 273.695C622.323 275.545 624.954 277.195 627.693 278.74C627.983 278.904 627.983 278.904 628.279 279.072C648.026 290.172 671.178 293.311 697.41 287.448C703.475 285.733 709.221 283.374 714.845 280.544C715.025 280.454 715.206 280.365 715.391 280.272C721.263 277.35 726.652 273.521 731.674 269.322C731.777 269.236 731.881 269.15 731.987 269.061C734.984 266.558 737.964 263.908 740.51 260.941C740.944 260.444 741.393 259.962 741.842 259.478C742.891 258.326 743.852 257.117 744.801 255.881C745.109 255.481 745.42 255.083 745.731 254.686C759.44 237.113 765.376 215.335 764.138 188.879C764.07 188.373 764.001 187.868 763.93 187.363C763.901 187.154 763.901 187.154 763.871 186.94C762.626 178.067 760.249 169.472 756.517 161.313C756.422 161.104 756.327 160.895 756.23 160.68C753.217 154.11 749.439 147.906 744.897 142.276C744.741 142.08 744.584 141.883 744.423 141.681C743.986 141.139 743.542 140.605 743.094 140.072C743.004 139.964 742.915 139.856 742.823 139.746C741.636 138.321 740.421 136.952 739.089 135.662C738.503 135.093 737.993 134.497 737.484 133.86C737.244 133.635 736.998 133.418 736.745 133.208C736.138 132.691 735.573 132.152 735.017 131.58C734.211 130.764 733.356 130.04 732.46 129.323C731.96 128.919 731.471 128.503 730.986 128.081C726.622 124.308 721.699 121.19 716.648 118.43C716.469 118.331 716.291 118.233 716.107 118.132C706.461 112.848 695.695 109.433 684.792 108.009C684.573 107.979 684.354 107.949 684.128 107.919C676.608 106.93 668.661 106.953 661.151 108.009Z" fill="#F7D22B"/>
<path d="M683.991 116.025C684.231 116.06 684.472 116.096 684.72 116.132C700.025 118.452 714.193 124.734 726.064 134.661C726.175 134.754 726.286 134.846 726.4 134.941C727.807 136.119 729.163 137.314 730.435 138.638C730.871 139.083 730.871 139.083 731.387 139.479C731.835 139.839 732.183 140.195 732.551 140.635C732.999 141.161 733.455 141.659 733.953 142.138C734.696 142.87 735.342 143.668 735.994 144.481C736.408 144.99 736.832 145.487 737.262 145.982C747.08 157.329 753.004 172.22 755.115 186.962C755.148 187.19 755.181 187.417 755.215 187.652C756.215 194.889 756.155 202.581 755.115 209.807C755.087 210.017 755.059 210.227 755.03 210.443C753.644 220.82 750.09 231.279 744.697 240.266C744.529 240.546 744.529 240.546 744.357 240.832C742.873 243.291 741.333 245.674 739.559 247.933C739.295 248.272 739.036 248.613 738.778 248.957C736.333 252.206 733.588 255.196 730.722 258.075C730.583 258.216 730.443 258.357 730.299 258.501C729.388 259.41 728.445 260.27 727.467 261.106C727.359 261.2 727.25 261.294 727.139 261.39C712.109 274.375 692.772 281.579 672.909 281.596C672.761 281.596 672.614 281.596 672.461 281.596C665.175 281.586 657.973 280.63 650.934 278.74C650.611 278.654 650.611 278.654 650.282 278.566C638.93 275.476 628.48 269.852 619.479 262.309C619.353 262.203 619.227 262.098 619.097 261.99C617.767 260.878 616.483 259.749 615.275 258.504C614.88 258.109 614.47 257.747 614.044 257.387C613.364 256.803 612.786 256.17 612.208 255.487C611.883 255.115 611.545 254.773 611.189 254.431C610.364 253.616 609.65 252.72 608.925 251.816C608.642 251.465 608.354 251.119 608.064 250.774C601.705 243.136 596.967 234.249 593.834 224.836C593.771 224.648 593.709 224.46 593.644 224.267C591.609 218.081 590.379 211.682 589.827 205.198C589.805 204.948 589.782 204.697 589.759 204.439C588.358 185.576 593.561 166.359 608.238 145.903C608.708 145.358 609.184 144.818 609.662 144.28C609.9 144.004 610.138 143.729 610.375 143.453C612.723 140.79 615.146 138.141 617.876 135.863C618.059 135.705 618.242 135.546 618.431 135.383C623.043 131.397 628.122 127.908 633.503 125.042C633.688 124.944 633.873 124.845 634.063 124.744C642.581 120.253 651.828 117.369 661.352 116.025C661.579 115.992 661.806 115.959 662.04 115.926C669.195 114.942 676.848 114.955 683.991 116.025ZM662.353 130.453C662.141 130.487 661.929 130.522 661.711 130.557C658.456 131.096 655.286 131.882 652.136 132.858C651.947 132.916 651.757 132.975 651.563 133.035C644.879 135.146 638.572 138.365 632.902 142.476C632.725 142.604 632.725 142.604 632.543 142.735C630.41 144.284 628.399 145.958 626.47 147.752C625.958 148.224 625.438 148.682 624.913 149.139C622.846 150.997 620.987 153.113 619.278 155.301C619.181 155.426 619.083 155.55 618.982 155.678C617.45 157.631 616.001 159.618 614.67 161.714C614.46 162.043 614.46 162.043 614.245 162.379C604.699 177.621 601.839 196.211 605.688 213.691C608.251 224.829 613.53 235.101 621.082 243.672C621.329 243.954 621.329 243.954 621.582 244.242C623.91 246.829 626.34 249.355 629.096 251.488C629.314 251.668 629.532 251.849 629.749 252.03C632.833 254.587 636.219 256.751 639.714 258.702C639.859 258.783 640.004 258.865 640.153 258.949C647.592 263.102 655.933 265.61 664.357 266.717C664.537 266.741 664.716 266.765 664.902 266.789C682.302 268.962 700.465 263.762 714.32 253.104C714.494 252.967 714.667 252.831 714.845 252.69C715.026 252.547 715.207 252.404 715.394 252.257C716.607 251.283 717.757 250.253 718.896 249.196C719.354 248.773 719.818 248.362 720.292 247.956C721.573 246.841 722.76 245.629 723.863 244.339C724.169 243.981 724.479 243.627 724.791 243.276C736.495 230.007 742.311 212.062 741.378 194.474C740.25 176.451 732.014 159.261 718.532 147.2C718.088 146.82 717.632 146.456 717.172 146.095C716.608 145.651 716.066 145.186 715.521 144.718C704.657 135.679 689.747 129.877 675.564 129.811C675.257 129.809 675.257 129.809 674.944 129.807C674.286 129.803 673.629 129.802 672.972 129.802C672.747 129.802 672.523 129.801 672.291 129.801C668.939 129.804 665.666 129.894 662.353 130.453Z" fill="#F7D22B"/>
<path d="M671.619 136.043C672.473 136.007 673.321 136.024 674.174 136.064C674.466 136.076 674.466 136.076 674.764 136.089C680.151 136.335 685.431 137.125 690.603 138.669C690.778 138.721 690.953 138.773 691.133 138.827C698.586 141.089 705.744 144.838 711.73 149.833C712.04 150.091 712.355 150.345 712.67 150.598C714.273 151.909 715.745 153.354 717.211 154.813C717.358 154.958 717.358 154.958 717.508 155.106C718.85 156.437 720.086 157.824 721.256 159.309C721.399 159.487 721.399 159.487 721.545 159.668C728.247 168 732.511 178.053 734.279 188.566C734.312 188.756 734.345 188.946 734.379 189.141C735.41 195.323 735.373 202.236 734.279 208.404C734.227 208.699 734.227 208.699 734.174 209.001C732.51 218.235 728.982 227.048 723.46 234.655C723.363 234.79 723.266 234.925 723.166 235.064C721.977 236.712 720.738 238.271 719.341 239.747C718.939 240.174 718.554 240.607 718.176 241.055C716.676 242.783 715.01 244.424 713.242 245.877C713.142 245.96 713.041 246.043 712.937 246.129C710.185 248.401 707.315 250.49 704.216 252.265C703.95 252.418 703.684 252.573 703.419 252.729C696.054 257.056 687.651 259.587 679.183 260.505C679.028 260.524 678.873 260.543 678.713 260.562C668.028 261.73 657.143 259.715 647.327 255.495C647.088 255.393 647.088 255.393 646.845 255.288C641.876 253.12 637.273 250.129 633.102 246.678C632.987 246.583 632.872 246.489 632.753 246.391C629.742 243.902 626.873 241.16 624.487 238.062C624.298 237.829 624.108 237.598 623.918 237.366C622.521 235.664 621.255 233.912 620.08 232.05C620.006 231.934 619.933 231.819 619.857 231.7C614.172 222.7 610.502 211.917 610.415 201.206C610.413 201.003 610.411 200.801 610.409 200.592C610.282 184.102 615.349 167.958 627.054 155.916C627.53 155.439 628.011 154.968 628.494 154.5C628.985 154.012 629.473 153.522 629.955 153.025C631.136 151.815 632.37 150.728 633.704 149.69C633.821 149.599 633.938 149.507 634.059 149.413C645.037 140.893 657.798 136.689 671.619 136.043ZM639.514 164.319C639.407 164.419 639.301 164.52 639.192 164.624C637.529 166.209 636.072 167.883 634.705 169.729C634.619 169.844 634.533 169.959 634.445 170.077C631.18 174.459 628.706 179.334 627.092 184.558C627.045 184.704 626.999 184.851 626.951 185.002C625.604 189.28 625.042 193.735 625.038 198.209C625.038 198.349 625.038 198.489 625.038 198.633C625.054 209.401 628.743 220.174 635.707 228.443C635.804 228.56 635.901 228.677 636 228.797C637.822 230.996 639.73 233.039 641.973 234.821C642.329 235.105 642.681 235.395 643.028 235.691C651.912 243.262 664.315 246.811 675.849 246.032C678.962 245.78 681.974 245.265 684.993 244.474C685.139 244.437 685.284 244.401 685.435 244.363C697.308 241.361 707.555 232.912 713.762 222.509C720.153 211.618 721.882 198.651 718.794 186.421C717.08 179.972 714.083 173.885 709.836 168.727C709.746 168.617 709.657 168.507 709.564 168.394C707.376 165.722 704.978 163.204 702.223 161.112C702.109 161.026 701.996 160.939 701.879 160.85C694.87 155.522 686.906 152.243 678.181 151.093C677.95 151.062 677.95 151.062 677.715 151.03C663.672 149.379 649.625 154.625 639.514 164.319Z" fill="#F7D22B"/>
<path d="M679.383 157.505C679.555 157.536 679.727 157.566 679.904 157.597C687.361 158.959 694.101 162.155 699.819 167.124C699.928 167.219 700.038 167.314 700.151 167.411C707.343 173.675 712.105 182.36 713.643 191.772C713.687 192.024 713.732 192.277 713.778 192.537C715.062 201.192 713.413 210.361 709.235 218.023C709.171 218.142 709.107 218.262 709.041 218.385C707.495 221.266 705.566 223.78 703.425 226.239C703.295 226.394 703.165 226.549 703.03 226.708C702.352 227.511 701.635 228.214 700.833 228.892C700.565 229.121 700.301 229.356 700.044 229.597C692.625 236.524 682.061 240.076 672.001 239.902C660.905 239.467 651.32 235.289 643.32 227.641C643.117 227.45 643.117 227.45 642.909 227.255C640.029 224.481 637.735 220.958 635.907 217.422C635.832 217.276 635.756 217.131 635.678 216.982C632.891 211.573 631.556 205.643 631.299 199.587C631.286 199.302 631.286 199.302 631.273 199.012C631.044 188.458 635.095 177.978 642.34 170.328C642.434 170.231 642.528 170.134 642.624 170.035C642.829 169.823 643.032 169.61 643.234 169.396C649.349 162.916 657.467 159.093 666.16 157.505C666.303 157.479 666.446 157.452 666.594 157.425C670.656 156.709 675.327 156.79 679.383 157.505ZM653.939 179.147C653.774 179.299 653.609 179.451 653.439 179.608C649.237 183.614 646.84 189.11 645.925 194.778C645.895 194.963 645.864 195.149 645.833 195.34C645.772 195.823 645.742 196.295 645.724 196.782C645.714 197.022 645.704 197.263 645.693 197.51C645.48 204.908 648.288 211.747 653.271 217.141C658.089 222.097 664.699 225.29 671.664 225.471C679.592 225.551 686.422 222.743 692.093 217.221C695.51 213.79 697.842 209.492 699.017 204.797C699.081 204.549 699.144 204.302 699.21 204.046C700.745 197.324 699.246 189.964 695.674 184.132C694.668 182.541 693.479 181.13 692.205 179.749C692.068 179.597 691.93 179.445 691.788 179.288C687.594 174.873 681.102 171.768 675.001 171.508C666.814 171.308 659.97 173.444 653.939 179.147Z" fill="#F7D22B"/>
<path d="M1.4653 389.529C1.69262 389.529 1.91995 389.528 2.15417 389.527C2.52542 389.528 2.52542 389.528 2.90418 389.529C3.15642 389.528 3.40867 389.528 3.66855 389.528C4.20331 389.528 4.73805 389.528 5.27281 389.529C5.95889 389.53 6.64497 389.53 7.33105 389.528C7.98414 389.527 8.63722 389.528 9.2903 389.529C9.5374 389.528 9.7845 389.528 10.0391 389.527C10.381 389.528 10.381 389.528 10.7299 389.529C10.9312 389.529 11.1326 389.53 11.3401 389.53C11.8205 389.555 11.8205 389.555 12.2212 389.756C12.2873 392.599 12.3534 395.443 12.4215 398.372C12.9546 397.963 13.4876 397.554 14.0368 397.132C22.1517 391.075 31.9107 388.365 41.9988 389.806C50.7068 391.225 58.916 395.687 64.5122 402.58C64.6924 402.794 64.8727 403.007 65.053 403.22C69.8328 408.945 72.9271 416.131 72.9676 423.657C72.9687 423.828 72.9699 423.999 72.971 424.175C72.9729 424.535 72.9742 424.895 72.975 425.255C72.9769 425.792 72.9832 426.329 72.9895 426.867C73.0086 429.954 72.6806 432.967 71.7874 435.933C71.7365 436.105 71.6856 436.278 71.6331 436.455C70.3772 440.584 68.6094 444.29 65.9147 447.668C65.7206 447.92 65.7206 447.92 65.5226 448.177C64.4572 449.544 63.2974 450.818 62.108 452.076C61.9472 452.248 61.7863 452.42 61.6205 452.597C59.52 454.774 57.0898 456.547 54.4948 458.088C54.3779 458.157 54.2611 458.227 54.1407 458.299C51.4725 459.858 48.6172 460.892 45.6294 461.657C45.4027 461.716 45.4027 461.716 45.1714 461.776C42.5091 462.419 39.869 462.567 37.1436 462.56C36.617 462.559 36.0907 462.564 35.5642 462.569C32.5095 462.581 29.5076 462.244 26.5712 461.369C26.3126 461.293 26.3126 461.293 26.0489 461.216C21.6578 459.872 17.6199 457.729 14.0243 454.882C13.7463 454.672 13.4677 454.462 13.1886 454.254C13.0448 454.146 12.901 454.038 12.7529 453.927C12.5889 453.805 12.5889 453.805 12.4215 453.679C12.4207 453.829 12.4198 453.979 12.419 454.133C12.3983 457.767 12.3765 461.401 12.3535 465.035C12.3425 466.792 12.3317 468.549 12.3219 470.307C12.3133 471.838 12.304 473.369 12.2939 474.9C12.2886 475.711 12.2836 476.522 12.2795 477.334C12.2756 478.096 12.2707 478.859 12.2652 479.622C12.2633 479.902 12.2617 480.183 12.2606 480.464C12.2589 480.845 12.2559 481.227 12.2529 481.609C12.2516 481.823 12.2503 482.037 12.249 482.257C12.2212 482.736 12.2212 482.736 12.0208 482.936C11.6592 482.956 11.2968 482.962 10.9346 482.962C10.5866 482.963 10.5866 482.963 10.2316 482.964C9.85281 482.963 9.85281 482.963 9.46639 482.963C9.20922 482.963 8.95206 482.963 8.6871 482.963C8.14207 482.964 7.59705 482.963 7.05203 482.962C6.352 482.961 5.65198 482.962 4.95195 482.963C4.28631 482.964 3.62068 482.963 2.95505 482.963C2.70253 482.963 2.45002 482.964 2.18985 482.964C1.95787 482.963 1.72588 482.963 1.48687 482.962C1.28149 482.962 1.0761 482.962 0.864496 482.962C0.400602 482.936 0.400602 482.936 0.200254 482.736C0.179739 482.457 0.173045 482.177 0.171913 481.897C0.170692 481.715 0.169472 481.533 0.168215 481.345C0.167882 481.143 0.167549 480.94 0.167207 480.731C0.166075 480.517 0.164944 480.304 0.163779 480.083C0.160204 479.359 0.158076 478.635 0.155938 477.91C0.153696 477.391 0.151371 476.872 0.14897 476.354C0.143245 475.078 0.138634 473.802 0.134403 472.527C0.130898 471.476 0.126983 470.426 0.122793 469.375C0.122194 469.225 0.121595 469.074 0.120978 468.919C0.120376 468.768 0.119774 468.617 0.119153 468.461C0.104275 464.724 0.0918398 460.987 0.0799276 457.25C0.0761691 456.075 0.0722512 454.9 0.0682381 453.725C0.0116431 437.152 -0.0317686 420.579 0.0716576 404.005C0.0750525 403.454 0.0783166 402.904 0.0815395 402.353C0.0944521 400.156 0.109185 397.958 0.126384 395.76C0.129775 395.314 0.132864 394.868 0.135878 394.422C0.14134 393.626 0.148493 392.831 0.155938 392.035C0.157405 391.803 0.158873 391.571 0.160384 391.332C0.162636 391.125 0.164887 390.917 0.167207 390.703C0.169536 390.434 0.169536 390.434 0.171913 390.159C0.229519 389.339 0.763715 389.53 1.4653 389.529ZM18.8327 408.993C18.197 409.703 17.6099 410.441 17.0296 411.197C16.8792 411.382 16.7289 411.567 16.5741 411.758C13.4127 415.751 12.146 420.278 12.1469 425.307C12.1461 425.845 12.1388 426.383 12.1312 426.921C12.0878 433.561 14.9311 438.88 19.4337 443.66C19.5562 443.795 19.6786 443.931 19.8047 444.07C23.7455 448.263 29.6631 450.513 35.3349 450.714C38.5732 450.772 41.4972 450.316 44.5775 449.309C44.7736 449.245 44.9697 449.181 45.1717 449.115C51.0888 447.079 56.2202 442.015 58.9523 436.465C59.8872 434.489 60.5873 432.402 60.906 430.234C60.9282 430.093 60.9504 429.952 60.9733 429.807C61.5262 425.51 60.9561 421.266 59.5035 417.209C59.432 417.002 59.3604 416.794 59.2867 416.581C58.2295 413.779 56.2971 411.384 54.2944 409.193C54.2 409.09 54.1055 408.986 54.0081 408.879C51.2213 405.866 47.9134 403.836 44.0391 402.505C43.9014 402.457 43.7637 402.41 43.6218 402.36C41.3515 401.625 39.0218 401.5 36.6512 401.503C36.4486 401.504 36.4486 401.504 36.2419 401.504C29.5384 401.528 23.5271 404.19 18.8327 408.993Z" fill="black"/>
<path d="M1.48698 485.515C1.71897 485.515 1.95095 485.514 2.18996 485.513C2.44248 485.514 2.695 485.514 2.95516 485.515C3.21233 485.514 3.46949 485.514 3.73445 485.514C4.27948 485.514 4.8245 485.514 5.36952 485.515C6.06956 485.516 6.76957 485.516 7.4696 485.514C8.13524 485.514 8.80087 485.514 9.4665 485.515C9.71902 485.514 9.97153 485.514 10.2317 485.513C10.4637 485.514 10.6957 485.515 10.9347 485.515C11.1401 485.516 11.3454 485.516 11.5571 485.516C12.0209 485.541 12.0209 485.541 12.2213 485.742C12.2431 486.117 12.2507 486.493 12.253 486.869C12.255 487.114 12.2569 487.358 12.2589 487.611C12.2601 487.884 12.2613 488.158 12.2624 488.432C12.2644 488.718 12.2664 489.004 12.2684 489.291C12.2739 490.07 12.2781 490.85 12.2821 491.629C12.2864 492.443 12.2919 493.257 12.2973 494.071C12.3073 495.613 12.3163 497.155 12.325 498.697C12.3348 500.453 12.3458 502.208 12.357 503.963C12.3798 507.575 12.4012 511.186 12.4216 514.798C12.518 514.724 12.6144 514.649 12.7136 514.572C13.1565 514.231 13.5998 513.89 14.0432 513.549C14.1948 513.432 14.3463 513.314 14.5024 513.194C15.7632 512.226 17.0468 511.373 18.4321 510.59C18.558 510.518 18.6838 510.445 18.8134 510.371C21.6074 508.778 24.5086 507.659 27.6106 506.82C27.7539 506.781 27.8972 506.742 28.0448 506.702C30.6632 506.032 33.241 505.911 35.9284 505.918C36.4835 505.918 37.0385 505.914 37.5936 505.908C40.7798 505.897 43.9439 506.197 47.0069 507.121C47.1794 507.172 47.352 507.222 47.5298 507.275C52.8764 508.915 57.51 511.933 61.5071 515.8C61.6062 515.894 61.7053 515.988 61.8074 516.085C63.4123 517.607 64.7931 519.238 66.1151 521.01C66.2014 521.123 66.2877 521.236 66.3765 521.353C70.4235 526.665 72.9318 533.551 72.9677 540.257C72.9688 540.427 72.97 540.598 72.9712 540.774C72.973 541.134 72.9744 541.494 72.9751 541.855C72.9771 542.392 72.9833 542.928 72.9896 543.465C73.0092 546.624 72.7028 549.76 71.7875 552.797C71.7366 552.969 71.6857 553.142 71.6332 553.32C70.4313 557.239 68.4696 560.896 65.9148 564.094C65.73 564.34 65.73 564.34 65.5415 564.591C63.3967 567.364 60.7382 570.045 57.9008 572.109C57.7594 572.213 57.6179 572.317 57.4722 572.424C56.262 573.296 55.0183 574.031 53.6935 574.714C53.3922 574.87 53.3922 574.87 53.0848 575.028C44.4723 579.405 34.2846 580.2 25.0773 577.213C20.378 575.608 16.4008 573.017 12.4216 570.105C12.4177 570.358 12.4137 570.611 12.4096 570.871C12.3944 571.807 12.3766 572.743 12.3581 573.679C12.3504 574.084 12.3434 574.49 12.3371 574.895C12.328 575.477 12.3164 576.059 12.3043 576.641C12.3008 576.914 12.3008 576.914 12.2972 577.193C12.2933 577.361 12.2893 577.53 12.2852 577.703C12.2825 577.852 12.2798 578.001 12.2771 578.154C12.2213 578.522 12.2213 578.522 11.8206 578.922C11.3492 578.972 11.3492 578.972 10.7516 578.971C10.5283 578.972 10.305 578.972 10.0749 578.973C9.8328 578.971 9.59071 578.97 9.34128 578.968C9.09377 578.968 8.84626 578.968 8.59125 578.968C7.93265 578.967 7.27408 578.965 6.61549 578.962C5.9453 578.959 5.27511 578.959 4.60491 578.959C4.09673 578.958 3.58856 578.957 3.08038 578.956C2.83829 578.956 2.5962 578.956 2.34678 578.955C2.12348 578.954 1.90018 578.953 1.67011 578.951C1.4729 578.951 1.27568 578.95 1.07249 578.949C0.601064 578.922 0.601064 578.922 0.200366 578.722C0.156678 573.67 0.119995 568.619 0.0876698 563.568C0.0864043 563.37 0.0851388 563.172 0.0838349 562.969C-0.0206939 546.533 0.00653039 530.098 0.0665227 513.663C0.0717591 512.228 0.0768569 510.793 0.0816925 509.358C0.0822263 509.2 0.0827601 509.041 0.08331 508.878C0.0838431 508.72 0.0843762 508.562 0.0849254 508.399C0.0967167 504.904 0.110015 501.409 0.124723 497.914C0.128847 496.924 0.13251 495.934 0.135987 494.945C0.14061 493.633 0.146291 492.322 0.15273 491.011C0.154926 490.532 0.156783 490.053 0.158283 489.574C0.160373 488.926 0.163678 488.278 0.167319 487.63C0.167652 487.439 0.167984 487.248 0.168327 487.052C0.179255 485.516 0.179255 485.516 1.48698 485.515ZM18.2004 526.001C15.5131 529.053 13.6201 532.499 12.622 536.44C12.5847 536.571 12.5474 536.703 12.509 536.838C12.0951 538.514 12.1539 540.236 12.1581 541.951C12.1587 542.498 12.154 543.044 12.1489 543.591C12.1244 550.24 14.9935 555.454 19.5716 560.123C23.8891 564.415 29.6481 566.916 35.763 566.965C36.0065 566.964 36.2501 566.963 36.5011 566.962C36.7565 566.961 37.012 566.96 37.2752 566.959C43.6433 566.88 48.9143 564.454 53.4932 560.086C53.6003 559.984 53.7075 559.882 53.8179 559.777C58.4756 555.243 61.0196 549.211 61.1658 542.727C61.1942 538.265 60.2785 534.317 58.1012 530.428C57.9922 530.233 57.8832 530.038 57.7709 529.837C54.208 523.891 48.359 519.987 41.7395 518.319C32.9334 516.165 24.2073 519.491 18.2004 526.001Z" fill="black"/>
<path d="M140.645 393.763C140.823 393.857 140.823 393.857 141.004 393.952C143.42 395.225 145.533 396.869 147.657 398.573C147.66 398.408 147.66 398.408 147.662 398.241C147.679 397.103 147.699 395.965 147.721 394.828C147.728 394.403 147.735 393.978 147.742 393.553C147.751 392.943 147.762 392.333 147.775 391.723C147.777 391.533 147.779 391.342 147.782 391.145C147.786 390.969 147.79 390.792 147.794 390.61C147.796 390.455 147.799 390.299 147.802 390.138C147.858 389.756 147.858 389.756 148.258 389.355C148.73 389.305 148.73 389.305 149.327 389.306C149.551 389.305 149.774 389.305 150.004 389.304C150.367 389.306 150.367 389.306 150.738 389.309C150.985 389.309 151.233 389.309 151.488 389.309C152.146 389.31 152.805 389.312 153.463 389.316C154.134 389.318 154.804 389.318 155.474 389.318C155.982 389.319 156.49 389.32 156.998 389.321C157.362 389.321 157.362 389.321 157.732 389.322C157.955 389.323 158.179 389.324 158.409 389.326C158.606 389.326 158.803 389.327 159.006 389.328C159.478 389.355 159.478 389.355 159.878 389.555C159.878 413.56 159.878 437.564 159.878 462.296C155.978 462.296 152.077 462.296 148.058 462.296C147.749 461.987 147.825 461.694 147.816 461.264C147.812 461.087 147.808 460.911 147.804 460.729C147.799 460.441 147.799 460.441 147.794 460.147C147.79 459.952 147.786 459.757 147.782 459.555C147.768 458.928 147.757 458.302 147.745 457.675C147.736 457.251 147.727 456.827 147.719 456.403C147.697 455.362 147.677 454.32 147.657 453.279C147.515 453.389 147.515 453.389 147.37 453.501C146.932 453.84 146.493 454.178 146.054 454.515C145.831 454.689 145.831 454.689 145.603 454.865C144.148 455.984 142.634 456.969 141.046 457.888C140.843 458.005 140.843 458.005 140.636 458.125C137.523 459.908 134.161 461.229 130.628 461.895C130.444 461.931 130.26 461.966 130.071 462.003C127.98 462.356 125.902 462.364 123.786 462.359C123.168 462.359 122.551 462.363 121.934 462.369C116.835 462.385 112.369 461.309 107.788 459.09C107.657 459.027 107.526 458.964 107.392 458.9C103.398 456.955 99.9897 454.096 96.7686 451.074C96.6266 450.948 96.4845 450.821 96.3382 450.691C94.9625 449.416 93.9741 447.831 92.962 446.265C92.881 446.14 92.8001 446.015 92.7167 445.887C89.8463 441.406 87.9683 436.496 87.1519 431.236C87.1312 431.104 87.1105 430.973 87.0892 430.837C85.8889 421.856 87.9467 412.107 93.4558 404.833C93.6245 404.616 93.7938 404.4 93.9637 404.183C94.1251 403.977 94.2865 403.771 94.4529 403.559C100.63 395.898 109.199 390.622 119.057 389.505C126.664 388.751 133.918 390.145 140.645 393.763ZM107.387 407.189C107.237 407.308 107.088 407.427 106.933 407.55C102.823 410.941 99.6763 416.734 98.9724 422.018C98.9505 422.18 98.9285 422.341 98.9059 422.508C98.194 428.869 99.4857 435.291 103.453 440.405C104.073 441.178 104.721 441.922 105.384 442.658C105.5 442.789 105.617 442.92 105.737 443.055C108.636 446.13 112.509 448.431 116.541 449.634C116.671 449.673 116.802 449.712 116.936 449.752C119.019 450.337 121.081 450.547 123.24 450.536C123.476 450.535 123.712 450.534 123.955 450.533C130.996 450.439 136.472 447.421 141.378 442.527C144.184 439.574 146.335 435.612 147.257 431.637C147.291 431.491 147.326 431.346 147.362 431.196C147.707 429.586 147.725 427.999 147.72 426.36C147.72 425.892 147.725 425.425 147.73 424.957C147.757 418.513 145.154 413.232 140.758 408.63C135.393 403.498 129.25 401.245 121.863 401.322C116.384 401.466 111.56 403.748 107.387 407.189Z" fill="black"/>
<path d="M116.113 506.141C116.294 506.14 116.474 506.138 116.66 506.137C117.041 506.135 117.422 506.134 117.802 506.133C118.373 506.131 118.943 506.125 119.513 506.119C122.592 506.101 125.522 506.436 128.486 507.309C128.659 507.359 128.832 507.409 129.01 507.461C134.009 508.98 139.31 511.66 143.049 515.399C143.115 512.357 143.181 509.315 143.25 506.181C147.15 506.181 151.051 506.181 155.07 506.181C155.07 530.186 155.07 554.19 155.07 578.922C154.557 579.179 154.193 579.148 153.619 579.149C153.399 579.149 153.18 579.15 152.954 579.151C152.598 579.15 152.598 579.15 152.234 579.149C151.991 579.15 151.748 579.15 151.497 579.15C150.983 579.15 150.468 579.15 149.953 579.149C149.163 579.148 148.373 579.149 147.583 579.15C147.084 579.15 146.585 579.15 146.086 579.149C145.848 579.15 145.61 579.15 145.365 579.151C145.146 579.15 144.927 579.149 144.701 579.149C144.507 579.149 144.314 579.148 144.114 579.148C143.65 579.123 143.65 579.123 143.25 578.922C143.25 575.88 143.25 572.839 143.25 569.704C142.126 570.564 141.002 571.424 139.844 572.31C131.44 578.193 121.594 580.347 111.455 578.63C104.124 577.23 98.05 573.186 92.5613 568.302C92.2986 568.072 92.2986 568.072 92.0307 567.838C85.9075 562.139 82.4605 552.524 82.1212 544.327C81.8781 535.892 83.9022 527.732 89.1553 521.01C89.301 520.822 89.4467 520.635 89.5967 520.441C95.6163 512.893 104.038 507.4 113.753 506.223C114.539 506.149 115.324 506.145 116.113 506.141ZM100.277 526.151C96.2496 530.84 94.0708 536.36 94.0889 542.552C94.089 542.692 94.0891 542.833 94.0893 542.977C94.1132 549.71 96.69 555.389 101.45 560.173C102.422 561.103 103.489 561.91 104.582 562.691C104.696 562.773 104.811 562.854 104.928 562.938C108.995 565.798 113.578 567.184 118.544 567.162C118.676 567.162 118.808 567.161 118.943 567.161C125.879 567.129 131.332 564.457 136.237 559.685C140.911 554.942 143.105 548.594 143.099 542.02C143.032 535.685 140.795 530.432 136.438 525.819C136.313 525.684 136.188 525.548 136.059 525.408C131.749 520.889 125.864 518.188 119.633 517.947C112.172 517.781 105.307 520.553 100.277 526.151Z" fill="black"/>
<path d="M373.651 398.573C373.653 398.46 373.655 398.348 373.657 398.232C373.679 397.065 373.702 395.898 373.725 394.731C373.734 394.295 373.742 393.859 373.75 393.423C373.762 392.798 373.775 392.172 373.788 391.547C373.791 391.351 373.794 391.155 373.798 390.953C373.802 390.772 373.806 390.592 373.81 390.406C373.815 390.166 373.815 390.166 373.819 389.922C373.851 389.555 373.851 389.555 374.051 389.355C374.407 389.335 374.763 389.329 375.119 389.329C375.347 389.328 375.575 389.328 375.81 389.327C376.058 389.327 376.306 389.328 376.562 389.328C376.815 389.328 377.067 389.328 377.328 389.328C377.863 389.327 378.399 389.328 378.935 389.329C379.623 389.33 380.31 389.329 380.998 389.328C381.652 389.327 382.307 389.328 382.961 389.328C383.209 389.328 383.457 389.327 383.713 389.327C383.941 389.328 384.169 389.328 384.403 389.329C384.605 389.329 384.807 389.329 385.015 389.329C385.471 389.355 385.471 389.355 385.672 389.555C385.691 389.942 385.696 390.329 385.696 390.716C385.697 390.97 385.697 391.223 385.698 391.485C385.697 391.77 385.696 392.055 385.696 392.341C385.696 392.641 385.696 392.941 385.696 393.241C385.697 394.07 385.696 394.899 385.695 395.728C385.694 396.621 385.694 397.513 385.694 398.405C385.695 399.953 385.694 401.5 385.693 403.048C385.691 405.285 385.691 407.522 385.69 409.76C385.69 413.389 385.689 417.019 385.687 420.649C385.685 424.175 385.683 427.702 385.683 431.229C385.683 431.555 385.683 431.555 385.682 431.887C385.682 432.977 385.682 434.066 385.682 435.156C385.68 444.203 385.676 453.249 385.672 462.296C381.771 462.296 377.87 462.296 373.851 462.296C373.785 459.254 373.719 456.212 373.651 453.078C373.056 453.607 372.461 454.136 371.848 454.681C371.359 455.05 370.876 455.404 370.37 455.746C370.234 455.838 370.098 455.93 369.958 456.024C364.483 459.679 358.407 462.306 351.727 462.337C351.528 462.338 351.33 462.339 351.126 462.34C350.707 462.342 350.289 462.343 349.87 462.344C349.242 462.346 348.614 462.352 347.986 462.359C344.827 462.376 341.82 462.109 338.79 461.156C338.625 461.105 338.46 461.054 338.29 461.002C332.957 459.294 328.447 456.209 324.271 452.543C323.971 452.283 323.666 452.029 323.36 451.776C318.778 447.841 315.746 441.622 314.072 435.907C314.027 435.753 313.981 435.599 313.934 435.44C313.113 432.444 312.846 429.499 312.867 426.404C312.87 425.839 312.867 425.274 312.863 424.71C312.859 421.573 313.186 418.508 314.084 415.493C314.161 415.233 314.161 415.233 314.239 414.967C316.295 408.226 320.726 401.997 326.217 397.613C326.556 397.34 326.892 397.063 327.221 396.777C340.906 385.093 360.473 388.255 373.651 398.573ZM333.581 406.989C333.407 407.133 333.232 407.277 333.053 407.425C328.541 411.3 325.358 417.071 324.766 423.02C324.639 426.106 324.551 429.237 325.367 432.238C325.405 432.382 325.444 432.527 325.484 432.676C327.249 439.02 331.8 444.19 337.411 447.518C342.847 450.574 349.563 451.453 355.619 449.872C360.071 448.553 363.607 446.176 366.839 442.858C366.96 442.744 367.081 442.63 367.205 442.512C371.206 438.678 373.569 432.82 373.691 427.323C373.768 420.092 371.984 414.51 367.126 409.083C363.786 405.72 359.798 403.182 355.219 401.979C355.014 401.925 355.014 401.925 354.805 401.869C347.319 399.984 339.408 402.082 333.581 406.989Z" fill="black"/>
<path d="M235.247 399.287C235.57 399.582 235.891 399.878 236.211 400.176C236.411 400.36 236.411 400.36 236.615 400.547C239.504 403.307 241.679 406.842 243.474 410.383C243.551 410.534 243.627 410.684 243.706 410.839C244.057 411.554 244.225 411.991 244.225 412.8C242.565 412.861 240.906 412.907 239.246 412.935C238.474 412.949 237.704 412.967 236.933 412.997C231.528 413.2 231.528 413.2 230.343 412.259C229.756 411.641 229.387 410.95 228.999 410.195C228.643 409.758 228.643 409.758 228.276 409.405C228.12 409.244 228.12 409.244 227.961 409.081C223.332 404.468 217.64 401.761 211.055 401.691C204.596 401.721 197.007 403.544 192.191 408.11C190.568 409.822 188.964 412.157 188.845 414.601C188.993 415.313 189.39 415.633 189.96 416.057C196.121 419.826 203.845 420.535 210.842 421.605C235.373 425.358 235.373 425.358 240.819 431.236C240.928 431.344 241.037 431.452 241.149 431.562C243.538 434.056 244.127 437.333 244.109 440.657C244.06 442.655 243.737 444.538 243.223 446.466C243.181 446.63 243.138 446.794 243.093 446.963C242.566 448.914 242.067 450.399 240.419 451.676C240.257 451.837 240.096 451.998 239.93 452.164C239.761 452.334 239.591 452.503 239.417 452.678C239.306 452.8 239.196 452.922 239.082 453.048C236.884 455.395 234.044 457.217 231.203 458.689C231.075 458.756 230.947 458.823 230.816 458.892C227.727 460.49 224.41 461.505 220.985 462.096C220.753 462.137 220.52 462.178 220.281 462.22C217.269 462.662 214.204 462.548 211.168 462.497C210.937 462.493 210.706 462.489 210.468 462.485C203.36 462.339 196.488 460.668 190.532 456.685C190.404 456.6 190.275 456.514 190.143 456.426C185.474 453.27 181.083 449.266 178.711 444.061C178.711 443.929 178.711 443.796 178.711 443.66C180.57 443.609 182.428 443.57 184.287 443.546C185.15 443.535 186.013 443.519 186.876 443.494C187.712 443.47 188.547 443.457 189.382 443.451C189.699 443.447 190.015 443.439 190.331 443.427C192.585 443.345 193.849 443.77 195.522 445.305C195.623 445.4 195.724 445.494 195.829 445.591C202.269 451.21 211.561 450.484 219.457 450.11C219.617 450.103 219.777 450.096 219.942 450.089C223.431 449.932 226.917 449.377 229.399 446.666C231.556 444.058 231.556 444.058 232.204 440.855C231.872 439.305 231.5 437.885 230.152 436.929C223.987 433.773 216.014 433.471 209.262 432.638C185.754 429.731 185.754 429.731 179.744 422.154C177.534 419 176.434 415.651 177.108 411.798C177.885 407.953 180.073 404.993 182.718 402.18C182.962 401.901 183.204 401.622 183.444 401.341C189.304 394.635 197.857 390.232 206.741 389.588C217.531 389.026 227.118 392.071 235.247 399.287Z" fill="black"/>
<path d="M660.35 334.048C662.256 334.028 664.153 334.087 666.057 334.179C666.346 334.193 666.634 334.206 666.922 334.22C667.671 334.255 668.421 334.29 669.17 334.326C669.938 334.363 670.707 334.399 671.475 334.435C672.976 334.506 674.476 334.577 675.977 334.649C675.991 344.628 676.004 354.608 676.011 364.588C676.011 364.735 676.011 364.883 676.011 365.035C676.014 368.246 676.016 371.456 676.018 374.667C676.019 376.241 676.02 377.816 676.021 379.39C676.021 379.547 676.021 379.703 676.021 379.865C676.025 384.942 676.031 390.02 676.038 395.097C676.046 400.315 676.051 405.533 676.052 410.752C676.053 411.489 676.053 412.226 676.053 412.963C676.053 413.108 676.053 413.253 676.053 413.403C676.054 415.737 676.058 418.072 676.063 420.407C676.067 422.754 676.069 425.102 676.068 427.45C676.067 428.721 676.068 429.993 676.073 431.265C676.076 432.429 676.077 433.594 676.074 434.759C676.074 435.18 676.075 435.601 676.077 436.022C676.093 438.868 675.957 441.418 673.974 443.66C671.87 445.525 670 446.043 667.252 445.945C665.062 445.796 663.374 444.688 661.953 443.059C660.088 440.443 660.292 437.485 660.302 434.414C660.301 433.981 660.301 433.547 660.301 433.114C660.3 431.926 660.301 430.739 660.303 429.551C660.305 428.269 660.304 426.987 660.304 425.705C660.304 423.485 660.305 421.265 660.307 419.045C660.31 416.718 660.311 414.39 660.312 412.062C660.312 411.917 660.312 411.773 660.312 411.623C660.312 410.888 660.312 410.152 660.312 409.416C660.313 404.208 660.316 399.001 660.32 393.793C660.323 388.734 660.326 383.676 660.328 378.618C660.328 378.462 660.328 378.306 660.328 378.145C660.329 376.578 660.329 375.012 660.33 373.445C660.331 370.254 660.332 367.063 660.333 363.872C660.333 363.725 660.333 363.578 660.333 363.427C660.337 353.634 660.343 343.841 660.35 334.048Z" fill="#F7D22B"/>
<path d="M256.447 379.536C257.958 379.531 259.47 379.528 260.981 379.525C261.683 379.524 262.385 379.523 263.087 379.521C263.893 379.518 264.699 379.517 265.505 379.516C265.758 379.515 266.012 379.514 266.272 379.513C266.505 379.513 266.738 379.513 266.977 379.513C267.286 379.512 267.286 379.512 267.602 379.512C268.067 379.536 268.067 379.536 268.267 379.736C268.286 380.334 268.292 380.927 268.29 381.525C268.29 381.713 268.29 381.9 268.29 382.094C268.29 382.717 268.288 383.34 268.287 383.964C268.286 384.395 268.286 384.826 268.286 385.257C268.285 386.394 268.283 387.531 268.281 388.668C268.279 389.827 268.278 390.986 268.277 392.145C268.275 394.421 268.271 396.697 268.267 398.973C268.39 398.96 268.513 398.947 268.64 398.933C270.764 398.73 272.891 398.707 275.023 398.666C275.452 398.657 275.881 398.649 276.31 398.64C277.211 398.622 278.113 398.604 279.014 398.587C280.14 398.565 281.267 398.542 282.393 398.519C288.171 398.399 293.943 398.354 299.722 398.372C299.722 402.472 299.722 406.572 299.722 410.796C289.342 410.796 278.962 410.796 268.267 410.796C267.873 423.947 267.873 423.947 270.07 437.047C270.121 437.203 270.172 437.359 270.225 437.519C271.126 440.11 272.475 442.399 274.278 444.462C274.394 444.597 274.51 444.732 274.63 444.872C276.648 447.057 279.346 448.43 282.091 449.471C282.293 449.549 282.495 449.627 282.703 449.707C285.861 450.792 289.227 451.147 292.547 451.175C292.896 451.18 292.896 451.18 293.252 451.186C295.535 451.17 297.379 450.719 299.722 450.273C299.722 454.571 299.722 458.87 299.722 463.298C287.795 463.748 275.55 463.053 266.336 454.528C266.18 454.38 266.024 454.233 265.863 454.08C265.713 453.941 265.563 453.801 265.408 453.658C261.227 449.644 258.632 444.162 256.979 438.683C256.866 438.311 256.743 437.943 256.617 437.576C255.8 434.083 256.234 430.017 256.239 426.439C256.239 425.997 256.239 425.555 256.24 425.114C256.243 420.617 256.263 416.121 256.287 411.624C256.292 410.488 256.298 409.353 256.303 408.217C256.314 406.085 256.325 403.952 256.335 401.82C256.348 399.385 256.36 396.949 256.372 394.514C256.396 389.521 256.421 384.528 256.447 379.536Z" fill="black"/>
<path d="M205.722 505.955C206.271 505.956 206.821 505.955 207.37 505.953C207.726 505.954 208.082 505.954 208.439 505.954C208.599 505.954 208.76 505.953 208.926 505.953C210.161 505.958 211.327 506.068 212.57 506.181C212.57 510.413 212.57 514.646 212.57 519.006C210.366 518.605 210.366 518.605 209.729 518.479C203.335 517.311 195.46 518.637 190.071 522.362C189.075 523.096 188.195 523.939 187.326 524.817C187.18 524.959 187.035 525.1 186.885 525.246C184.85 527.348 183.539 530.254 182.718 533.033C182.648 533.27 182.648 533.27 182.576 533.512C181.972 535.828 181.851 538.198 181.688 540.578C181.671 540.825 181.654 541.072 181.636 541.326C181.164 548.276 181.18 555.237 181.169 562.199C181.165 564.03 181.158 565.86 181.15 567.69C181.134 571.434 181.123 575.178 181.115 578.922C180.602 579.179 180.238 579.148 179.664 579.149C179.445 579.149 179.225 579.15 178.999 579.15C178.643 579.15 178.643 579.15 178.279 579.149C178.036 579.149 177.793 579.15 177.543 579.15C177.028 579.15 176.513 579.15 175.999 579.149C175.208 579.148 174.418 579.149 173.628 579.15C173.129 579.15 172.63 579.15 172.131 579.149C171.893 579.15 171.656 579.15 171.411 579.15C171.191 579.15 170.972 579.149 170.746 579.149C170.552 579.148 170.359 579.148 170.159 579.148C169.695 579.123 169.695 579.123 169.295 578.922C169.264 573.978 169.234 569.034 169.206 564.09C169.193 561.793 169.179 559.497 169.165 557.2C169.152 555.195 169.14 553.19 169.129 551.184C169.124 550.126 169.118 549.068 169.11 548.009C169.084 544.162 169.063 540.315 169.15 536.469C169.157 536.164 169.164 535.859 169.169 535.554C169.215 533.14 169.594 531.061 170.497 528.825C170.619 528.493 170.741 528.161 170.862 527.829C172.569 523.249 174.924 519.312 178.31 515.8C178.479 515.617 178.647 515.434 178.82 515.245C182.172 511.7 186.545 509.482 191.133 507.985C191.277 507.937 191.422 507.89 191.571 507.841C196.155 506.372 200.934 505.944 205.722 505.955Z" fill="black"/>
<path d="M242.422 195.379C242.488 195.379 242.554 195.379 242.622 195.379C242.622 200.272 242.622 205.166 242.622 210.208C242.556 210.208 242.49 210.208 242.422 210.208C242.422 205.314 242.422 200.421 242.422 195.379Z" fill="#111617"/>
</g>
<defs>
<clipPath id="clip0_11610_291">
<rect width="804" height="619" fill="white"/>
</clipPath>
</defs>
</svg>
